<?xml version="1.0" encoding="UTF-8"?>
<svg version="1.1" xmlns="http://www.w3.org/2000/svg" width="465" height="465">
<path d="M0 0 C0.90171936 -0.00794586 1.80343872 -0.01589172 2.73248291 -0.02407837 C20.48096331 -0.14406321 37.75842198 1.8205223 55 6.125 C56.56911133 6.51341064 56.56911133 6.51341064 58.16992188 6.90966797 C94.16918 16.07381265 126.6698123 33.86289402 154.4375 58.375 C154.94522949 58.81956543 155.45295898 59.26413086 155.97607422 59.72216797 C198.31589041 96.94801985 224.56084352 149.64253819 231.4375 205.375 C231.5317627 206.0983252 231.62602539 206.82165039 231.72314453 207.56689453 C232.65131865 215.52196105 232.68098921 223.50121715 232.6875 231.5 C232.68817474 232.24866333 232.68884949 232.99732666 232.68954468 233.76867676 C232.59939229 297.12474462 206.7848489 354.84879166 162.5625 399.5625 C154.94407939 407.14632352 147.23602329 414.19626173 138.4375 420.375 C137.76041992 420.85340332 137.08333984 421.33180664 136.38574219 421.82470703 C105.62137933 443.36804959 71.61133487 457.55853094 34.4375 463.375 C33.74043945 463.49214355 33.04337891 463.60928711 32.32519531 463.72998047 C-24.46938912 473.03898079 -86.66485748 457.28833789 -133.5 424.375 C-140.85522668 419.09002627 -147.79890277 413.3921642 -154.5625 407.375 C-155.31756836 406.71250244 -155.31756836 406.71250244 -156.08789062 406.03662109 C-192.81970642 373.74893064 -218.52259853 329.24774188 -228.5625 281.375 C-228.75714844 280.4684668 -228.95179688 279.56193359 -229.15234375 278.62792969 C-239.99455163 225.7101602 -230.87954717 169.77155939 -205.5625 122.375 C-205.21074707 121.71016602 -204.85899414 121.04533203 -204.49658203 120.36035156 C-194.38775292 101.3784693 -181.33782176 84.96116259 -166.5625 69.375 C-165.85287109 68.62234863 -165.85287109 68.62234863 -165.12890625 67.85449219 C-157.53420374 59.85329815 -149.39599966 52.96749473 -140.5625 46.375 C-140.01932129 45.96040527 -139.47614258 45.54581055 -138.91650391 45.11865234 C-110.89325589 23.75187847 -77.95094413 10.31788019 -43.5625 3.375 C-42.78084473 3.20983887 -41.99918945 3.04467773 -41.19384766 2.87451172 C-27.57760835 0.11588959 -13.83704111 0.06378915 0 0 Z " fill="#FEFEFE" transform="translate(232.5625,-0.375)"/>
<path d="M0 0 C15.89147845 13.22127301 27.56260225 28.41298458 36.01293945 47.2890625 C36.73610352 48.8359375 36.73610352 48.8359375 37.47387695 50.4140625 C47.32326519 73.33627513 48.33276347 102.33252031 42.01293945 126.2890625 C41.70549805 127.60197266 41.70549805 127.60197266 41.3918457 128.94140625 C33.68138452 158.49019226 11.58661149 184.51825057 -14.04321289 200.15917969 C-23.33617892 205.56081832 -37.13131431 213.2890625 -47.98706055 213.2890625 C-47.92905273 214.29582031 -47.87104492 215.30257812 -47.8112793 216.33984375 C-47.00707642 236.76954794 -53.17116401 256.90381463 -66.98706055 272.2890625 C-67.71538086 273.11019531 -68.44370117 273.93132812 -69.1940918 274.77734375 C-80.25636784 286.554468 -97.00928693 296.31220826 -113.51977539 297.46606445 C-136.00170426 297.9804641 -155.65534698 294.85287814 -172.98706055 279.2890625 C-173.80819336 278.56074219 -174.62932617 277.83242188 -175.4753418 277.08203125 C-189.30911066 264.08794487 -197.6991907 245.7694459 -199.27374268 226.8431015 C-199.38731335 223.16184311 -199.41542009 219.4906175 -199.40698242 215.80761719 C-199.41434499 214.40785048 -199.42293746 213.00808979 -199.43264771 211.6083374 C-199.45466111 207.84303103 -199.45780403 204.07794483 -199.45590019 200.31258297 C-199.45577937 197.14298917 -199.46439014 193.97344014 -199.47267771 190.803859 C-199.49184557 183.30377849 -199.49482247 175.80380921 -199.48803711 168.30371094 C-199.4814264 160.6369443 -199.50415549 152.97066243 -199.54135084 145.30399394 C-199.57235251 138.66642575 -199.58337464 132.02901083 -199.57951403 125.39137197 C-199.57747476 121.45195591 -199.58247375 117.51291596 -199.60740662 113.57357025 C-199.84780107 72.29869878 -191.16737012 37.86121282 -161.79956055 7.7265625 C-118.61481314 -35.30011482 -47.2136221 -38.009786 0 0 Z " fill="#020202" transform="translate(308.987060546875,96.7109375)"/>
<path d="M0 0 C25.90371421 -0.83594076 50.3489544 6.19619426 69.72558594 23.953125 C88.44650682 41.81606228 100.40386063 64.53338836 101.19458008 90.73657227 C101.51500403 116.22667579 92.68283692 139.04811468 75.85058594 158.078125 C75.26921875 158.75875 74.68785156 159.439375 74.08886719 160.140625 C64.32166313 170.76891757 49.14898013 180.46058044 34.85058594 183.078125 C34.84511749 181.74960258 34.84511749 181.74960258 34.83953857 180.39424133 C34.8014705 171.99515366 34.74440694 163.59644689 34.6666832 155.19762897 C34.62738839 150.8810061 34.59511265 146.56458174 34.57958984 142.24780273 C34.56430339 138.07187651 34.52964993 133.8964967 34.48227692 129.72081566 C34.46758543 128.13789848 34.45955206 126.55490323 34.45870209 124.97191811 C34.44189292 109.34526464 31.55830458 95.13667827 20.60058594 83.328125 C11.30841598 74.64997509 0.51084206 70.49144883 -12.08691406 70.703125 C-12.96790771 70.71400146 -13.84890137 70.72487793 -14.7565918 70.73608398 C-27.43546965 71.04738785 -37.95602582 75.31709274 -46.89941406 84.640625 C-55.05934993 94.69271991 -58.29399831 105.30359644 -58.35253906 117.98828125 C-58.36108917 119.43321205 -58.36108917 119.43321205 -58.36981201 120.90733337 C-58.37924427 122.94561675 -58.38578893 124.98391525 -58.38964844 127.0222168 C-58.39930433 130.10558561 -58.43032429 133.18827322 -58.46191406 136.27148438 C-58.5158852 146.23395939 -58.528974 155.56923466 -55.14941406 165.078125 C-54.77300781 166.20347656 -54.39660156 167.32882812 -54.00878906 168.48828125 C-45.8959189 187.88489689 -33.42096627 200.67958901 -14.55957031 209.79296875 C-7.65000593 212.39691684 -0.38827001 213.71078554 6.85058594 215.078125 C7.57891802 230.29217304 4.00257497 243.43044697 -6.14941406 255.078125 C-17.47739049 264.91557822 -29.56946016 269.49541297 -44.45019531 269.35546875 C-54.13217599 268.6295758 -62.21389418 264.42725322 -70.14941406 259.078125 C-71.03628906 258.500625 -71.92316406 257.923125 -72.83691406 257.328125 C-81.48420194 248.9145476 -87.73910398 237.26442975 -88.28084183 225.13562965 C-88.28381649 224.10003599 -88.28679115 223.06444233 -88.28985596 221.99746704 C-88.2955661 220.80070343 -88.30127625 219.60393982 -88.30715942 218.37091064 C-88.30827728 217.07111267 -88.30939514 215.7713147 -88.31054688 214.43212891 C-88.31518045 213.03850169 -88.32020583 211.64487573 -88.32559204 210.25125122 C-88.33867313 206.47379364 -88.34515354 202.6963538 -88.3496027 198.91887712 C-88.35254264 196.55180534 -88.35664933 194.1847383 -88.36110687 191.81766891 C-88.37477553 184.39167512 -88.38444315 176.9656923 -88.38830876 169.5396868 C-88.3927768 161.00590055 -88.41026874 152.47227548 -88.43930936 143.93853819 C-88.46104229 137.31911038 -88.47101932 130.6997275 -88.47234988 124.08026445 C-88.47339039 120.13832217 -88.47913427 116.19653151 -88.49716949 112.25462723 C-88.51385052 108.53630404 -88.51571056 104.81824313 -88.50703049 101.09989548 C-88.50591303 99.11345228 -88.51947786 97.127017 -88.53378296 95.140625 C-88.42782771 71.83526079 -80.87345343 49.55527338 -65.14941406 32.078125 C-64.72031738 31.59988281 -64.2912207 31.12164062 -63.84912109 30.62890625 C-48.99002626 14.30645545 -27.57122448 1.65134681 -5.15722656 0.171875 C-3.43803152 0.1182897 -1.71889488 0.06247687 0 0 Z " fill="#FDFDFD" transform="translate(226.1494140625,97.921875)"/>
<path d="M0 0 C4.44384355 3.09261061 7.18725183 7.1167498 8.82421875 12.26953125 C9.00022546 14.7932209 9.07779112 17.20153699 9.05126953 19.72192383 C9.05156158 20.45417175 9.05185364 21.18641968 9.05215454 21.94085693 C9.05076695 24.34871484 9.03523293 26.756259 9.01953125 29.1640625 C9.01579908 30.83843314 9.01295307 32.51280596 9.01095581 34.18717957 C9.00333538 38.58484981 8.98370059 42.98238704 8.96154785 47.38000488 C8.94105513 51.87115683 8.93194677 56.36233036 8.921875 60.85351562 C8.90045315 69.65891507 8.86633647 78.46420659 8.82421875 87.26953125 C7.05434119 86.96956435 5.28548705 86.66355467 3.51708984 86.35498047 C2.03938614 86.10033524 2.03938614 86.10033524 0.53182983 85.84054565 C-2.58356684 85.1835324 -4.89497508 84.14391894 -7.55078125 82.39453125 C-8.36933594 81.85570312 -9.18789062 81.316875 -10.03125 80.76171875 C-10.73894531 80.26929688 -11.44664062 79.776875 -12.17578125 79.26953125 C-13.50609375 78.40328125 -13.50609375 78.40328125 -14.86328125 77.51953125 C-24.049086 68.58199149 -30.27503512 55.91474952 -30.50497437 43.04042053 C-30.50720001 42.29231613 -30.50942566 41.54421173 -30.51171875 40.7734375 C-30.51837555 39.98106186 -30.52503235 39.18868622 -30.53189087 38.37229919 C-30.54196083 36.70582379 -30.54670965 35.03930853 -30.54638672 33.37280273 C-30.55076357 30.84225321 -30.58715082 28.31344537 -30.625 25.78320312 C-30.63086894 24.15495381 -30.63483782 22.52669631 -30.63671875 20.8984375 C-30.6582753 19.77931725 -30.6582753 19.77931725 -30.68026733 18.6375885 C-30.62521696 12.21782296 -28.69532289 6.86288759 -24.17578125 2.2109375 C-23.51578125 1.75589844 -22.85578125 1.30085937 -22.17578125 0.83203125 C-21.51578125 0.35894531 -20.85578125 -0.11414063 -20.17578125 -0.6015625 C-13.61516574 -4.30472243 -6.37751335 -3.54584731 0 0 Z " fill="#FCFCFC" transform="translate(224.17578125,197.73046875)"/>
</svg>
