<svg width="260" height="260" viewBox="0 0 260 260" fill="none" xmlns="http://www.w3.org/2000/svg">
<path d="M104.353 36.4588H47.6691C36.2512 36.4588 26.91 45.8 26.91 57.2173C26.91 68.6352 35.5621 77.9765 46.98 77.9765H104.838L104.353 36.4588Z" fill="#073042"/>
<path d="M233.384 221.382H47.6479C36.23 221.382 26.8888 212.04 26.8888 200.623V57.1539C26.8888 57.1539 26.8265 77.9777 49.0102 77.9777H203.057C203.057 77.9777 233.384 75.3672 233.384 97.9866V221.382Z" fill="#4285F4"/>
<path d="M146.719 147.884C151.158 144.457 154.033 139.1 154.033 133.072C154.033 122.98 146.002 114.749 135.997 114.383C136.212 114.375 136.422 114.348 136.638 114.348C137.759 114.348 138.85 114.465 139.918 114.654V102.778C139.918 101.823 139.539 100.908 138.864 100.234C138.189 99.5588 137.274 99.1797 136.32 99.1795C135.366 99.1797 134.451 99.5588 133.776 100.234C133.101 100.908 132.722 101.823 132.722 102.778V114.548C123.621 115.815 116.586 123.627 116.586 133.072C116.586 139.366 119.717 144.932 124.493 148.329L90.2662 221.382H112.634L128.437 187.552C131.362 181.339 140.19 181.313 143.151 187.508L159.447 221.382H181.997L146.719 147.883V147.884ZM135.309 144.601C128.941 144.601 123.78 139.439 123.78 133.072C123.78 126.704 128.942 121.543 135.309 121.543C141.676 121.543 146.838 126.705 146.838 133.072C146.838 139.44 141.676 144.601 135.309 144.601Z" fill="#3870B2"/>
<path d="M129.125 121.543C135.493 121.543 140.655 126.705 140.655 133.072C140.655 139.44 135.493 144.601 129.125 144.601C122.758 144.601 117.596 139.439 117.596 133.072C117.596 126.704 122.758 121.543 129.125 121.543ZM133.734 114.654V102.778C133.734 101.823 133.355 100.908 132.68 100.234C132.005 99.5588 131.09 99.1797 130.136 99.1795C129.182 99.1797 128.267 99.5588 127.592 100.234C126.917 100.908 126.538 101.823 126.538 102.778V114.548C117.437 115.815 110.402 123.627 110.402 133.072C110.402 139.366 113.534 144.932 118.309 148.329L75.092 240.418C71.9565 247.149 76.8699 254.859 84.2957 254.859C86.2298 254.86 88.1238 254.307 89.7547 253.267C91.3856 252.228 92.6856 250.744 93.5017 248.99L122.253 187.552C125.178 181.339 134.006 181.313 136.967 187.508L166.37 248.616C167.199 250.334 168.496 251.784 170.112 252.799C171.729 253.813 173.598 254.351 175.506 254.351C182.983 254.351 187.89 246.539 184.646 239.804L140.535 147.884C144.974 144.457 147.849 139.1 147.849 133.072C147.849 124.339 141.835 116.999 133.732 114.944" fill="#073042"/>
<path d="M92.0653 46.6549H171.535V61.2059H92.0653V46.6549Z" fill="white"/>
<path d="M160.008 59.4992C157.028 59.4992 154.603 57.0733 154.603 54.0924C154.603 51.1116 157.028 48.6875 160.008 48.6875C162.989 48.6875 165.413 51.1121 165.413 54.0924C165.413 57.0733 162.989 59.4992 160.008 59.4992ZM100.264 59.4992C97.2833 59.4992 94.8592 57.0733 94.8592 54.0924C94.8592 51.1116 97.2833 48.6875 100.264 48.6875C103.245 48.6875 105.669 51.1121 105.669 54.0924C105.669 57.0733 103.245 59.4992 100.264 59.4992ZM161.947 26.94L172.75 8.23043C173.047 7.71408 173.128 7.10087 172.973 6.52537C172.819 5.94987 172.443 5.4591 171.927 5.16077C171.411 4.86362 170.797 4.7834 170.222 4.93771C169.646 5.09202 169.156 5.46825 168.857 5.9839L157.919 24.9292C149.555 21.1117 140.16 18.9851 130.136 18.9851C120.112 18.9851 110.718 21.1117 102.354 24.9292L91.4157 5.98272C91.1172 5.46692 90.6263 5.09057 90.0508 4.93625C89.4752 4.78194 88.8619 4.86226 88.3454 5.1596C87.8293 5.45771 87.4526 5.94858 87.2982 6.52432C87.1439 7.10005 87.2245 7.71351 87.5223 8.22984L98.3258 26.9394C79.7761 37.0285 67.0883 55.8081 65.2327 77.9947H195.04C193.182 55.8081 180.495 37.0291 161.947 26.94Z" fill="#3DDC84"/>
<path d="M214.705 117.827H206.125C205.557 117.827 205.092 118.292 205.092 118.86L204.884 253.494C204.884 254.063 205.348 254.528 205.917 254.528L214.705 254.577C224.978 254.577 233.384 246.171 233.384 235.898V99.1266C233.384 109.4 224.978 117.826 214.705 117.826L214.705 117.827Z" fill="#073042"/>
</svg>
