<svg width="444" height="444" viewBox="0 0 444 444" fill="none" xmlns="http://www.w3.org/2000/svg">
<path d="M58.3279 365.716C53.495 365.716 49.9872 362.489 51.2647 359.219L159.258 82.7801C160.13 80.5477 163.022 79 166.321 79H218.519C223.346 79 226.853 82.2194 225.585 85.4873L118.375 361.927C117.507 364.164 114.612 365.716 111.308 365.716H58.3279Z" fill="black"/>
<path d="M225.481 366C220.649 366 217.141 362.774 218.418 359.503L326.411 83.0642C327.283 80.8318 330.175 79.2841 333.474 79.2841H385.672C390.499 79.2841 394.006 82.5035 392.739 85.7715L285.528 362.211C284.661 364.448 281.766 366 278.462 366H225.481Z" fill="black"/>
</svg>
