<svg width="24" height="24" viewBox="0 0 24 24" fill="none" xmlns="http://www.w3.org/2000/svg">
<path fill-rule="evenodd" clip-rule="evenodd" d="M14 6C14 7.10457 13.1046 8 12 8C10.8954 8 10 7.10457 10 6C10 4.89543 10.8954 4 12 4C13.1046 4 14 4.89543 14 6ZM8 18C8 19.1046 7.10457 20 6 20C4.89543 20 4 19.1046 4 18C4 16.8954 4.89543 16 6 16C7.10457 16 8 16.8954 8 18ZM6 14C7.10457 14 8 13.1046 8 12C8 10.8954 7.10457 10 6 10C4.89543 10 4 10.8954 4 12C4 13.1046 4.89543 14 6 14ZM8 6C8 7.10457 7.10457 8 6 8C4.89543 8 4 7.10457 4 6C4 4.89543 4.89543 4 6 4C7.10457 4 8 4.89543 8 6ZM18 8C19.1046 8 20 7.10457 20 6C20 4.89543 19.1046 4 18 4C16.8954 4 16 4.89543 16 6C16 7.10457 16.8954 8 18 8ZM19.342 14.9578C19.342 15.1521 19.3248 15.3348 19.302 15.5176L20.5072 16.4601C20.6158 16.5458 20.6443 16.7 20.5758 16.8257L19.4334 18.8021C19.382 18.8935 19.2848 18.9449 19.1877 18.9449C19.1535 18.9449 19.1192 18.9392 19.0849 18.9278L17.6626 18.3566C17.3656 18.5793 17.0457 18.7735 16.6973 18.9163L16.4802 20.43C16.4631 20.5671 16.3431 20.67 16.2003 20.67H13.9155C13.7727 20.67 13.6527 20.5671 13.6356 20.43L13.4185 18.9163C13.0701 18.7735 12.7502 18.585 12.4532 18.3566L11.0308 18.9278C11.0023 18.9392 10.968 18.9449 10.9337 18.9449C10.8309 18.9449 10.7338 18.8935 10.6824 18.8021L9.53998 16.8257C9.47143 16.7 9.49999 16.5458 9.60852 16.4601L10.8138 15.5176C10.7909 15.3348 10.7738 15.1463 10.7738 14.9578C10.7738 14.7693 10.7909 14.5808 10.8138 14.3981L9.60852 13.4556C9.49999 13.3699 9.46572 13.2156 9.53998 13.09L10.6824 11.1136C10.7338 11.0222 10.8309 10.9708 10.928 10.9708C10.9623 10.9708 10.9966 10.9765 11.0308 10.9879L12.4532 11.5591C12.7502 11.3364 13.0701 11.1421 13.4185 10.9993L13.6356 9.48564C13.6527 9.34855 13.7727 9.24573 13.9155 9.24573H16.2003C16.3431 9.24573 16.4631 9.34855 16.4802 9.48564L16.6973 10.9993C17.0457 11.1421 17.3656 11.3306 17.6626 11.5591L19.0849 10.9879C19.1135 10.9765 19.1478 10.9708 19.182 10.9708C19.2848 10.9708 19.382 11.0222 19.4334 11.1136L20.5758 13.09C20.6443 13.2156 20.6158 13.3699 20.5072 13.4556L19.302 14.3981C19.3248 14.5808 19.342 14.7636 19.342 14.9578ZM18.1995 14.9578C18.1995 14.8379 18.1938 14.7179 18.171 14.5409L18.091 13.8954L18.5994 13.4955L19.2106 13.01L18.8107 12.3188L18.0853 12.6102L17.4798 12.8558L16.96 12.4559C16.7315 12.2846 16.503 12.1532 16.2574 12.0504L15.6519 11.8048L15.5605 11.1593L15.452 10.3882H14.658L14.5438 11.1593L14.4524 11.8048L13.8469 12.0504C13.6127 12.1475 13.3785 12.2846 13.1329 12.4674L12.6188 12.8558L12.0247 12.6159L11.2993 12.3246L10.8995 13.0157L11.5164 13.4955L12.0247 13.8954L11.9448 14.5409C11.9276 14.7122 11.9162 14.8436 11.9162 14.9578C11.9162 15.0721 11.9276 15.2035 11.9448 15.3805L12.0247 16.026L11.5164 16.4259L10.8995 16.9057L11.2993 17.5968L12.0247 17.3055L12.6302 17.0599L13.15 17.4597C13.3785 17.6311 13.607 17.7625 13.8526 17.8653L14.4581 18.1109L14.5495 18.7564L14.658 19.5275H15.4577L15.572 18.7564L15.6634 18.1109L16.2688 17.8653C16.503 17.7682 16.7372 17.6311 16.9829 17.4483L17.497 17.0599L18.091 17.2998L18.8165 17.5911L19.2163 16.9L18.5994 16.4201L18.091 16.0203L18.171 15.3748C18.1881 15.2035 18.1995 15.0778 18.1995 14.9578ZM12.773 14.9578C12.773 13.6955 13.7955 12.673 15.0579 12.673C16.3203 12.673 17.3427 13.6955 17.3427 14.9578C17.3427 16.2202 16.3203 17.2427 15.0579 17.2427C13.7955 17.2427 12.773 16.2202 12.773 14.9578ZM13.9155 14.9578C13.9155 15.5862 14.4295 16.1003 15.0579 16.1003C15.6862 16.1003 16.2003 15.5862 16.2003 14.9578C16.2003 14.3295 15.6862 13.8154 15.0579 13.8154C14.4295 13.8154 13.9155 14.3295 13.9155 14.9578Z" fill="#5F6368"/>
</svg>
