<svg width="274" height="274" viewBox="0 0 274 274" fill="none" xmlns="http://www.w3.org/2000/svg">
<path d="M240.939 93.4066C239.35 94.6396 211.293 110.449 211.293 145.604C211.293 186.265 246.995 200.65 248.063 201.006C247.899 201.883 242.392 220.707 229.24 239.887C217.512 256.765 205.265 273.616 186.633 273.616C168.001 273.616 163.206 262.793 141.697 262.793C120.736 262.793 113.283 273.973 96.24 273.973C79.1972 273.973 67.3056 258.355 53.633 239.175C37.7958 216.652 25 181.662 25 148.453C25 95.1876 59.6336 66.9382 93.7192 66.9382C111.831 66.9382 126.928 78.8298 138.299 78.8298C149.122 78.8298 166 66.2258 186.605 66.2258C194.414 66.2258 222.472 66.9382 240.939 93.4066ZM176.823 43.6756C185.345 33.565 191.373 19.5362 191.373 5.5074C191.373 3.562 191.208 1.5892 190.852 0C176.988 0.5206 160.493 9.2338 150.547 20.7692C142.738 29.6468 135.449 43.6756 135.449 57.8962C135.449 60.0334 135.806 62.1706 135.97 62.8556C136.847 63.02 138.272 63.2118 139.696 63.2118C152.136 63.2118 167.781 54.8822 176.823 43.6756Z" fill="black"/>
</svg>
