<svg width="274" height="274" viewBox="0 0 274 274" fill="none" xmlns="http://www.w3.org/2000/svg">
<path d="M164 0H54.4C39.33 0 27.137 12.33 27.137 27.4L27 246.6C27 261.67 39.193 274 54.263 274H218.8C233.87 274 246.2 261.67 246.2 246.6V82.2L164 0ZM54.4 246.6V27.4H150.3V95.9H218.8V246.6H54.4Z" fill="black"/>
<path d="M130.727 159.636L119.364 134.636L108 159.636L83 171L108 182.364L119.364 207.364L130.727 182.364L155.727 171L130.727 159.636Z" fill="black"/>
<path d="M161.448 164.103L168.183 149.287L183 142.552L168.183 135.817L161.448 121L154.713 135.817L139.897 142.552L154.713 149.287L161.448 164.103Z" fill="black"/>
<path d="M162.31 176.172L155.306 191.582L139.897 198.586L155.306 205.591L162.31 221L169.315 205.591L184.724 198.586L169.315 191.582L162.31 176.172Z" fill="black"/>
</svg>
