<svg width="274" height="274" viewBox="0 0 274 274" fill="none" xmlns="http://www.w3.org/2000/svg">
<path d="M164 0H54.4C39.33 0 27 12.33 27 27.4V246.6C27 261.67 39.193 274 54.263 274H218.8C233.87 274 246.2 261.67 246.2 246.6V82.2L164 0ZM218.8 246.6H54.4V27.4H150.3V95.9H218.8V246.6Z" fill="black"/>
<path d="M99.1634 133.163C82.9455 149.381 82.9455 175.543 99.1634 191.761C112.422 205.019 132.309 207.268 148.054 198.745L170.309 221L187 204.309L164.745 182.054C173.15 166.309 171.019 146.422 157.761 133.163C141.543 116.946 115.263 116.946 99.1634 133.163ZM140.951 174.951C133.967 181.935 122.721 181.935 115.855 174.951C108.87 167.967 108.87 156.721 115.855 149.855C122.839 142.87 134.085 142.87 140.951 149.855C147.935 156.839 147.935 167.967 140.951 174.951Z" fill="black"/>
</svg>
