<svg width="274" height="274" viewBox="0 0 274 274" fill="none" xmlns="http://www.w3.org/2000/svg">
<path d="M164 0H54.4C39.33 0 27.137 12.33 27.137 27.4L27 246.6C27 261.67 39.193 274 54.263 274H218.8C233.87 274 246.2 261.67 246.2 246.6V82.2L164 0ZM54.4 246.6V27.4H150.3V95.9H218.8V246.6H54.4Z" fill="black"/>
<path d="M154 154L159.327 142.27L171 137L159.327 131.73L154 120L148.787 131.73L137 137L148.787 142.27L154 154Z" fill="black"/>
<path d="M103 167L107.32 156.32L118 152L107.32 147.68L103 137L98.68 147.68L88 152L98.68 156.32L103 167Z" fill="black"/>
<path d="M193 160C193 166.075 188.075 171 182 171C175.925 171 171 166.075 171 160C171 153.925 175.925 149 182 149C188.075 149 193 153.925 193 160Z" fill="black"/>
<path d="M165 187C165 193.075 160.075 198 154 198C147.925 198 143 193.075 143 187C143 180.925 147.925 176 154 176C160.075 176 165 180.925 165 187Z" fill="black"/>
<path d="M142 165C142 171.075 137.075 176 131 176C124.925 176 120 171.075 120 165C120 158.925 124.925 154 131 154C137.075 154 142 158.925 142 165Z" fill="black"/>
<path d="M110 198C110 204.075 105.075 209 99 209C92.9249 209 88 204.075 88 198C88 191.925 92.9249 187 99 187C105.075 187 110 191.925 110 198Z" fill="black"/>
<path d="M175.042 159L183.527 167.485L159.485 191.527L151 183.042L175.042 159Z" fill="black"/>
<path d="M123.042 165L131.527 173.485L107.485 197.527L99 189.042L123.042 165Z" fill="black"/>
<path d="M126 168.485L134.485 160L158.527 184.042L150.042 192.527L126 168.485Z" fill="black"/>
</svg>
