<svg width="444" height="444" viewBox="0 0 444 444" fill="none" xmlns="http://www.w3.org/2000/svg">
<path d="M197.685 341.667C192.623 314.099 201.236 284.607 223.185 263.992L310.056 182.404C323.443 169.831 339.814 162.416 356.72 160.082C343.728 98.7848 289.506 53 224.5 53C172.36 53 127.075 82.5883 104.523 125.888C50.2175 131.662 8 177.668 8 233.417C8 293.135 56.5321 341.667 116.25 341.667H197.685Z" fill="black"/>
<path d="M251.16 353.894C236.494 338.006 237.487 313.169 253.375 298.502L290.54 264.194L274.244 246.54L237.078 280.848C211.434 304.521 209.834 344.546 233.507 370.19C257.179 395.834 297.204 397.434 322.848 373.762L360.014 339.454L343.718 321.8L306.552 356.108C290.664 370.775 265.827 369.782 251.16 353.894ZM297.832 328.02L372.163 259.403L355.008 240.821L280.678 309.437L297.832 328.02ZM329.992 195.078L292.826 229.386L309.123 247.04L346.288 212.732C362.176 198.065 387.013 199.058 401.68 214.946C416.347 230.835 415.354 255.672 399.466 270.338L362.3 304.646L378.596 322.3L415.762 287.992C441.406 264.319 443.006 224.294 419.334 198.65C395.661 173.006 355.636 171.406 329.992 195.078Z" fill="black"/>
</svg>
