<svg width="17" height="12" viewBox="0 0 17 12" fill="none" xmlns="http://www.w3.org/2000/svg">
<path d="M13.658 1.005C12.6545 0.5355 11.5816 0.194289 10.4598 0C10.322 0.249071 10.1611 0.584077 10.0501 0.850574C8.85768 0.671245 7.67621 0.671245 6.50569 0.850574C6.39475 0.584077 6.23014 0.249071 6.09115 0C4.96819 0.194289 3.894 0.536754 2.89054 1.00748C0.866533 4.06602 0.317859 7.04858 0.592197 9.98879C1.93462 10.9913 3.23559 11.6003 4.51461 11.9988C4.83041 11.5641 5.11205 11.1021 5.35469 10.6152C4.89258 10.4396 4.44999 10.2229 4.03179 9.97137C4.14273 9.88917 4.25126 9.80324 4.35611 9.71482C6.90683 10.9079 9.67825 10.9079 12.1985 9.71482C12.3046 9.80324 12.4131 9.88917 12.5228 9.97137C12.1034 10.2242 11.6596 10.4408 11.1975 10.6165C11.4401 11.1021 11.7205 11.5654 12.0376 12C13.3178 11.6015 14.62 10.9925 15.9624 9.98879C16.2843 6.58034 15.4125 3.62516 13.658 1.005ZM5.70219 8.18059C4.93649 8.18059 4.30855 7.46576 4.30855 6.59528C4.30855 5.72479 4.92308 5.00873 5.70219 5.00873C6.48132 5.00873 7.10923 5.72354 7.09582 6.59528C7.09704 7.46576 6.48132 8.18059 5.70219 8.18059ZM10.8524 8.18059C10.0867 8.18059 9.45878 7.46576 9.45878 6.59528C9.45878 5.72479 10.0733 5.00873 10.8524 5.00873C11.6315 5.00873 12.2595 5.72354 12.2461 6.59528C12.2461 7.46576 11.6315 8.18059 10.8524 8.18059Z" fill="white"/>
</svg>
