<svg width="274" height="274" viewBox="0 0 274 274" fill="none" xmlns="http://www.w3.org/2000/svg">
<g clip-path="url(#clip0_1577_30)">
<path d="M57.0833 239.75C50.8042 239.75 45.4288 237.514 40.9573 233.043C36.4858 228.571 34.25 223.196 34.25 216.917V57.0833C34.25 50.8042 36.4858 45.4288 40.9573 40.9573C45.4288 36.4858 50.8042 34.25 57.0833 34.25H216.917C223.196 34.25 228.571 36.4858 233.043 40.9573C237.514 45.4288 239.75 50.8042 239.75 57.0833V216.917C239.75 223.196 237.514 228.571 233.043 233.043C228.571 237.514 223.196 239.75 216.917 239.75H57.0833ZM91.3333 216.917V57.0833H57.0833V216.917H91.3333ZM114.167 216.917H216.917V57.0833H114.167V216.917Z" fill="black"/>
</g>
<defs>
<clipPath id="clip0_1577_30">
<rect width="274" height="274" fill="white"/>
</clipPath>
</defs>
</svg>
