<svg width="260" height="260" viewBox="0 0 260 260" fill="none" xmlns="http://www.w3.org/2000/svg">
<path d="M236.814 60.9539L138.574 7.20097C135.949 5.75061 132.999 4.98985 130 4.98985C127.001 4.98985 124.051 5.75061 121.426 7.20097L23.1863 60.9762C20.3807 62.5113 18.0388 64.7714 16.4049 67.5206C14.7711 70.2698 13.9054 73.4073 13.8981 76.6053V183.374C13.9054 186.572 14.7711 189.71 16.4049 192.459C18.0388 195.208 20.3807 197.468 23.1863 199.003L121.426 252.779C124.051 254.229 127.001 254.99 130 254.99C132.999 254.99 135.949 254.229 138.574 252.779L236.814 199.003C239.619 197.468 241.961 195.208 243.595 192.459C245.229 189.71 246.095 186.572 246.102 183.374V76.6165C246.101 73.4128 245.238 70.2683 243.604 67.5127C241.969 64.7571 239.624 62.4917 236.814 60.9539ZM130 22.8301L219.689 71.9501L186.455 90.1468L96.7547 41.0268L130 22.8301ZM130 121.07L40.3113 71.9501L78.156 51.2304L167.845 100.35L130 121.07ZM31.76 87.5792L121.069 136.454V232.226L31.76 183.386V87.5792ZM228.24 183.341L138.931 232.226V136.498C180.258 113.884 179.484 114.319 228.24 87.5792V183.33V183.341Z" fill="black"/>
<path d="M194.943 171.623L206.707 147.815L187.601 135.995" stroke="black" stroke-width="10.7171" stroke-linecap="round" stroke-linejoin="round"/>
<path d="M172.228 141.964L160.463 165.772L179.57 177.593" stroke="black" stroke-width="10.7171" stroke-linecap="round" stroke-linejoin="round"/>
</svg>
