<svg width="274" height="274" viewBox="0 0 274 274" fill="none" xmlns="http://www.w3.org/2000/svg">
<path d="M163.704 34.8148H227.862C234.566 34.8148 240 40.2492 240 46.9529V111.111" stroke="black" stroke-width="26.7037"/>
<path d="M163.704 240.815H227.862C234.566 240.815 240 235.38 240 228.677V164.519" stroke="black" stroke-width="26.7037"/>
<path d="M110.296 34.8148H46.138C39.4344 34.8148 34 40.2492 34 46.9529V111.111" stroke="black" stroke-width="26.7037"/>
<path d="M110.296 240.815H46.138C39.4344 240.815 34 235.38 34 228.677V164.519" stroke="black" stroke-width="26.7037"/>
<path d="M139.844 92.2066L104.807 199H76.5823L124.449 70.1755H142.41L139.844 92.2066ZM168.954 199L133.828 92.2066L130.997 70.1755H149.135L197.267 199H168.954ZM167.361 151.045V171.837H99.3213V151.045H167.361Z" fill="black"/>
</svg>
