<svg width="274" height="274" viewBox="0 0 274 274" fill="none" xmlns="http://www.w3.org/2000/svg">
<path d="M246.386 126.875L147.122 27.6169C141.407 21.899 132.136 21.899 126.415 27.6169L105.805 48.2322L131.95 74.3773C138.027 72.3237 144.994 73.7019 149.836 78.5464C154.708 83.4206 156.074 90.4474 153.968 96.5464L179.171 121.746C185.27 119.643 192.301 121.004 197.171 125.881C203.975 132.685 203.975 143.71 197.171 150.519C190.362 157.326 179.336 157.326 172.525 150.519C167.408 145.398 166.141 137.876 168.737 131.572L145.232 108.069V169.917C146.889 170.739 148.456 171.832 149.836 173.213C156.64 180.017 156.64 191.042 149.836 197.854C143.032 204.655 132 204.655 125.2 197.854C118.396 191.04 118.396 180.014 125.2 173.213C126.883 171.533 128.83 170.261 130.908 169.41V106.985C128.83 106.134 126.888 104.875 125.2 103.182C120.047 98.0309 118.807 90.4647 121.449 84.1357L95.6755 58.3567L27.6095 126.415C21.8915 132.138 21.8915 141.409 27.6095 147.127L126.878 246.388C132.593 252.106 141.862 252.106 147.585 246.388L246.386 147.587C252.103 141.869 252.103 132.593 246.386 126.875Z" fill="black"/>
</svg>
