<svg width="274" height="274" viewBox="0 0 274 274" fill="none" xmlns="http://www.w3.org/2000/svg">
<path fill-rule="evenodd" clip-rule="evenodd" d="M137 19C70.1475 19 16 73.1475 16 140C16 193.543 50.6362 238.766 98.7337 254.799C104.784 255.858 107.052 252.228 107.052 249.051C107.052 246.178 106.901 236.649 106.901 226.515C76.5 232.111 68.635 219.104 66.215 212.298C64.8537 208.819 58.955 198.08 53.8125 195.206C49.5775 192.938 43.5275 187.341 53.6613 187.19C63.19 187.039 69.9963 195.963 72.265 199.593C83.155 217.894 100.549 212.751 107.506 209.575C108.565 201.71 111.741 196.416 115.22 193.391C88.2975 190.366 60.165 179.93 60.165 133.648C60.165 120.489 64.8538 109.599 72.5675 101.129C71.3575 98.1038 67.1225 85.7013 73.7775 69.0638C73.7775 69.0638 83.9113 65.8875 107.052 81.4663C116.732 78.7438 127.018 77.3825 137.303 77.3825C147.588 77.3825 157.873 78.7438 167.553 81.4663C190.694 65.7363 200.828 69.0638 200.828 69.0638C207.483 85.7013 203.248 98.1038 202.038 101.129C209.751 109.599 214.44 120.338 214.44 133.648C214.44 180.081 186.156 190.366 159.234 193.391C163.62 197.173 167.401 204.433 167.401 215.776C167.401 231.96 167.25 244.968 167.25 249.051C167.25 252.228 169.519 256.009 175.569 254.799C223.364 238.766 258 193.391 258 140C258 73.1475 203.853 19 137 19Z" fill="white"/>
</svg>
