<svg width="260" height="260" viewBox="0 0 260 260" fill="none" xmlns="http://www.w3.org/2000/svg">
<g clip-path="url(#clip0_1728_3)">
<g clip-path="url(#clip1_1728_3)">
<path d="M260 86.6667V75.8333H219.206L215.634 86.6667H260ZM178.75 167.917V157.083H146.25V167.917H178.75ZM215.397 151.667L219.431 140.833H186.931L191.022 151.667H215.397ZM157.083 140.833H178.75V151.667H157.083V140.833ZM157.083 124.583H178.75V135.417H157.083V124.583ZM227.5 157.083V167.917H260V157.083H227.5ZM195.982 102.917L192.405 92.0833H146.25V102.917H195.982ZM201.336 119.167L197.765 108.333H157.083V119.167H201.336ZM180.798 124.583L184.889 135.417H221.451L225.486 124.583H180.798ZM227.5 124.583H249.167V135.417H227.5V124.583ZM146.25 173.333H178.75V184.167H146.25V173.333ZM190.616 86.6667L187.044 75.8333H146.25V86.6667H190.616ZM199.204 173.333L203.294 184.167L207.329 173.333H199.204ZM227.5 173.333H260V184.167H227.5V173.333ZM213.845 92.0833L210.268 102.917H260V92.0833H213.845ZM213.377 157.083H193.065L197.155 167.917H209.343L213.377 157.083ZM227.5 140.833H249.167V151.667H227.5V140.833ZM208.485 108.333L204.914 119.167H249.167V108.333H208.485ZM0 75.8333H43.3333V86.6667H0V75.8333ZM0 92.0833H43.3333V102.917H0V92.0833ZM10.8333 108.333H32.5V119.167H10.8333V108.333ZM10.8333 124.583H32.5V135.417H10.8333V124.583ZM10.8333 140.833H32.5V151.667H10.8333V140.833ZM0 157.083H43.3333V167.917H0V157.083ZM0 173.333H43.3333V184.167H0V173.333ZM54.1667 92.0833H97.5V102.917H54.1667V92.0833ZM135.293 86.6667C130.344 80.1215 122.58 75.8333 113.75 75.8333H54.1667V86.6667H135.293Z" fill="#3F51B5"/>
<path d="M138.548 92.0833H89.0872C87.592 95.401 86.6667 99.0347 86.6667 102.917H140.833C140.833 99.0573 139.998 95.401 138.548 92.0833ZM129.865 124.583H65V135.417H129.853C125.339 132.059 119.81 130 113.75 130C119.81 130 125.351 127.946 129.865 124.583ZM92.2075 173.333H54.1667V184.167H113.75C122.58 184.167 130.35 179.878 135.293 173.333H92.2075ZM97.5 157.083H54.1667V167.917H138.548C139.998 164.599 140.833 160.943 140.833 157.083H97.5ZM113.75 108.333C113.75 108.333 113.75 108.785 113.75 113.75C113.75 118.715 108.333 119.167 108.333 119.167H135.304C137.691 116.001 139.474 112.356 140.292 108.333H113.75ZM65 108.333H92.0833V119.167H65V108.333Z" fill="#3F51B5"/>
<path d="M113.75 151.667H140.213C139.366 147.672 137.679 143.987 135.298 140.833H108.333C108.333 140.833 113.75 141.736 113.75 146.25C113.75 150.764 113.75 151.667 113.75 151.667ZM65 140.833H92.0833V151.667H65V140.833Z" fill="#3F51B5"/>
</g>
</g>
<defs>
<clipPath id="clip0_1728_3">
<rect width="260" height="260" fill="white"/>
</clipPath>
<clipPath id="clip1_1728_3">
<rect width="260" height="260" fill="white"/>
</clipPath>
</defs>
</svg>
