<svg width="274" height="274" viewBox="0 0 274 274" fill="none" xmlns="http://www.w3.org/2000/svg">
<g clip-path="url(#clip0_2122_2)">
<path d="M194.768 148.417C173.533 148.417 155.723 163.601 151.157 183.808C140.311 179.128 130.378 180.383 122.843 183.694C118.162 163.373 100.352 148.417 79.2317 148.417C54.4575 148.417 34.25 168.853 34.25 194.083C34.25 219.314 54.4575 239.75 79.2317 239.75C102.75 239.75 121.93 221.255 123.757 197.737C127.638 194.997 137.799 189.859 150.243 197.965C152.298 221.369 171.25 239.75 194.768 239.75C219.542 239.75 239.75 219.314 239.75 194.083C239.75 168.853 219.542 148.417 194.768 148.417ZM79.2317 226.735C61.4217 226.735 47.1508 212.122 47.1508 194.083C47.1508 176.045 61.5358 161.432 79.2317 161.432C97.0417 161.432 111.312 176.045 111.312 194.083C111.312 212.122 97.0417 226.735 79.2317 226.735ZM194.768 226.735C176.958 226.735 162.687 212.122 162.687 194.083C162.687 176.045 176.958 161.432 194.768 161.432C212.578 161.432 226.963 176.045 226.963 194.083C226.963 212.122 212.464 226.735 194.768 226.735ZM251.167 119.875H22.8333V137H251.167V119.875ZM177.301 30.0259C174.789 24.4317 168.396 21.4634 162.345 23.4042L137 31.8525L111.541 23.4042L110.97 23.29C104.919 21.5775 98.5258 24.7742 96.2425 30.5967L68.5 102.75H205.5L177.643 30.5967L177.301 30.0259Z" fill="black"/>
</g>
<defs>
<clipPath id="clip0_2122_2">
<rect width="274" height="274" fill="white"/>
</clipPath>
</defs>
</svg>
