<svg width="13" height="13" viewBox="0 0 13 13" fill="none" xmlns="http://www.w3.org/2000/svg">
<path fill-rule="evenodd" clip-rule="evenodd" d="M11.1686 12.5H1.83529C1.09891 12.5 0.501953 11.903 0.501953 11.1667V1.83333C0.501953 1.09695 1.09891 0.5 1.83529 0.5H11.1686C11.905 0.5 12.502 1.09695 12.502 1.83333V11.1667C12.502 11.903 11.905 12.5 11.1686 12.5ZM9.05391 10.8337H10.8346V7.17553C10.8346 5.62774 9.95725 4.87936 8.73173 4.87936C7.50564 4.87936 6.98965 5.83415 6.98965 5.83415V5.05588H5.27352V10.8337H6.98965V7.80068C6.98965 6.98801 7.36374 6.50441 8.07975 6.50441C8.73793 6.50441 9.05391 6.96912 9.05391 7.80068V10.8337ZM2.16797 3.23316C2.16797 3.82194 2.64164 4.29933 3.22619 4.29933C3.81074 4.29933 4.28414 3.82194 4.28414 3.23316C4.28414 2.64439 3.81074 2.16699 3.22619 2.16699C2.64164 2.16699 2.16797 2.64439 2.16797 3.23316ZM4.12954 10.8337H2.34006V5.05588H4.12954V10.8337Z" fill="white"/>
</svg>
