<svg width="32" height="32" viewBox="0 0 32 32" fill="none" xmlns="http://www.w3.org/2000/svg">
<path d="M16 25.3334V4.73962C13.9583 3.55212 11.3073 3.81253 9.5625 5.56253C8.0625 7.06253 7.65625 9.23441 8.32292 11.1146C5.80208 12.0625 4 14.4792 4 17.3334C4 19.5417 5.08333 21.4792 6.73437 22.6927C7.08333 25.6771 9.58854 28 12.6667 28C13.901 28 15.0469 27.625 16 26.9844V25.3334Z" stroke="#1E1E1F" stroke-width="2.66667" stroke-miterlimit="10" stroke-linejoin="round"/>
<path d="M8.71352 6.66669C7.23956 9.21877 8.11456 12.4792 10.6666 13.9531" stroke="#1E1E1F" stroke-width="2.66667" stroke-miterlimit="10"/>
<path d="M15.9896 13.3334C15.9948 15.5365 14.2084 17.3282 12.0052 17.3334" stroke="#1E1E1F" stroke-width="2.66667" stroke-miterlimit="10"/>
<path d="M16 10.6667H22.6667V6.66669" stroke="#1E1E1F" stroke-width="2.66667" stroke-miterlimit="10" stroke-linecap="round" stroke-linejoin="round"/>
<path d="M16 16H28" stroke="#1E1E1F" stroke-width="2.66667" stroke-miterlimit="10" stroke-linejoin="round"/>
<path d="M25.3333 5.33335C25.3333 6.80731 24.1406 8.00002 22.6667 8.00002C21.1927 8.00002 20 6.80731 20 5.33335C20 3.8594 21.1927 2.66669 22.6667 2.66669C24.1406 2.66669 25.3333 3.8594 25.3333 5.33335Z" fill="#1E1E1F"/>
<path d="M30.6667 16C30.6667 17.474 29.474 18.6667 28 18.6667C26.5261 18.6667 25.3334 17.474 25.3334 16C25.3334 14.5261 26.5261 13.3334 28 13.3334C29.474 13.3334 30.6667 14.5261 30.6667 16Z" fill="#1E1E1F"/>
<path d="M16 21.3334H22.6667V25.3334" stroke="#1E1E1F" stroke-width="2.66667" stroke-miterlimit="10" stroke-linecap="round" stroke-linejoin="round"/>
<path d="M25.3333 26.6667C25.3333 28.1406 24.1406 29.3333 22.6667 29.3333C21.1927 29.3333 20 28.1406 20 26.6667C20 25.1927 21.1927 24 22.6667 24C24.1406 24 25.3333 25.1927 25.3333 26.6667Z" fill="#1E1E1F"/>
</svg>
