<svg width="260" height="260" viewBox="0 0 260 260" fill="none" xmlns="http://www.w3.org/2000/svg">
<g clip-path="url(#clip0_1817_38)">
<path fill-rule="evenodd" clip-rule="evenodd" d="M85.6375 11.8083C87.9775 12.7292 90.09 14.2458 92.0075 16.25C95.2033 19.565 97.9008 24.31 99.9592 29.9325C102.028 35.5875 103.372 41.8492 103.881 48.1325C110.702 44.2737 118.271 41.9241 126.078 41.2425L126.631 41.1992C136.056 40.4408 145.373 42.1417 153.498 46.3342C154.592 46.9083 155.664 47.5258 156.715 48.1758C157.257 42.0117 158.578 35.8908 160.615 30.3658C162.673 24.7325 165.371 19.9983 168.556 16.6725C170.336 14.747 172.513 13.2315 174.937 12.2308C177.721 11.1475 180.678 10.9525 183.56 11.7758C187.904 13.0108 191.631 15.7625 194.567 19.76C197.253 23.4108 199.268 28.0908 200.644 33.7025C203.136 43.8208 203.569 57.135 201.89 73.19L202.464 73.6233L202.746 73.8292C210.947 80.0692 216.656 88.9633 219.678 99.2875C224.391 115.397 222.018 133.467 213.893 143.574L213.698 143.802L213.72 143.834C218.238 152.089 220.978 160.81 221.563 169.834L221.585 170.159C222.278 181.697 219.418 193.31 212.767 204.717L212.691 204.826L212.799 205.086C217.913 217.62 219.516 230.241 217.544 242.851L217.479 243.273C217.174 245.115 216.15 246.761 214.633 247.849C213.116 248.938 211.229 249.381 209.387 249.08C208.474 248.938 207.599 248.616 206.811 248.135C206.022 247.654 205.337 247.022 204.794 246.275C204.25 245.528 203.859 244.681 203.644 243.783C203.428 242.885 203.392 241.954 203.537 241.042C205.346 229.851 203.645 218.628 198.337 207.209C197.841 206.148 197.621 204.98 197.697 203.812C197.773 202.643 198.142 201.513 198.77 200.525L198.813 200.46C205.357 190.45 208.065 180.635 207.48 170.993C206.982 162.554 203.959 154.267 198.813 146.369C197.813 144.834 197.456 142.966 197.821 141.17C198.186 139.374 199.243 137.794 200.763 136.771L200.861 136.706C203.493 134.983 205.92 130.585 207.144 124.572C208.495 117.463 208.142 110.135 206.115 103.187C203.894 95.6042 199.832 89.2775 194.144 84.955C187.698 80.0367 179.162 77.6642 168.361 78.3467C166.949 78.4385 165.541 78.1046 164.321 77.3881C163.1 76.6716 162.122 75.6055 161.514 74.3275C158.113 67.1233 153.151 61.9667 146.965 58.7708C141.026 55.8068 134.377 54.5611 127.768 55.1742C114.281 56.2467 102.386 63.8517 98.8433 73.4392C98.3422 74.7885 97.4407 75.9526 96.2597 76.7754C95.0787 77.5983 93.6744 78.0407 92.235 78.0433C80.6758 78.065 71.7275 80.7733 65.1842 85.6592C59.5292 89.8842 55.6725 95.7883 53.6358 102.863C51.7929 109.521 51.5405 116.52 52.8992 123.294C54.1125 129.339 56.485 134.344 59.2042 137.042L59.2908 137.117C61.5875 139.36 62.075 142.859 60.4717 145.622C56.5717 152.36 53.6575 162.403 53.1808 172.055C52.6392 183.083 55.1958 192.66 60.97 199.528L61.1433 199.734C62.0147 200.75 62.5752 201.995 62.7577 203.32C62.9402 204.646 62.737 205.996 62.1725 207.209C55.9325 220.599 54.015 231.606 56.0842 240.273C56.4561 242.075 56.1101 243.951 55.1197 245.502C54.1293 247.053 52.5728 248.156 50.7814 248.576C48.99 248.997 47.1051 248.702 45.5279 247.754C43.9508 246.806 42.8058 245.28 42.3367 243.501C39.7042 232.472 41.4917 219.841 47.4608 205.606L47.6125 205.227L47.5258 205.097C44.5921 200.763 42.4025 195.97 41.0475 190.916L40.9933 190.71C39.349 184.404 38.702 177.879 39.0758 171.373C39.5525 161.514 42.0875 151.418 45.8142 143.314L45.9442 143.033L45.9225 143.011C42.7483 138.483 40.3975 132.687 39.0975 126.273L39.0433 126.013C37.2522 117.068 37.5974 107.826 40.0508 99.0383C42.8892 89.1258 48.4683 80.6108 56.6908 74.4575C57.3408 73.97 58.0233 73.4825 58.7058 73.0275C56.9833 56.8533 57.4167 43.4525 59.9192 33.2692C61.295 27.6575 63.3208 22.9775 66.0075 19.3267C68.9325 15.34 72.6592 12.5883 77.0033 11.3425C79.885 10.5192 82.8533 10.7033 85.6375 11.7975V11.8083ZM130.228 110.283C140.368 110.283 149.728 113.674 156.726 119.546C163.551 125.255 167.613 132.925 167.613 140.563C167.613 150.183 163.215 157.679 155.339 162.467C148.623 166.53 139.62 168.502 129.307 168.502C118.376 168.502 109.038 165.696 102.299 160.55C95.615 155.458 91.8667 148.308 91.8667 140.563C91.8667 132.903 96.1783 125.212 103.307 119.481C110.543 113.663 120.098 110.283 130.228 110.283ZM130.228 119.99C122.712 119.924 115.395 122.406 109.471 127.032C104.477 131.04 101.649 136.077 101.649 140.573C101.649 145.21 103.924 149.554 108.258 152.858C113.187 156.617 120.434 158.795 129.307 158.795C137.963 158.795 145.264 157.203 150.237 154.18C155.253 151.147 157.82 146.748 157.82 140.563C157.82 135.98 155.155 130.921 150.421 126.956C145.178 122.568 138.071 119.99 130.228 119.99ZM137.399 133.098L137.443 133.142C138.743 134.778 138.472 137.15 136.836 138.45L133.673 140.942V145.773C133.667 146.849 133.235 147.878 132.471 148.636C131.708 149.393 130.675 149.817 129.599 149.814C128.524 149.817 127.491 149.393 126.727 148.636C125.964 147.878 125.532 146.849 125.526 145.773V140.79L122.59 138.428C122.203 138.118 121.881 137.734 121.643 137.299C121.404 136.863 121.255 136.385 121.203 135.892C121.15 135.398 121.196 134.899 121.337 134.423C121.479 133.948 121.713 133.505 122.027 133.12C122.666 132.342 123.587 131.847 124.589 131.743C125.591 131.64 126.593 131.936 127.378 132.568L129.707 134.431L132.091 132.546C132.873 131.928 133.866 131.64 134.857 131.743C135.849 131.846 136.761 132.333 137.399 133.098ZM82.7992 112.309C87.9775 112.309 92.1917 116.534 92.1917 121.745C92.1945 124.243 91.2058 126.64 89.4426 128.409C87.6795 130.178 85.2861 131.175 82.7883 131.181C80.2943 131.172 77.9054 130.175 76.1449 128.409C74.3843 126.642 73.3958 124.25 73.3958 121.756C73.3901 119.258 74.3761 116.86 76.1372 115.089C77.8983 113.318 80.3014 112.318 82.7992 112.309ZM177.114 112.309C182.314 112.309 186.517 116.534 186.517 121.745C186.52 124.243 185.532 126.64 183.768 128.409C182.005 130.178 179.612 131.175 177.114 131.181C174.62 131.172 172.231 130.175 170.471 128.409C168.71 126.642 167.722 124.25 167.722 121.756C167.716 119.258 168.702 116.86 170.463 115.089C172.224 113.318 174.616 112.318 177.114 112.309ZM80.6 24.9167L80.5675 24.9383C79.3125 25.4841 78.2408 26.3791 77.48 27.5167L77.4258 27.5817C75.9308 29.6292 74.6308 32.6408 73.6558 36.595C71.8142 44.0917 71.3158 54.2642 72.3125 66.7333C76.9708 65.3467 82.0517 64.48 87.5225 64.1658L87.6308 64.155L87.8367 63.7867C88.335 62.8983 88.8658 62.0425 89.44 61.1975C90.7725 52.845 89.6783 42.8675 86.6992 34.7208C85.2475 30.7775 83.4817 27.6792 81.7917 25.9133C81.4428 25.5462 81.054 25.2192 80.6325 24.9383L80.6 24.9167ZM179.985 25.35L179.963 25.3608C179.542 25.6417 179.153 25.9687 178.804 26.3358C177.114 28.1017 175.338 31.2108 173.897 35.1542C170.755 43.7558 169.704 54.3942 171.405 63.0175L172.033 64.0683L172.12 64.22H172.445C177.822 64.2214 183.17 64.9948 188.327 66.5167C189.258 54.34 188.738 44.3842 186.94 37.0283C185.965 33.0742 184.665 30.0625 183.159 28.015L183.116 27.95C182.357 26.8084 181.285 25.9095 180.028 25.3608H179.985V25.35Z" fill="black"/>
</g>
<defs>
<clipPath id="clip0_1817_38">
<rect width="260" height="260" fill="white"/>
</clipPath>
</defs>
</svg>
