<svg width="176" height="178" viewBox="0 0 176 178" fill="none" xmlns="http://www.w3.org/2000/svg">
<path d="M163.959 72.8698C165.952 66.8849 166.643 60.544 165.986 54.2707C165.33 47.9973 163.341 41.9369 160.152 36.4942C155.426 28.2622 148.207 21.7449 139.536 17.8822C130.865 14.0195 121.192 13.0115 111.91 15.0035C107.724 10.2858 102.579 6.51666 96.8178 3.94848C91.0569 1.38035 84.8142 0.0723025 78.5071 0.111991C69.0182 0.089058 59.7671 3.08013 52.0876 8.65395C44.408 14.2275 38.6969 22.0964 35.7778 31.1249C29.5964 32.3907 23.7564 34.9618 18.6489 38.6667C13.5418 42.372 9.28463 47.1253 6.16311 52.6089C1.39903 60.8182 -0.634575 70.328 0.355603 79.768C1.34583 89.2076 5.30858 98.0884 11.6725 105.13C9.67987 111.115 8.98863 117.456 9.64503 123.729C10.3014 130.003 12.2903 136.063 15.4787 141.506C20.2053 149.737 27.4249 156.254 36.0956 160.117C44.7662 163.98 54.44 164.988 63.7209 162.996C67.9071 167.714 73.0529 171.483 78.8133 174.052C84.5742 176.62 90.8169 177.928 97.124 177.888C106.618 177.913 115.874 174.92 123.556 169.343C131.239 163.766 136.951 155.892 139.868 146.857C146.049 145.592 151.889 143.021 156.996 139.316C162.104 135.611 166.36 130.857 169.482 125.373C174.24 117.165 176.269 107.657 175.276 98.2213C174.284 88.7853 170.321 79.9084 163.959 72.8698ZM97.1382 166.266C89.3449 166.277 81.7964 163.548 75.812 158.556C76.0818 158.409 76.5551 158.149 76.8636 157.96L112.261 137.514C113.149 137.008 113.887 136.276 114.398 135.39C114.91 134.505 115.176 133.5 115.17 132.478V82.5742L130.132 91.2133C130.21 91.2524 130.277 91.3102 130.328 91.3818C130.379 91.4533 130.411 91.5364 130.422 91.6231V132.951C130.411 141.778 126.902 150.24 120.663 156.485C114.424 162.73 105.965 166.247 97.1382 166.266ZM25.5582 135.695C21.6547 128.95 20.2476 121.048 21.584 113.37C21.8467 113.528 22.3058 113.808 22.6351 113.997L58.0324 134.444C58.9147 134.959 59.9182 135.231 60.94 135.231C61.9613 135.231 62.9649 134.959 63.8471 134.444L107.064 109.49V126.768C107.068 126.856 107.052 126.945 107.014 127.025C106.977 127.105 106.92 127.175 106.85 127.228L71.0667 147.888C63.4129 152.296 54.3227 153.488 45.7911 151.202C37.2596 148.916 29.9831 143.339 25.5582 135.695ZM16.2462 58.4195C20.1329 51.6658 26.2716 46.4951 33.5876 43.812C33.5876 44.1169 33.5698 44.6569 33.5698 45.0315V85.9244C33.5636 86.9458 33.8298 87.9502 34.34 88.8351C34.8507 89.7196 35.5876 90.452 36.4751 90.9573L79.6916 115.908L64.7302 124.546C64.6564 124.595 64.5716 124.624 64.4836 124.632C64.3956 124.64 64.3067 124.627 64.2253 124.592L28.4391 103.914C20.7987 99.4893 15.2244 92.2156 12.9387 83.6871C10.653 75.1591 11.8424 66.0724 16.2462 58.4195ZM139.17 87.0249L95.9533 62.0715L110.915 53.436C110.989 53.3876 111.074 53.3578 111.162 53.3498C111.25 53.3418 111.338 53.356 111.42 53.3907L147.206 74.0507C152.689 77.2178 157.156 81.8809 160.084 87.4947C163.012 93.1084 164.28 99.44 163.74 105.748C163.2 112.057 160.873 118.081 157.034 123.115C153.194 128.149 147.999 131.985 142.058 134.174C142.058 133.865 142.058 133.326 142.058 132.951V92.0578C142.066 91.0382 141.803 90.0347 141.296 89.1502C140.788 88.2658 140.055 87.5324 139.17 87.0249ZM154.061 64.6124C153.799 64.4511 153.34 64.1742 153.01 63.9853L117.612 43.5387C116.73 43.024 115.727 42.7524 114.705 42.7524C113.684 42.7524 112.68 43.024 111.798 43.5387L68.5818 68.4924V51.2142C68.5769 51.1258 68.5938 51.0378 68.6311 50.9578C68.6684 50.8778 68.7249 50.808 68.7956 50.7551L104.579 30.112C110.06 26.9511 116.329 25.4169 122.652 25.688C128.974 25.9595 135.088 28.0258 140.279 31.6449C145.469 35.264 149.522 40.2862 151.963 46.1249C154.404 51.9631 155.132 58.3755 154.061 64.6124ZM60.4476 95.4084L45.4822 86.7693C45.404 86.7302 45.336 86.6724 45.2853 86.6009C45.2347 86.5293 45.2022 86.4462 45.1916 86.3591V45.0315C45.1956 38.7018 47.0027 32.5044 50.4009 27.1644C53.7996 21.824 58.6489 17.5627 64.3813 14.8782C70.1138 12.1942 76.492 11.1984 82.7698 12.0075C89.048 12.8167 94.9653 15.3973 99.8298 19.4476C99.56 19.5947 99.0902 19.8538 98.7782 20.0431L63.3809 40.4898C62.4924 40.9947 61.7551 41.7271 61.2436 42.6115C60.7324 43.496 60.4662 44.5009 60.472 45.5222L60.4476 95.4084ZM68.5747 77.8849L87.8227 66.768L107.07 77.8778V100.104L87.8227 111.215L68.5747 100.104V77.8849Z" fill="white"/>
</svg>
