<svg width="28" height="28" viewBox="0 0 28 28" fill="none" xmlns="http://www.w3.org/2000/svg">
<path d="M28 14C28 21.732 21.732 28 14 28C6.26801 28 0 21.732 0 14C0 6.26801 6.26801 0 14 0C21.732 0 28 6.26801 28 14Z" fill="white"/>
<path d="M6.24261 6.47381C6.24261 6.24471 6.42833 6.05899 6.65743 6.05899H21.3426C21.5716 6.05899 21.7574 6.24471 21.7574 6.47381V10.1425C21.7574 10.3716 21.5716 10.5574 21.3426 10.5574H6.65743C6.42833 10.5574 6.24261 10.3716 6.24261 10.1425V6.47381Z" fill="black"/>
<path d="M6.24261 12.1657C6.24261 11.9366 6.42833 11.7509 6.65743 11.7509H21.3426C21.5716 11.7509 21.7574 11.9366 21.7574 12.1657V15.8344C21.7574 16.0635 21.5716 16.2492 21.3426 16.2492H6.65743C6.42833 16.2492 6.24261 16.0635 6.24261 15.8344V12.1657Z" fill="black"/>
<path d="M6.24261 17.8574C6.24261 17.6283 6.42833 17.4426 6.65743 17.4426H21.3426C21.5716 17.4426 21.7574 17.6283 21.7574 17.8574V21.5262C21.7574 21.7553 21.5716 21.941 21.3426 21.941H6.65743C6.42833 21.941 6.24261 21.7553 6.24261 21.5262V17.8574Z" fill="black"/>
<path d="M7.4361 8.26342C7.4361 8.11069 7.55991 7.98688 7.71264 7.98688H8.62841C8.78114 7.98688 8.90495 8.11069 8.90495 8.26342V8.44476C8.90495 8.59749 8.78114 8.7213 8.62841 8.7213H7.71264C7.55991 8.7213 7.4361 8.59749 7.4361 8.44476V8.26342Z" fill="white"/>
<path d="M9.63934 8.26342C9.63934 8.11069 9.76316 7.98688 9.91589 7.98688H10.8317C10.9844 7.98688 11.1082 8.11069 11.1082 8.26342V8.44476C11.1082 8.59749 10.9844 8.7213 10.8317 8.7213H9.91589C9.76316 8.7213 9.63934 8.59749 9.63934 8.44476V8.26342Z" fill="white"/>
<path d="M11.8427 8.26342C11.8427 8.11069 11.9665 7.98688 12.1192 7.98688H13.035C13.1877 7.98688 13.3115 8.11069 13.3115 8.26342V8.44476C13.3115 8.59749 13.1877 8.7213 13.035 8.7213H12.1192C11.9665 8.7213 11.8427 8.59749 11.8427 8.44476V8.26342Z" fill="white"/>
<path d="M7.4361 13.9552C7.4361 13.8025 7.55991 13.6787 7.71264 13.6787H8.62841C8.78114 13.6787 8.90495 13.8025 8.90495 13.9552V14.1366C8.90495 14.2893 8.78114 14.4131 8.62841 14.4131H7.71264C7.55991 14.4131 7.4361 14.2893 7.4361 14.1366V13.9552Z" fill="white"/>
<path d="M9.63934 13.9552C9.63934 13.8025 9.76316 13.6787 9.91589 13.6787H10.8317C10.9844 13.6787 11.1082 13.8025 11.1082 13.9552V14.1366C11.1082 14.2893 10.9844 14.4131 10.8317 14.4131H9.91589C9.76316 14.4131 9.63934 14.2893 9.63934 14.1366V13.9552Z" fill="white"/>
<path d="M11.8427 13.9552C11.8427 13.8025 11.9665 13.6787 12.1192 13.6787H13.035C13.1877 13.6787 13.3115 13.8025 13.3115 13.9552V14.1366C13.3115 14.2893 13.1877 14.4131 13.035 14.4131H12.1192C11.9665 14.4131 11.8427 14.2893 11.8427 14.1366V13.9552Z" fill="white"/>
<path d="M7.4361 19.647C7.4361 19.4943 7.55991 19.3705 7.71264 19.3705H8.62841C8.78114 19.3705 8.90495 19.4943 8.90495 19.647V19.8284C8.90495 19.9811 8.78114 20.1049 8.62841 20.1049H7.71264C7.55991 20.1049 7.4361 19.9811 7.4361 19.8284V19.647Z" fill="white"/>
<path d="M9.63934 19.647C9.63934 19.4943 9.76316 19.3705 9.91589 19.3705H10.8317C10.9844 19.3705 11.1082 19.4943 11.1082 19.647V19.8284C11.1082 19.9811 10.9844 20.1049 10.8317 20.1049H9.91589C9.76316 20.1049 9.63934 19.9811 9.63934 19.8284V19.647Z" fill="white"/>
<path d="M11.8427 19.647C11.8427 19.4943 11.9665 19.3705 12.1192 19.3705H13.035C13.1877 19.3705 13.3115 19.4943 13.3115 19.647V19.8284C13.3115 19.9811 13.1877 20.1049 13.035 20.1049H12.1192C11.9665 20.1049 11.8427 19.9811 11.8427 19.8284V19.647Z" fill="white"/>
<path d="M20.5639 8.35411C20.5639 8.70902 20.2762 8.99673 19.9213 8.99673C19.5664 8.99673 19.2787 8.70902 19.2787 8.35411C19.2787 7.9992 19.5664 7.71149 19.9213 7.71149C20.2762 7.71149 20.5639 7.9992 20.5639 8.35411Z" fill="white"/>
<path d="M25.5213 18.0852C25.5213 20.7724 23.3429 22.9508 20.6557 22.9508C17.9686 22.9508 15.7902 20.7724 15.7902 18.0852C15.7902 15.3981 17.9686 13.2197 20.6557 13.2197C23.3429 13.2197 25.5213 15.3981 25.5213 18.0852Z" fill="black"/>
<path d="M20.6099 15.039C19.5442 15.039 18.6514 15.8319 18.5202 16.8723L18.5172 16.9036V16.9096V16.9155C18.5098 16.9617 18.5068 17.0079 18.5053 17.0556V19.9814C18.5053 20.5598 18.9689 21.0307 19.5457 21.0397H19.565C20.1434 21.0397 20.6143 20.5761 20.6233 19.9993V19.8428C19.7946 19.7668 19.1581 19.0782 19.1447 18.2465V17.622C19.1552 17.0437 19.6321 16.5817 20.2104 16.5906C20.7753 16.5995 21.2314 17.0556 21.2418 17.622V19.1363C22.1033 18.8681 22.7174 18.0677 22.7174 17.1346C22.7159 15.978 21.7725 15.039 20.6099 15.039Z" fill="white"/>
<path d="M20.1985 17.2076H20.191C19.9585 17.2076 19.7677 17.3925 19.7603 17.625V18.2197C19.7603 18.716 20.1195 19.1393 20.6098 19.2183L20.6232 19.2198V17.6384C20.6232 17.4029 20.434 17.2121 20.1985 17.2076Z" fill="white"/>
<path d="M20.6099 12.8524C17.7451 12.8524 15.423 15.1746 15.423 18.0393C15.423 20.904 17.7451 23.2262 20.6099 23.2262C23.4746 23.2262 25.7967 20.904 25.7967 18.0393C25.7967 15.1746 23.4746 12.8524 20.6099 12.8524ZM21.285 19.7653L21.2493 19.7743L21.2403 19.7757V19.9799C21.2403 20.8847 20.5234 21.6254 19.6187 21.6552H19.5919H19.5635C18.6484 21.6552 17.9031 20.9219 17.8882 20.0083V19.9799V17.0705C17.8882 16.9945 17.8927 16.92 17.9031 16.844L17.9046 16.8305L17.9091 16.7963C18.0745 15.4742 19.1879 14.4637 20.5294 14.4234L20.5696 14.4219H20.6113C22.1152 14.4219 23.3345 15.6367 23.3345 17.1361C23.333 18.3926 22.4715 19.4642 21.285 19.7653Z" fill="white"/>
</svg>
