<svg width="274" height="274" viewBox="0 0 274 274" fill="none" xmlns="http://www.w3.org/2000/svg">
<path fill-rule="evenodd" clip-rule="evenodd" d="M22.5258 31.0001C19.474 31.0001 17 33.4741 17 36.5259V85.3974C17 88.4492 19.474 90.9232 22.5258 90.9232H218.147C221.199 90.9232 223.673 88.4492 223.673 85.3974V36.5259C223.673 33.4741 221.199 31.0001 218.147 31.0001H22.5258ZM36.5818 56.6814C34.5473 56.6814 32.8979 58.3308 32.8979 60.3653V62.7809C32.8979 64.8155 34.5473 66.4648 36.5818 66.4648H48.7808C50.8153 66.4648 52.4646 64.8155 52.4646 62.7809V60.3653C52.4646 58.3308 50.8153 56.6814 48.7808 56.6814H36.5818ZM62.248 60.3653C62.248 58.3308 63.8973 56.6814 65.9319 56.6814H78.1309C80.1654 56.6814 81.8147 58.3308 81.8147 60.3653V62.7809C81.8147 64.8155 80.1654 66.4648 78.1308 66.4648H65.9319C63.8973 66.4648 62.248 64.8155 62.248 62.7809V60.3653ZM95.2819 56.6814C93.2474 56.6814 91.598 58.3308 91.598 60.3653V62.7809C91.598 64.8155 93.2473 66.4648 95.2819 66.4648H107.481C109.515 66.4648 111.165 64.8155 111.165 62.7809V60.3653C111.165 58.3308 109.515 56.6814 107.481 56.6814H95.2819ZM207.775 61.5731C207.775 66.3009 203.943 70.1335 199.215 70.1335C194.487 70.1335 190.654 66.3009 190.654 61.5731C190.654 56.8453 194.487 53.0127 199.215 53.0127C203.943 53.0127 207.775 56.8453 207.775 61.5731Z" fill="black"/>
<path fill-rule="evenodd" clip-rule="evenodd" d="M22.5258 106.821C19.474 106.821 17 109.295 17 112.347V161.218C17 164.27 19.474 166.744 22.5258 166.744H148.957C158.61 143.072 181.856 126.388 208.998 126.388C214.045 126.388 218.958 126.965 223.673 128.056V112.347C223.673 109.295 221.199 106.821 218.147 106.821H22.5258ZM36.5818 132.502C34.5473 132.502 32.8979 134.152 32.8979 136.186V138.602C32.8979 140.636 34.5473 142.286 36.5818 142.286H48.7808C50.8153 142.286 52.4646 140.636 52.4646 138.602V136.186C52.4646 134.152 50.8153 132.502 48.7808 132.502H36.5818ZM62.248 136.186C62.248 134.152 63.8973 132.502 65.9319 132.502H78.1309C80.1654 132.502 81.8147 134.152 81.8147 136.186V138.602C81.8147 140.636 80.1654 142.286 78.1308 142.286H65.9319C63.8973 142.286 62.248 140.636 62.248 138.602V136.186ZM95.2819 132.502C93.2474 132.502 91.598 134.152 91.598 136.186V138.602C91.598 140.636 93.2473 142.286 95.2819 142.286H107.481C109.515 142.286 111.165 140.636 111.165 138.602V136.186C111.165 134.152 109.515 132.502 107.481 132.502H95.2819Z" fill="black"/>
<path fill-rule="evenodd" clip-rule="evenodd" d="M144.744 182.642C144.374 185.443 144.184 188.301 144.184 191.202C144.184 212.115 154.087 230.714 169.46 242.565H22.5258C19.474 242.565 17 240.091 17 237.039V188.168C17 185.116 19.474 182.642 22.5258 182.642H144.744ZM36.5818 208.323C34.5473 208.323 32.8979 209.973 32.8979 212.007V214.423C32.8979 216.457 34.5473 218.107 36.5818 218.107H48.7808C50.8153 218.107 52.4646 216.457 52.4646 214.423V212.007C52.4646 209.973 50.8153 208.323 48.7808 208.323H36.5818ZM62.248 212.007C62.248 209.973 63.8973 208.323 65.9319 208.323H78.1309C80.1654 208.323 81.8147 209.973 81.8147 212.007V214.423C81.8147 216.457 80.1654 218.107 78.1308 218.107H65.9319C63.8973 218.107 62.248 216.457 62.248 214.423V212.007ZM95.2819 208.323C93.2474 208.323 91.598 209.973 91.598 212.007V214.423C91.598 216.457 93.2473 218.107 95.2819 218.107H107.481C109.515 218.107 111.165 216.457 111.165 214.423V212.007C111.165 209.973 109.515 208.323 107.481 208.323H95.2819Z" fill="black"/>
<path d="M202.399 168.646V195.946L225.604 209.706L229.808 202.717L210.589 191.305V168.646H202.399ZM257 179.566V141.345L242.585 155.76C233.74 146.86 221.454 141.345 207.859 141.345C180.722 141.345 158.717 163.349 158.717 190.486C158.717 217.623 180.722 239.628 207.859 239.628C234.996 239.628 257 217.623 257 190.486H246.08C246.08 211.562 228.935 228.707 207.859 228.707C186.783 228.707 169.638 211.562 169.638 190.486C169.638 169.41 186.783 152.265 207.859 152.265C218.397 152.265 227.952 156.579 234.886 163.459L218.779 179.566H257Z" fill="black"/>
</svg>
