<svg width="28" height="28" viewBox="0 0 28 28" fill="none" xmlns="http://www.w3.org/2000/svg">
<path d="M28 14C28 21.732 21.732 28 14 28C6.26801 28 0 21.732 0 14C0 6.26801 6.26801 0 14 0C21.732 0 28 6.26801 28 14Z" fill="black"/>
<path d="M6.24268 6.47381C6.24268 6.24471 6.42839 6.05899 6.65749 6.05899H21.3426C21.5717 6.05899 21.7574 6.24471 21.7574 6.47381V10.1425C21.7574 10.3716 21.5717 10.5574 21.3426 10.5574H6.65749C6.42839 10.5574 6.24268 10.3716 6.24268 10.1425V6.47381Z" fill="white"/>
<path d="M6.24268 12.1657C6.24268 11.9366 6.42839 11.7509 6.65749 11.7509H21.3426C21.5717 11.7509 21.7574 11.9366 21.7574 12.1657V15.8344C21.7574 16.0635 21.5717 16.2492 21.3426 16.2492H6.65749C6.42839 16.2492 6.24268 16.0635 6.24268 15.8344V12.1657Z" fill="white"/>
<path d="M6.24268 17.8575C6.24268 17.6284 6.42839 17.4426 6.65749 17.4426H21.3426C21.5717 17.4426 21.7574 17.6284 21.7574 17.8575V21.5262C21.7574 21.7553 21.5717 21.941 21.3426 21.941H6.65749C6.42839 21.941 6.24268 21.7553 6.24268 21.5262V17.8575Z" fill="white"/>
<path d="M7.43604 8.26342C7.43604 8.11069 7.55985 7.98688 7.71258 7.98688H8.62834C8.78108 7.98688 8.90489 8.11069 8.90489 8.26342V8.44476C8.90489 8.59749 8.78107 8.7213 8.62834 8.7213H7.71258C7.55985 8.7213 7.43604 8.59749 7.43604 8.44476V8.26342Z" fill="black"/>
<path d="M9.6394 8.26342C9.6394 8.11069 9.76322 7.98688 9.91595 7.98688H10.8317C10.9844 7.98688 11.1083 8.11069 11.1083 8.26342V8.44476C11.1083 8.59749 10.9844 8.7213 10.8317 8.7213H9.91595C9.76322 8.7213 9.6394 8.59749 9.6394 8.44476V8.26342Z" fill="black"/>
<path d="M11.8425 8.26342C11.8425 8.11069 11.9663 7.98688 12.1191 7.98688H13.0348C13.1876 7.98688 13.3114 8.11069 13.3114 8.26342V8.44476C13.3114 8.59749 13.1876 8.7213 13.0348 8.7213H12.1191C11.9663 8.7213 11.8425 8.59749 11.8425 8.44476V8.26342Z" fill="black"/>
<path d="M7.43604 13.9552C7.43604 13.8025 7.55985 13.6787 7.71258 13.6787H8.62834C8.78108 13.6787 8.90489 13.8025 8.90489 13.9552V14.1366C8.90489 14.2893 8.78107 14.4131 8.62834 14.4131H7.71258C7.55985 14.4131 7.43604 14.2893 7.43604 14.1366V13.9552Z" fill="black"/>
<path d="M9.6394 13.9552C9.6394 13.8025 9.76322 13.6787 9.91595 13.6787H10.8317C10.9844 13.6787 11.1083 13.8025 11.1083 13.9552V14.1366C11.1083 14.2893 10.9844 14.4131 10.8317 14.4131H9.91595C9.76322 14.4131 9.6394 14.2893 9.6394 14.1366V13.9552Z" fill="black"/>
<path d="M11.8425 13.9552C11.8425 13.8025 11.9663 13.6787 12.1191 13.6787H13.0348C13.1876 13.6787 13.3114 13.8025 13.3114 13.9552V14.1366C13.3114 14.2893 13.1876 14.4131 13.0348 14.4131H12.1191C11.9663 14.4131 11.8425 14.2893 11.8425 14.1366V13.9552Z" fill="black"/>
<path d="M7.43604 19.647C7.43604 19.4943 7.55985 19.3705 7.71258 19.3705H8.62834C8.78108 19.3705 8.90489 19.4943 8.90489 19.647V19.8284C8.90489 19.9811 8.78107 20.1049 8.62834 20.1049H7.71258C7.55985 20.1049 7.43604 19.9811 7.43604 19.8284V19.647Z" fill="black"/>
<path d="M9.6394 19.647C9.6394 19.4943 9.76322 19.3705 9.91595 19.3705H10.8317C10.9844 19.3705 11.1083 19.4943 11.1083 19.647V19.8284C11.1083 19.9811 10.9844 20.1049 10.8317 20.1049H9.91595C9.76322 20.1049 9.6394 19.9811 9.6394 19.8284V19.647Z" fill="black"/>
<path d="M11.8425 19.647C11.8425 19.4943 11.9663 19.3705 12.1191 19.3705H13.0348C13.1876 19.3705 13.3114 19.4943 13.3114 19.647V19.8284C13.3114 19.9811 13.1876 20.1049 13.0348 20.1049H12.1191C11.9663 20.1049 11.8425 19.9811 11.8425 19.8284V19.647Z" fill="black"/>
<path d="M20.5641 8.35411C20.5641 8.70902 20.2763 8.99673 19.9214 8.99673C19.5665 8.99673 19.2788 8.70902 19.2788 8.35411C19.2788 7.9992 19.5665 7.71149 19.9214 7.71149C20.2763 7.71149 20.5641 7.9992 20.5641 8.35411Z" fill="black"/>
<path d="M25.5212 18.0852C25.5212 20.7724 23.3428 22.9508 20.6556 22.9508C17.9684 22.9508 15.79 20.7724 15.79 18.0852C15.79 15.3981 17.9684 13.2197 20.6556 13.2197C23.3428 13.2197 25.5212 15.3981 25.5212 18.0852Z" fill="white"/>
<path d="M20.6099 15.039C19.5442 15.039 18.6514 15.8319 18.5203 16.8723L18.5173 16.9036V16.9096V16.9155C18.5098 16.9617 18.5069 17.0079 18.5054 17.0556V19.9814C18.5054 20.5598 18.9689 21.0307 19.5457 21.0397H19.5651C20.1434 21.0397 20.6144 20.5761 20.6233 19.9993V19.8428C19.7946 19.7668 19.1582 19.0782 19.1448 18.2465V17.622C19.1552 17.0437 19.6322 16.5817 20.2105 16.5906C20.7754 16.5995 21.2315 17.0556 21.2419 17.622V19.1363C22.1034 18.8681 22.7175 18.0677 22.7175 17.1346C22.716 15.978 21.7725 15.039 20.6099 15.039Z" fill="black"/>
<path d="M20.1985 17.2077H20.191C19.9585 17.2077 19.7677 17.3925 19.7603 17.625V18.2197C19.7603 18.716 20.1195 19.1393 20.6098 19.2183L20.6232 19.2198V17.6384C20.6232 17.4029 20.434 17.2121 20.1985 17.2077Z" fill="black"/>
<path d="M20.6097 12.8524C17.745 12.8524 15.4229 15.1746 15.4229 18.0393C15.4229 20.904 17.745 23.2262 20.6097 23.2262C23.4744 23.2262 25.7966 20.904 25.7966 18.0393C25.7966 15.1746 23.4744 12.8524 20.6097 12.8524ZM21.2849 19.7653L21.2492 19.7743L21.2402 19.7757V19.9799C21.2402 20.8847 20.5233 21.6254 19.6186 21.6552H19.5917H19.5634C18.6483 21.6552 17.903 20.9219 17.8881 20.0083V19.9799V17.0705C17.8881 16.9945 17.8926 16.92 17.903 16.844L17.9045 16.8305L17.909 16.7963C18.0744 15.4742 19.1878 14.4637 20.5293 14.4234L20.5695 14.4219H20.6112C22.1151 14.4219 23.3343 15.6367 23.3343 17.1361C23.3329 18.3926 22.4714 19.4642 21.2849 19.7653Z" fill="black"/>
</svg>
