<svg width="274" height="274" viewBox="0 0 274 274" fill="none" xmlns="http://www.w3.org/2000/svg">
<path fill-rule="evenodd" clip-rule="evenodd" d="M22.6242 29C19.518 29 17 31.518 17 34.6242V84.3659C17 87.4721 19.518 89.9901 22.6242 89.9901H221.729C224.836 89.9901 227.354 87.4721 227.354 84.3659V34.6242C227.354 31.518 224.836 29 221.729 29H22.6242ZM36.9305 55.1386C34.8597 55.1386 33.181 56.8173 33.181 58.8881V61.3467C33.181 63.4175 34.8597 65.0962 36.9305 65.0962H49.3467C51.4175 65.0962 53.0962 63.4175 53.0962 61.3467V58.8881C53.0962 56.8173 51.4175 55.1386 49.3467 55.1386H36.9305ZM63.0538 58.8881C63.0538 56.8173 64.7325 55.1386 66.8032 55.1386H79.2195C81.2902 55.1386 82.9689 56.8173 82.9689 58.8881V61.3467C82.9689 63.4175 81.2902 65.0962 79.2195 65.0962H66.8032C64.7325 65.0962 63.0538 63.4175 63.0538 61.3467V58.8881ZM96.6759 55.1386C94.6052 55.1386 92.9265 56.8173 92.9265 58.8881V61.3467C92.9265 63.4175 94.6052 65.0962 96.6759 65.0962H109.092C111.163 65.0962 112.842 63.4175 112.842 61.3467V58.8881C112.842 56.8173 111.163 55.1386 109.092 55.1386H96.6759ZM211.173 60.1174C211.173 64.9294 207.272 68.8303 202.46 68.8303C197.648 68.8303 193.747 64.9294 193.747 60.1174C193.747 55.3054 197.648 51.4045 202.46 51.4045C207.272 51.4045 211.173 55.3054 211.173 60.1174Z" fill="black"/>
<path fill-rule="evenodd" clip-rule="evenodd" d="M22.6242 106.171C19.518 106.171 17 108.689 17 111.795V161.537C17 164.643 19.518 167.161 22.6242 167.161H151.307C161.132 143.068 184.791 126.086 212.417 126.086C217.554 126.086 222.554 126.674 227.354 127.784V111.795C227.354 108.689 224.836 106.171 221.729 106.171H22.6242ZM36.9305 132.31C34.8597 132.31 33.181 133.989 33.181 136.059V138.518C33.181 140.589 34.8597 142.267 36.9305 142.267H49.3467C51.4175 142.267 53.0962 140.589 53.0962 138.518V136.059C53.0962 133.989 51.4175 132.31 49.3467 132.31H36.9305ZM63.0538 136.059C63.0538 133.989 64.7325 132.31 66.8032 132.31H79.2195C81.2902 132.31 82.9689 133.989 82.9689 136.059V138.518C82.9689 140.589 81.2902 142.267 79.2195 142.267H66.8032C64.7325 142.267 63.0538 140.589 63.0538 138.518V136.059ZM96.6759 132.31C94.6052 132.31 92.9265 133.989 92.9265 136.059V138.518C92.9265 140.589 94.6052 142.267 96.6759 142.267H109.092C111.163 142.267 112.842 140.589 112.842 138.518V136.059C112.842 133.989 111.163 132.31 109.092 132.31H96.6759Z" fill="black"/>
<path fill-rule="evenodd" clip-rule="evenodd" d="M147.019 183.342C146.643 186.193 146.448 189.102 146.448 192.055C146.448 213.34 156.529 232.27 172.175 244.332H22.6242C19.518 244.332 17 241.814 17 238.708V188.966C17 185.86 19.518 183.342 22.6242 183.342H147.019ZM36.9305 209.481C34.8597 209.481 33.181 211.16 33.181 213.23V215.689C33.181 217.76 34.8597 219.438 36.9305 219.438H49.3467C51.4175 219.438 53.0962 217.76 53.0962 215.689V213.23C53.0962 211.16 51.4175 209.481 49.3467 209.481H36.9305ZM63.0538 213.23C63.0538 211.16 64.7325 209.481 66.8032 209.481H79.2195C81.2902 209.481 82.9689 211.16 82.9689 213.23V215.689C82.9689 217.76 81.2902 219.439 79.2195 219.439H66.8032C64.7325 219.439 63.0538 217.76 63.0538 215.689V213.23ZM96.6759 209.481C94.6052 209.481 92.9265 211.16 92.9265 213.23V215.689C92.9265 217.76 94.6052 219.439 96.6759 219.439H109.092C111.163 219.439 112.842 217.76 112.842 215.689V213.23C112.842 211.16 111.163 209.481 109.092 209.481H96.6759Z" fill="black"/>
<path d="M174.817 193.428C174.817 183.742 178.75 174.937 185.149 168.538L176.813 160.203C168.36 168.714 163.077 180.455 163.077 193.428C163.077 217.378 180.981 237.102 204.168 239.979V228.121C187.555 225.303 174.817 210.863 174.817 193.428ZM257 193.428C257 167.482 235.985 146.466 210.038 146.466C209.686 146.466 209.334 146.525 208.982 146.525L215.38 140.127L207.103 131.791L186.558 152.337L207.103 172.882L215.38 164.605L209.04 158.265C209.393 158.265 209.745 158.207 210.038 158.207C229.469 158.207 245.26 173.998 245.26 193.428C245.26 210.863 232.521 225.303 215.909 228.121V239.979C239.096 237.102 257 217.378 257 193.428Z" fill="black"/>
</svg>
