<svg width="356" height="473" viewBox="0 0 356 473" fill="none" xmlns="http://www.w3.org/2000/svg">
<path d="M221.112 348.353C217.719 366.557 216.793 384.144 211.239 400.188C193.961 450.48 143.977 478.557 89.9824 470.227C40.9244 462.513 1.73964 417.466 0.814012 366.248C-0.111612 300.221 -0.420153 234.193 0.814012 168.165C2.35672 84.5503 71.47 10.809 155.085 1.24417C250.424 -9.55477 333.113 50.9193 351.934 144.716C369.212 231.724 313.675 322.127 228.517 346.193C225.123 347.119 222.038 348.353 221.112 348.353ZM218.644 307.317C221.421 306.7 222.964 306.391 224.198 305.774C284.98 284.485 322.314 222.16 313.366 157.058C303.802 87.0186 242.402 36.7264 170.203 39.5033C102.324 42.2802 42.7756 99.3603 40.9244 167.856C39.0731 234.193 39.6902 300.529 40.6158 366.866C41.2329 405.742 77.6408 435.979 116.517 431.659C155.393 427.648 183.779 391.549 177.608 353.598C176.683 353.29 176.065 352.673 175.14 352.673C173.597 352.364 172.054 352.056 170.82 351.747C127.316 343.108 98.6216 317.499 86.2799 274.92C78.8749 249.003 80.1091 221.851 84.1202 195.625C88.7483 164.771 117.134 141.939 148.914 141.322C186.864 140.705 218.027 170.633 218.644 208.892C218.953 241.289 218.644 273.686 218.644 307.317ZM178.534 312.254C178.534 276.463 179.151 240.981 178.225 205.19C177.917 190.688 163.415 180.198 148.914 181.124C134.412 182.049 122.996 193.465 122.379 208.275C122.071 222.777 121.762 237.278 122.379 251.78C123.922 282.634 149.839 310.711 178.534 312.254Z" fill="white"/>
</svg>
