<svg width="260" height="260" viewBox="0 0 260 260" fill="none" xmlns="http://www.w3.org/2000/svg">
    <g clip-path="url(#clip0_1920_130)">
        <path fill-rule="evenodd" clip-rule="evenodd"
            d="M206.7 115.7C165.1 90.9999 95.55 88.4 55.9 100.75C49.4 102.7 42.9 98.8 40.95 92.95C39 86.45 42.9 79.95 48.75 78C94.9 64.35 170.95 66.9501 219.05 95.5501C224.9 98.8001 226.85 106.6 223.6 112.45C220.35 117 212.55 118.95 206.7 115.7ZM205.4 152.1C202.15 156.65 196.3 158.6 191.75 155.35C156.65 133.9 103.35 127.4 62.4 140.4C57.2 141.7 51.35 139.1 50.05 133.9C48.75 128.7 51.35 122.85 56.55 121.55C104 107.25 162.5 114.4 202.8 139.1C206.7 141.05 208.65 147.55 205.4 152.1ZM189.8 187.85C187.2 191.75 182.65 193.05 178.75 190.45C148.2 171.6 109.85 167.7 64.35 178.1C59.8 179.4 55.9 176.15 54.6 172.25C53.3 167.7 56.55 163.8 60.45 162.5C109.85 151.45 152.75 156 186.55 176.8C191.1 178.75 191.75 183.95 189.8 187.85ZM130 0C58.5 0 0 58.5 0 130C0 201.5 58.5 260 130 260C201.5 260 260 201.5 260 130C260 58.5 202.15 0 130 0Z"
            fill="#00DA5A" />
    </g>
    <defs>
        <clipPath id="clip0_1920_130">
            <rect width="260" height="260" fill="white" />
        </clipPath>
    </defs>
</svg>