<svg width="274" height="274" viewBox="0 0 274 274" fill="none" xmlns="http://www.w3.org/2000/svg">
<g id="time_ago_12">
<g id="Vector">
<path d="M35 117V57H55V80.5C63.5 69.8333 73.875 61.5833 86.125 55.75C98.375 49.9167 111.333 47 125 47C150 47 171.25 55.75 188.75 73.25C206.25 90.75 215 112 215 137H195C195 117.5 188.208 100.958 174.625 87.375C161.042 73.7917 144.5 67 125 67C113.5 67 102.75 69.6667 92.75 75C82.75 80.3333 74.3333 87.6667 67.5 97H95V117H35ZM35.5 147H56C58 162.5 64.375 175.625 75.125 186.375C85.875 197.125 98.75 203.667 113.75 206L125.75 227C102.75 227 82.5833 219.375 65.25 204.125C47.9167 188.875 38 169.833 35.5 147ZM138.5 164.5L115 141V87H135V133L149 147L138.5 164.5Z" fill="black" style="fill:black;fill-opacity:1;"/>
<path d="M175.738 163.016V227H160.929V179.715L146.339 183.978V172.728L174.376 163.016H175.738Z" fill="black" style="fill:black;fill-opacity:1;"/>
<path d="M238.011 215.574V227H193.362V217.332L213.929 195.711C215.745 193.631 217.21 191.771 218.323 190.13C219.436 188.46 220.242 186.951 220.74 185.604C221.267 184.256 221.531 183.04 221.531 181.956C221.531 180.11 221.253 178.572 220.696 177.342C220.169 176.082 219.378 175.13 218.323 174.485C217.298 173.841 216.023 173.519 214.5 173.519C212.976 173.519 211.643 173.958 210.501 174.837C209.358 175.716 208.465 176.917 207.82 178.44C207.205 179.964 206.897 181.678 206.897 183.582H192.044C192.044 179.656 192.996 176.067 194.9 172.815C196.834 169.563 199.514 166.971 202.942 165.037C206.37 163.074 210.34 162.093 214.851 162.093C219.568 162.093 223.523 162.825 226.717 164.29C229.91 165.755 232.312 167.879 233.924 170.662C235.564 173.416 236.385 176.741 236.385 180.638C236.385 182.864 236.033 185.003 235.33 187.054C234.627 189.104 233.616 191.141 232.298 193.162C230.979 195.154 229.368 197.205 227.464 199.314C225.589 201.424 223.45 203.665 221.048 206.038L212.786 215.574H238.011Z" fill="black" style="fill:black;fill-opacity:1;"/>
</g>
</g>
</svg>
