<svg width="274" height="274" viewBox="0 0 274 274" fill="none" xmlns="http://www.w3.org/2000/svg">
<g id="time_ago_3">
<g id="Vector">
<path d="M47 112V52H67V75.5C75.5 64.8333 85.875 56.5833 98.125 50.75C110.375 44.9167 123.333 42 137 42C162 42 183.25 50.75 200.75 68.25C218.25 85.75 227 107 227 132H207C207 112.5 200.208 95.9583 186.625 82.375C173.042 68.7917 156.5 62 137 62C125.5 62 114.75 64.6667 104.75 70C94.75 75.3333 86.3333 82.6667 79.5 92H107V112H47ZM47.5 142H68C70 157.5 76.375 170.625 87.125 181.375C97.875 192.125 110.75 198.667 125.75 201L137.75 222C114.75 222 94.5833 214.375 77.25 199.125C59.9167 183.875 50 164.833 47.5 142ZM150.5 159.5L127 136V82H147V128L161 142L150.5 159.5Z" fill="black" style="fill:black;fill-opacity:1;"/>
<path d="M181.43 181.232H190.436C193.003 181.232 195.118 180.779 196.779 179.873C198.479 178.967 199.725 177.683 200.518 176.021C201.348 174.36 201.764 172.415 201.764 170.188C201.764 168.262 201.386 166.544 200.631 165.033C199.876 163.523 198.724 162.333 197.176 161.465C195.665 160.559 193.702 160.105 191.285 160.105C189.548 160.105 187.887 160.464 186.301 161.182C184.753 161.861 183.488 162.862 182.506 164.184C181.524 165.467 181.033 167.016 181.033 168.828H163.305C163.305 164.221 164.551 160.238 167.043 156.877C169.573 153.516 172.915 150.93 177.068 149.117C181.26 147.267 185.829 146.342 190.775 146.342C196.477 146.342 201.48 147.248 205.785 149.061C210.128 150.835 213.488 153.479 215.867 156.99C218.284 160.464 219.492 164.769 219.492 169.904C219.492 172.585 218.85 175.172 217.566 177.664C216.32 180.118 214.527 182.309 212.186 184.234C209.882 186.122 207.126 187.633 203.916 188.766C200.744 189.861 197.214 190.408 193.324 190.408H181.43V181.232ZM181.43 194.543V185.537H193.324C197.629 185.537 201.48 186.028 204.879 187.01C208.277 187.992 211.166 189.408 213.545 191.258C215.924 193.108 217.736 195.355 218.982 197.998C220.229 200.641 220.852 203.587 220.852 206.834C220.852 210.686 220.096 214.122 218.586 217.143C217.076 220.163 214.961 222.712 212.242 224.789C209.523 226.866 206.333 228.452 202.67 229.547C199.007 230.604 195.042 231.133 190.775 231.133C187.339 231.133 183.922 230.661 180.523 229.717C177.125 228.773 174.048 227.338 171.291 225.412C168.535 223.449 166.326 220.975 164.664 217.992C163.003 214.971 162.172 211.384 162.172 207.23H179.9C179.9 209.156 180.391 210.893 181.373 212.441C182.393 213.952 183.771 215.16 185.508 216.066C187.283 216.935 189.208 217.369 191.285 217.369C193.777 217.369 195.892 216.916 197.629 216.01C199.404 215.066 200.744 213.782 201.65 212.158C202.594 210.535 203.066 208.665 203.066 206.551C203.066 203.681 202.557 201.378 201.537 199.641C200.555 197.866 199.12 196.582 197.232 195.789C195.344 194.958 193.079 194.543 190.436 194.543H181.43Z" fill="black" style="fill:black;fill-opacity:1;"/>
</g>
</g>
</svg>
