<svg width="274" height="274" viewBox="0 0 274 274" fill="none" xmlns="http://www.w3.org/2000/svg">
<g id="time_ago_all_time">
<g id="Vector">
<path d="M31 117V57H51V80.5C59.5 69.8333 69.875 61.5833 82.125 55.75C94.375 49.9167 107.333 47 121 47C146 47 167.25 55.75 184.75 73.25C202.25 90.75 211 112 211 137H191C191 117.5 184.208 100.958 170.625 87.375C157.042 73.7917 140.5 67 121 67C109.5 67 98.75 69.6667 88.75 75C78.75 80.3333 70.3333 87.6667 63.5 97H91V117H31ZM31.5 147H52C54 162.5 60.375 175.625 71.125 186.375C81.875 197.125 94.75 203.667 109.75 206L121.75 227C98.75 227 78.5833 219.375 61.25 204.125C43.9167 188.875 34 169.833 31.5 147ZM134.5 164.5L111 141V87H131V133L145 147L134.5 164.5Z" fill="black" style="fill:black;fill-opacity:1;"/>
<path d="M137.957 191.945V191.049C137.957 186.9 138.59 183.051 139.855 179.5C141.156 175.949 143.002 172.855 145.393 170.219C147.818 167.582 150.736 165.543 154.146 164.102C157.557 162.625 161.406 161.887 165.695 161.887C169.352 161.887 172.639 162.484 175.557 163.68C178.51 164.875 181.094 166.475 183.309 168.479C185.559 170.482 187.492 172.732 189.109 175.229C190.762 177.689 192.115 180.238 193.17 182.875C194.26 185.477 195.104 187.973 195.701 190.363V191.576C195.104 193.967 194.26 196.516 193.17 199.223C192.115 201.895 190.779 204.531 189.162 207.133C187.545 209.699 185.611 212.037 183.361 214.146C181.111 216.256 178.527 217.943 175.609 219.209C172.727 220.439 169.457 221.055 165.801 221.055C161.477 221.055 157.592 220.334 154.146 218.893C150.736 217.416 147.818 215.359 145.393 212.723C143.002 210.086 141.156 207.01 139.855 203.494C138.59 199.943 137.957 196.094 137.957 191.945ZM155.148 191.049V191.945C155.148 194.09 155.395 196.076 155.887 197.904C156.414 199.697 157.17 201.262 158.154 202.598C159.174 203.934 160.422 204.971 161.898 205.709C163.375 206.447 165.08 206.816 167.014 206.816C168.947 206.816 170.67 206.377 172.182 205.498C173.729 204.584 175.064 203.459 176.189 202.123C177.35 200.752 178.299 199.346 179.037 197.904C179.811 196.463 180.391 195.162 180.777 194.002C181.164 192.842 181.375 192.033 181.41 191.576V190.363C181.375 189.941 181.164 189.186 180.777 188.096C180.391 187.006 179.828 185.793 179.09 184.457C178.352 183.086 177.402 181.768 176.242 180.502C175.117 179.236 173.781 178.199 172.234 177.391C170.688 176.547 168.912 176.125 166.908 176.125C165.01 176.125 163.322 176.512 161.846 177.285C160.404 178.059 159.174 179.131 158.154 180.502C157.17 181.838 156.414 183.42 155.887 185.248C155.395 187.041 155.148 188.975 155.148 191.049ZM242.529 191.049V191.945C242.529 196.094 241.896 199.943 240.631 203.494C239.365 207.01 237.52 210.086 235.094 212.723C232.668 215.359 229.732 217.416 226.287 218.893C222.842 220.334 218.957 221.055 214.633 221.055C210.977 221.055 207.689 220.439 204.771 219.209C201.889 217.943 199.322 216.256 197.072 214.146C194.822 212.037 192.889 209.699 191.271 207.133C189.654 204.531 188.301 201.895 187.211 199.223C186.121 196.516 185.277 193.967 184.68 191.576V190.363C185.277 187.973 186.121 185.477 187.211 182.875C188.301 180.238 189.654 177.689 191.271 175.229C192.924 172.732 194.857 170.482 197.072 168.479C199.322 166.475 201.906 164.875 204.824 163.68C207.777 162.484 211.082 161.887 214.738 161.887C219.062 161.887 222.93 162.625 226.34 164.102C229.785 165.543 232.703 167.582 235.094 170.219C237.52 172.855 239.365 175.949 240.631 179.5C241.896 183.051 242.529 186.9 242.529 191.049ZM225.285 191.945V191.049C225.285 188.975 225.021 187.041 224.494 185.248C224.002 183.42 223.264 181.838 222.279 180.502C221.295 179.131 220.064 178.059 218.588 177.285C217.111 176.512 215.424 176.125 213.525 176.125C211.521 176.125 209.746 176.547 208.199 177.391C206.652 178.199 205.299 179.236 204.139 180.502C203.014 181.768 202.082 183.086 201.344 184.457C200.605 185.793 200.043 187.006 199.656 188.096C199.27 189.186 199.059 189.941 199.023 190.363V191.576C199.059 192.033 199.27 192.842 199.656 194.002C200.043 195.162 200.605 196.463 201.344 197.904C202.117 199.346 203.066 200.752 204.191 202.123C205.352 203.459 206.688 204.584 208.199 205.498C209.746 206.377 211.486 206.816 213.42 206.816C215.318 206.816 217.006 206.447 218.482 205.709C219.959 204.971 221.207 203.934 222.227 202.598C223.246 201.262 224.002 199.697 224.494 197.904C225.021 196.076 225.285 194.09 225.285 191.945Z" fill="black" style="fill:black;fill-opacity:1;"/>
</g>
</g>
</svg>
