<svg width="274" height="274" viewBox="0 0 274 274" fill="none" xmlns="http://www.w3.org/2000/svg">
<g id="time_ago_9">
<g id="Vector">
<path d="M47 113V53H67V76.5C75.5 65.8333 85.875 57.5833 98.125 51.75C110.375 45.9167 123.333 43 137 43C162 43 183.25 51.75 200.75 69.25C218.25 86.75 227 108 227 133H207C207 113.5 200.208 96.9583 186.625 83.375C173.042 69.7917 156.5 63 137 63C125.5 63 114.75 65.6667 104.75 71C94.75 76.3333 86.3333 83.6667 79.5 93H107V113H47ZM47.5 143H68C70 158.5 76.375 171.625 87.125 182.375C97.875 193.125 110.75 199.667 125.75 202L137.75 223C114.75 223 94.5833 215.375 77.25 200.125C59.9167 184.875 50 165.833 47.5 143ZM150.5 160.5L127 137V83H147V129L161 143L150.5 160.5Z" fill="black" style="fill:black;fill-opacity:1;"/>
<path d="M176.162 217.689H177.295C181.449 217.689 185.092 217.217 188.227 216.273C191.361 215.292 193.985 213.838 196.1 211.912C198.252 209.949 199.876 207.513 200.971 204.605C202.066 201.66 202.613 198.186 202.613 194.184V177.871C202.613 175.039 202.349 172.585 201.82 170.508C201.329 168.393 200.593 166.637 199.611 165.24C198.63 163.843 197.478 162.805 196.156 162.125C194.835 161.445 193.381 161.105 191.795 161.105C190.133 161.105 188.661 161.54 187.377 162.408C186.131 163.277 185.055 164.447 184.148 165.92C183.242 167.393 182.562 169.054 182.109 170.904C181.656 172.755 181.43 174.643 181.43 176.568C181.43 178.645 181.656 180.59 182.109 182.402C182.6 184.215 183.299 185.801 184.205 187.16C185.111 188.52 186.263 189.596 187.66 190.389C189.057 191.144 190.681 191.521 192.531 191.521C194.382 191.521 195.986 191.182 197.346 190.502C198.743 189.822 199.913 188.916 200.857 187.783C201.839 186.65 202.576 185.423 203.066 184.102C203.557 182.742 203.803 181.402 203.803 180.08L209.24 183.705C209.24 186.235 208.674 188.727 207.541 191.182C206.446 193.636 204.917 195.864 202.953 197.865C200.99 199.867 198.705 201.471 196.1 202.68C193.532 203.85 190.794 204.436 187.887 204.436C184.111 204.436 180.712 203.756 177.691 202.396C174.708 201.037 172.178 199.13 170.102 196.676C168.025 194.184 166.439 191.238 165.344 187.84C164.249 184.441 163.701 180.703 163.701 176.625C163.701 172.622 164.381 168.865 165.74 165.354C167.1 161.804 169.025 158.689 171.518 156.008C174.01 153.327 176.974 151.212 180.41 149.664C183.884 148.116 187.717 147.342 191.908 147.342C196.024 147.342 199.8 148.135 203.236 149.721C206.673 151.269 209.674 153.497 212.242 156.404C214.81 159.312 216.792 162.842 218.189 166.996C219.624 171.15 220.342 175.832 220.342 181.043V187.16C220.342 192.749 219.7 197.884 218.416 202.566C217.132 207.249 215.244 211.402 212.752 215.027C210.298 218.652 207.314 221.73 203.803 224.26C200.329 226.79 196.383 228.715 191.965 230.037C187.585 231.321 182.789 231.963 177.578 231.963H176.162V217.689Z" fill="black" style="fill:black;fill-opacity:1;"/>
</g>
</g>
</svg>
