<svg width="274" height="274" viewBox="0 0 274 274" fill="none" xmlns="http://www.w3.org/2000/svg">
<g id="time_ago_6">
<g id="Vector">
<path d="M47 112V52H67V75.5C75.5 64.8333 85.875 56.5833 98.125 50.75C110.375 44.9167 123.333 42 137 42C162 42 183.25 50.75 200.75 68.25C218.25 85.75 227 107 227 132H207C207 112.5 200.208 95.9583 186.625 82.375C173.042 68.7917 156.5 62 137 62C125.5 62 114.75 64.6667 104.75 70C94.75 75.3333 86.3333 82.6667 79.5 92H107V112H47ZM47.5 142H68C70 157.5 76.375 170.625 87.125 181.375C97.875 192.125 110.75 198.667 125.75 201L137.75 222C114.75 222 94.5833 214.375 77.25 199.125C59.9167 183.875 50 164.833 47.5 142ZM150.5 159.5L127 136V82H147V128L161 142L150.5 159.5Z" fill="black" style="fill:black;fill-opacity:1;"/>
<path d="M206.918 146.512H209.637V160.559H208.617C204.652 160.559 201.027 161.125 197.742 162.258C194.495 163.391 191.682 165.071 189.303 167.299C186.924 169.489 185.092 172.208 183.809 175.455C182.562 178.665 181.939 182.365 181.939 186.557V200.604C181.939 203.436 182.185 205.909 182.676 208.023C183.204 210.1 183.96 211.837 184.941 213.234C185.961 214.594 187.188 215.632 188.623 216.35C190.058 217.029 191.682 217.369 193.494 217.369C195.118 217.369 196.609 217.01 197.969 216.293C199.328 215.576 200.499 214.556 201.48 213.234C202.462 211.913 203.217 210.383 203.746 208.646C204.275 206.872 204.539 204.946 204.539 202.869C204.539 200.679 204.256 198.697 203.689 196.922C203.161 195.109 202.387 193.561 201.367 192.277C200.385 190.993 199.177 190.012 197.742 189.332C196.307 188.615 194.721 188.256 192.984 188.256C190.492 188.256 188.34 188.822 186.527 189.955C184.715 191.088 183.318 192.542 182.336 194.316C181.354 196.091 180.844 197.904 180.807 199.754L176.105 195.846C176.105 193.278 176.615 190.748 177.635 188.256C178.692 185.726 180.184 183.441 182.109 181.402C184.035 179.326 186.395 177.683 189.189 176.475C192.021 175.229 195.25 174.605 198.875 174.605C202.689 174.605 206.049 175.342 208.957 176.814C211.865 178.249 214.3 180.251 216.264 182.818C218.265 185.386 219.757 188.388 220.738 191.824C221.758 195.223 222.268 198.867 222.268 202.756C222.268 206.758 221.569 210.497 220.172 213.971C218.812 217.407 216.887 220.409 214.395 222.977C211.902 225.544 208.919 227.546 205.445 228.98C202.009 230.415 198.176 231.133 193.947 231.133C189.567 231.133 185.564 230.359 181.939 228.811C178.352 227.262 175.218 225.053 172.537 222.184C169.894 219.276 167.836 215.802 166.363 211.762C164.928 207.721 164.211 203.19 164.211 198.168V191.541C164.211 184.669 165.268 178.476 167.383 172.963C169.535 167.45 172.518 162.73 176.332 158.803C180.184 154.838 184.715 151.798 189.926 149.684C195.137 147.569 200.801 146.512 206.918 146.512Z" fill="black" style="fill:black;fill-opacity:1;"/>
</g>
</g>
</svg>
