<svg width="274" height="274" viewBox="0 0 274 274" fill="none" xmlns="http://www.w3.org/2000/svg">
<g id="time_ago_1">
<g id="Vector">
<path d="M47 113V53H67V76.5C75.5 65.8333 85.875 57.5833 98.125 51.75C110.375 45.9167 123.333 43 137 43C162 43 183.25 51.75 200.75 69.25C218.25 86.75 227 108 227 133H207C207 113.5 200.208 96.9583 186.625 83.375C173.042 69.7917 156.5 63 137 63C125.5 63 114.75 65.6667 104.75 71C94.75 76.3333 86.3333 83.6667 79.5 93H107V113H47ZM47.5 143H68C70 158.5 76.375 171.625 87.125 182.375C97.875 193.125 110.75 199.667 125.75 202L137.75 223C114.75 223 94.5833 215.375 77.25 200.125C59.9167 184.875 50 165.833 47.5 143ZM150.5 160.5L127 137V83H147V129L161 143L150.5 160.5Z" fill="black" style="fill:black;fill-opacity:1;"/>
<path d="M205.389 148.475V231H187.66V168.639L168.516 174.473V160.766L203.633 148.475H205.389Z" fill="black" style="fill:black;fill-opacity:1;"/>
</g>
</g>
</svg>
