<svg width="274" height="274" viewBox="0 0 274 274" fill="none" xmlns="http://www.w3.org/2000/svg">
<g id="time_ago_24">
<g id="Vector">
<path d="M34 117V57H54V80.5C62.5 69.8333 72.875 61.5833 85.125 55.75C97.375 49.9167 110.333 47 124 47C149 47 170.25 55.75 187.75 73.25C205.25 90.75 214 112 214 137H194C194 117.5 187.208 100.958 173.625 87.375C160.042 73.7917 143.5 67 124 67C112.5 67 101.75 69.6667 91.75 75C81.75 80.3333 73.3333 87.6667 66.5 97H94V117H34ZM34.5 147H55C57 162.5 63.375 175.625 74.125 186.375C84.875 197.125 97.75 203.667 112.75 206L124.75 227C101.75 227 81.5833 219.375 64.25 204.125C46.9167 188.875 37 169.833 34.5 147ZM137.5 164.5L114 141V87H134V133L148 147L137.5 164.5Z" fill="black" style="fill:black;fill-opacity:1;"/>
<path d="M189.604 215.574V227H144.955V217.332L165.521 195.711C167.338 193.631 168.803 191.771 169.916 190.13C171.029 188.46 171.835 186.951 172.333 185.604C172.86 184.256 173.124 183.04 173.124 181.956C173.124 180.11 172.846 178.572 172.289 177.342C171.762 176.082 170.971 175.13 169.916 174.485C168.891 173.841 167.616 173.519 166.093 173.519C164.569 173.519 163.236 173.958 162.094 174.837C160.951 175.716 160.058 176.917 159.413 178.44C158.798 179.964 158.49 181.678 158.49 183.582H143.637C143.637 179.656 144.589 176.067 146.493 172.815C148.427 169.563 151.107 166.971 154.535 165.037C157.963 163.074 161.933 162.093 166.444 162.093C171.161 162.093 175.116 162.825 178.31 164.29C181.503 165.755 183.905 167.879 185.517 170.662C187.157 173.416 187.978 176.741 187.978 180.638C187.978 182.864 187.626 185.003 186.923 187.054C186.22 189.104 185.209 191.141 183.891 193.162C182.572 195.154 180.961 197.205 179.057 199.314C177.182 201.424 175.043 203.665 172.641 206.038L164.379 215.574H189.604Z" fill="black" style="fill:black;fill-opacity:1;"/>
<path d="M240.933 201.995V213.421H194.879L194 204.368L219.708 163.016H231.397L218.697 183.802L208.15 201.995H240.933ZM234.473 163.016V227H219.664V163.016H234.473Z" fill="black" style="fill:black;fill-opacity:1;"/>
</g>
</g>
</svg>
