<svg width="150" height="204" viewBox="0 0 150 204" fill="none" xmlns="http://www.w3.org/2000/svg">
<path d="M26.5258 0C22.1688 0.766532 18.6502 2.26511 15.1268 4.41826C11.6848 6.56801 8.6294 9.44614 6.25883 12.8223C1.45985 19.6225 -0.12808 28.0745 0.00796249 35.6925C0.0215869 43.235 0.846351 50.843 2.77135 58.2431C3.69305 61.953 4.94537 65.5886 6.42491 69.1556C7.98607 72.7871 9.53958 76.0489 12.1177 79.7487L20.1686 73.474C18.5325 71.321 16.7396 68.1437 15.3791 65.1896C13.9812 62.1508 12.7441 58.988 11.8053 55.7275C9.83948 49.2307 8.82934 42.4142 8.55725 35.5459C8.17633 28.8344 9.25903 22.3673 12.6224 17.1275C14.2924 14.5349 16.4808 12.2718 19.0791 10.4934C20.1541 9.74393 21.3686 9.07995 22.6065 8.49056C20.6169 20.4146 20.3734 32.8345 22.1148 45.1808C23.091 52.3116 24.726 59.4003 26.9772 66.3743C28.012 69.571 29.2063 72.7354 30.5313 75.8829C18.0798 83.0068 11.759 97.462 11.759 97.462L13.8712 101.461C20.0816 96.906 33.7197 102.166 33.7197 102.166L34.7161 108.907C31.0565 118.685 19.4112 119.68 19.4112 119.68C19.4112 119.68 25.9014 130.677 25.9014 142.843C25.9014 163.839 20.4145 204 20.4145 204H74.6454H128.877C128.877 204 123.39 163.839 123.39 142.843C123.39 130.677 129.88 119.68 129.88 119.68C129.88 119.68 118.234 118.685 114.575 108.907L115.571 102.166C115.571 102.166 129.206 96.906 135.413 101.461L137.525 97.462C137.525 97.462 131.206 83.0132 118.76 75.8894C120.083 72.7443 121.276 69.5751 122.314 66.3808C124.568 59.4071 126.2 52.3184 127.176 45.1877C128.914 32.8445 128.671 20.4247 126.685 8.49722C127.923 9.08662 129.137 9.75055 130.212 10.5001C132.81 12.2785 134.995 14.5415 136.668 17.1342C140.029 22.3739 141.108 28.8444 140.727 35.5528C140.452 42.421 139.441 49.2376 137.479 55.7344C136.54 58.9949 135.313 62.1573 133.912 65.1965C132.551 68.1502 130.755 71.3242 129.116 73.4808L137.173 79.7555C139.755 76.0557 141.305 72.794 142.866 69.1624C144.346 65.595 145.601 61.9562 146.519 58.2495C148.448 50.8499 149.269 43.2419 149.283 35.6989C149.419 28.0778 147.834 19.6291 143.032 12.829C140.662 9.4528 137.61 6.56801 134.164 4.41826C130.641 2.26511 127.126 0.766532 122.765 0L118.879 3.74621C118.893 16.8763 116.64 29.7285 112.296 41.5876C110.15 47.5228 107.477 53.2035 104.385 58.5491C104.283 58.7252 104.169 58.8927 104.066 59.068C99.2218 57.7807 86.0835 54.5763 74.6389 54.5763C63.194 54.5763 50.0626 57.7807 45.2182 59.068C45.1159 58.8935 45.0078 58.7244 44.9063 58.5491C41.8146 53.2035 39.134 47.5228 36.988 41.5876C32.6447 29.7285 30.3914 16.8763 30.4051 3.74621L26.5258 0ZM74.6454 86.8354C79.3865 86.8354 83.0486 89.6037 83.0486 89.6037C83.0486 89.6037 89.7044 108.266 94.527 120.265L91.611 122.767C91.611 122.767 87.4532 119.764 81.0489 120.432C81.0489 120.432 78.8871 125.098 78.3054 129.847C78.3054 129.847 80.3806 133.012 90.1962 129.847C90.1962 129.847 96.1877 147.009 101.01 155.925C101.01 155.925 93.8591 161.341 88.2033 161.341C80.5507 161.341 74.6454 153.676 74.6454 153.676C74.6454 153.676 68.7401 161.341 61.0879 161.341C55.4317 161.341 48.2805 155.925 48.2805 155.925C53.1031 147.009 59.095 129.847 59.095 129.847C68.9102 133.012 70.9853 129.847 70.9853 129.847C70.4037 125.098 68.2419 120.432 68.2419 120.432C61.8376 119.767 57.6802 122.767 57.6802 122.767L54.7638 120.265C59.5864 108.266 66.2426 89.6037 66.2426 89.6037C66.2426 89.6037 69.9043 86.8354 74.6454 86.8354ZM60.3369 165.094C60.3369 165.094 67.1564 166.923 74.6454 166.923C82.1348 166.923 88.9539 165.094 88.9539 165.094L91.2789 169.505C81.7966 179.504 74.6389 178.668 74.6389 178.668C74.6389 178.668 67.4877 179.504 58.0055 169.505L60.3369 165.094Z" fill="url(#paint0_linear_1496_64)"/>
<defs>
<linearGradient id="paint0_linear_1496_64" x1="49.6135" y1="-0.31301" x2="178.364" y2="218.625" gradientUnits="userSpaceOnUse">
<stop offset="0.118898" stop-color="#6A4294"/>
<stop offset="0.284449" stop-color="#FC515F"/>
<stop offset="0.650539" stop-color="#FEB567"/>
<stop offset="0.91137" stop-color="#6A4294"/>
</linearGradient>
</defs>
</svg>
