<svg width="260" height="260" viewBox="0 0 260 260" fill="none" xmlns="http://www.w3.org/2000/svg">
<g filter="url(#filter0_b_1950_38)">
<path d="M7.84566 158.875C7.84566 210.725 49.8786 252.758 101.729 252.758H159.195C211.045 252.758 253.078 210.725 253.078 158.875V101.409C253.078 49.5583 211.045 7.52536 159.195 7.52536H101.729C49.8786 7.52536 7.84566 49.5583 7.84566 101.408V158.875Z" fill="url(#paint0_linear_1950_38)"/>
<path d="M101.729 251.78H159.195C210.505 251.78 252.1 210.185 252.1 158.875V101.409C252.1 50.0984 210.505 8.50331 159.195 8.50331H101.729C50.4187 8.50331 8.82361 50.0984 8.82361 101.408V158.875C8.82361 210.185 50.4187 251.78 101.729 251.78Z" stroke="url(#paint1_linear_1950_38)" stroke-opacity="0.3" stroke-width="1.9559"/>
<path d="M130.174 164.642C132.187 164.642 133.888 163.947 135.277 162.557C136.667 161.168 137.362 159.467 137.362 157.454C137.362 155.442 136.667 153.741 135.277 152.351C133.888 150.961 132.187 150.267 130.174 150.267C128.162 150.267 126.461 150.961 125.071 152.351C123.682 153.741 122.987 155.442 122.987 157.454C122.987 159.467 123.682 161.168 125.071 162.557C126.461 163.947 128.162 164.642 130.174 164.642ZM124.999 142.504H135.637C135.637 139.342 135.996 136.85 136.715 135.029C137.434 133.208 139.47 130.717 142.824 127.554C145.316 125.062 147.281 122.691 148.718 120.438C150.156 118.186 150.874 115.479 150.874 112.317C150.874 106.95 148.91 102.829 144.981 99.9541C141.051 97.0791 136.404 95.6416 131.037 95.6416C125.574 95.6416 121.142 97.0791 117.74 99.9541C114.338 102.829 111.966 106.279 110.624 110.304L120.112 114.042C120.591 112.317 121.669 110.448 123.346 108.435C125.023 106.423 127.587 105.417 131.037 105.417C134.104 105.417 136.404 106.255 137.937 107.932C139.47 109.609 140.237 111.454 140.237 113.467C140.237 115.383 139.662 117.18 138.512 118.857C137.362 120.534 135.924 122.092 134.199 123.529C129.983 127.267 127.395 130.094 126.437 132.01C125.479 133.927 124.999 137.425 124.999 142.504ZM130.462 187.642C122.508 187.642 115.033 186.132 108.037 183.113C101.041 180.095 94.9556 175.998 89.7806 170.823C84.6056 165.648 80.5088 159.562 77.49 152.567C74.4713 145.571 72.9619 138.096 72.9619 130.142C72.9619 122.187 74.4713 114.712 77.49 107.717C80.5088 100.721 84.6056 94.6353 89.7806 89.4603C94.9556 84.2853 101.041 80.1885 108.037 77.1697C115.033 74.151 122.508 72.6416 130.462 72.6416C138.416 72.6416 145.891 74.151 152.887 77.1697C159.883 80.1885 165.968 84.2853 171.143 89.4603C176.318 94.6353 180.415 100.721 183.434 107.717C186.452 114.712 187.962 122.187 187.962 130.142C187.962 138.096 186.452 145.571 183.434 152.567C180.415 159.562 176.318 165.648 171.143 170.823C165.968 175.998 159.883 180.095 152.887 183.113C145.891 186.132 138.416 187.642 130.462 187.642ZM130.462 176.142C143.304 176.142 154.181 171.685 163.093 162.773C172.006 153.86 176.462 142.983 176.462 130.142C176.462 117.3 172.006 106.423 163.093 97.5103C154.181 88.5978 143.304 84.1416 130.462 84.1416C117.62 84.1416 106.743 88.5978 97.8306 97.5103C88.9181 106.423 84.4619 117.3 84.4619 130.142C84.4619 142.983 88.9181 153.86 97.8306 162.773C106.743 171.685 117.62 176.142 130.462 176.142Z" fill="#888888"/>
</g>
<defs>
<filter id="filter0_b_1950_38" x="-23.4487" y="-23.769" width="307.821" height="307.821" filterUnits="userSpaceOnUse" color-interpolation-filters="sRGB">
<feFlood flood-opacity="0" result="BackgroundImageFix"/>
<feGaussianBlur in="BackgroundImageFix" stdDeviation="15.6472"/>
<feComposite in2="SourceAlpha" operator="in" result="effect1_backgroundBlur_1950_38"/>
<feBlend mode="normal" in="SourceGraphic" in2="effect1_backgroundBlur_1950_38" result="shape"/>
</filter>
<linearGradient id="paint0_linear_1950_38" x1="130.462" y1="252.758" x2="130.462" y2="7.52536" gradientUnits="userSpaceOnUse">
<stop stop-color="#5C5C5C" stop-opacity="0.4"/>
<stop offset="1" stop-color="#5C5C5C" stop-opacity="0.1"/>
</linearGradient>
<linearGradient id="paint1_linear_1950_38" x1="284.125" y1="-22.842" x2="7.40465" y2="251.284" gradientUnits="userSpaceOnUse">
<stop stop-color="#CCCCCC"/>
<stop offset="0.5" stop-color="white"/>
<stop offset="1" stop-color="#CCCCCC"/>
</linearGradient>
</defs>
</svg>
