<svg width="274" height="274" viewBox="0 0 274 274" fill="none" xmlns="http://www.w3.org/2000/svg">
<path fill-rule="evenodd" clip-rule="evenodd" d="M168.637 111.815C161.471 121.343 150.172 127.596 137.336 127.596C124.5 127.596 113.201 121.343 106.035 111.815C78.3878 117.938 49 131.377 49 152.134V176.672H225.672V152.134C225.672 131.377 196.284 117.938 168.637 111.815ZM137.336 0C115.655 0 98.0755 17.579 98.0755 39.2604C98.0755 60.9418 115.655 78.5208 137.336 78.5208C159.017 78.5208 176.596 60.9418 176.596 39.2604C176.596 17.579 159.017 0 137.336 0ZM97.1832 225.817H177.489V241.878H97.1832V225.817ZM153.397 193.695H185.519C207.691 193.695 225.672 211.676 225.672 233.847C225.672 256.019 207.691 274 185.519 274H153.397V257.939H185.519C198.826 257.939 209.611 247.154 209.611 233.847C209.611 220.54 198.826 209.756 185.519 209.756H153.397V193.695ZM121.275 274H89.1527C66.9809 274 49 256.019 49 233.847C49 211.676 66.9809 193.695 89.1527 193.695H121.275V209.756H89.1527C75.8458 209.756 65.0611 220.54 65.0611 233.847C65.0611 247.154 75.8458 257.939 89.1527 257.939H121.275V274Z" fill="#1E1E1F"/>
</svg>
