<svg width="18" height="13" viewBox="0 0 18 13" fill="none" xmlns="http://www.w3.org/2000/svg">
<path fill-rule="evenodd" clip-rule="evenodd" d="M16.0735 0.85842C16.8115 1.05597 17.3915 1.63594 17.589 2.37394C17.946 3.71025 17.9475 6.5 17.9475 6.5C17.9475 6.5 17.9475 9.28976 17.589 10.6261C17.3915 11.3641 16.8115 11.944 16.0735 12.1416C14.7372 12.5 9.37642 12.5 9.37642 12.5C9.37642 12.5 4.01567 12.5 2.67936 12.1416C1.94136 11.944 1.36139 11.3641 1.16384 10.6261C0.80542 9.28976 0.80542 6.5 0.80542 6.5C0.80542 6.5 0.80542 3.71025 1.16384 2.37394C1.36139 1.63594 1.94136 1.05597 2.67936 0.85842C4.01567 0.5 9.37642 0.5 9.37642 0.5C9.37642 0.5 14.7372 0.5 16.0735 0.85842ZM12.1134 6.50024L7.65991 9.07124V3.9292L12.1134 6.50024Z" fill="white"/>
</svg>
