<?xml version="1.0" encoding="UTF-8"?>
<svg version="1.1" xmlns="http://www.w3.org/2000/svg" width="3000" height="640">
<path d="M0 0 C1.08043579 0.00215515 2.16087158 0.0043103 3.27404785 0.00653076 C19.34952167 0.05794993 35.07743993 0.45568711 50.9375 3.3125 C52.06849121 3.51117676 53.19948242 3.70985352 54.36474609 3.91455078 C112.44258176 14.38503162 166.65066941 39.05029663 210.9375 78.3125 C211.89398437 79.158125 212.85046875 80.00375 213.8359375 80.875 C226.04888775 91.87647797 237.82349058 103.33195315 247.9375 116.3125 C248.8629593 117.43990834 249.79154542 118.56475466 250.72265625 119.6875 C265.93490075 138.13538841 278.66796761 158.62745551 288.93554688 180.21386719 C289.60797017 181.62228596 290.28909758 183.02657951 290.97851562 184.42675781 C303.02037322 208.93975312 310.96738828 235.51575966 315.9375 262.3125 C316.10185547 263.1802002 316.26621094 264.04790039 316.43554688 264.94189453 C320.24184721 285.58658145 321.83874287 307.34078799 320.9375 328.3125 C320.89641113 329.31587402 320.85532227 330.31924805 320.81298828 331.35302734 C317.99982521 393.52123493 298.84202566 454.81609776 261.9375 505.3125 C261.54079102 505.85938477 261.14408203 506.40626953 260.73535156 506.96972656 C244.17527964 529.72073904 224.46202456 552.28855485 201.9375 569.3125 C201.01066406 570.05628906 200.08382812 570.80007813 199.12890625 571.56640625 C184.41755734 583.24178252 168.57135558 593.59386014 151.9375 602.3125 C150.97432861 602.81789307 150.97432861 602.81789307 149.99169922 603.33349609 C146.0120877 605.40392287 142.00156797 607.40034484 137.95751953 609.34179688 C136.64031975 609.97476598 135.32601878 610.61381409 134.01513672 611.25976562 C110.18516839 622.93602705 83.94821015 630.48817683 57.9375 635.3125 C57.0697998 635.47685547 56.20209961 635.64121094 55.30810547 635.81054688 C-7.60300924 647.40958919 -77.14960384 638.54058245 -134.72802734 610.45117188 C-137.13885366 609.27525743 -139.56279522 608.1297037 -141.98828125 606.984375 C-166.79285283 595.10374288 -189.49912158 579.54283021 -210.0625 561.3125 C-211.01898438 560.466875 -211.97546875 559.62125 -212.9609375 558.75 C-225.17388775 547.74852203 -236.94849058 536.29304685 -247.0625 523.3125 C-247.9879593 522.18509166 -248.91654542 521.06024534 -249.84765625 519.9375 C-283.70960906 478.87746351 -305.56880376 428.50331892 -315.0625 376.3125 C-315.26004883 375.24966797 -315.45759766 374.18683594 -315.66113281 373.09179688 C-321.59044917 339.72847507 -322.12721871 302.67926348 -316.0625 269.3125 C-315.75650879 267.59426025 -315.75650879 267.59426025 -315.44433594 265.84130859 C-303.7058206 201.56994696 -274.44199297 143.38895126 -229.0625 96.3125 C-228.50030762 95.72839355 -227.93811523 95.14428711 -227.35888672 94.54248047 C-220.85597543 87.82418155 -214.29538145 81.37101108 -206.92504883 75.59277344 C-204.07694616 73.32400765 -201.31442561 70.97541568 -198.546875 68.609375 C-192.32377822 63.37312021 -185.7330398 58.77802618 -178.9375 54.3125 C-178.34956665 53.92375702 -177.7616333 53.53501404 -177.15588379 53.13449097 C-167.38564917 46.68319944 -157.50829023 40.61404317 -147.0625 35.3125 C-145.79720459 34.6625708 -145.79720459 34.6625708 -144.50634766 33.99951172 C-99.41920114 11.02874568 -50.4774168 -0.18151758 0 0 Z M-102.0625 132.3125 C-102.61341309 132.75062012 -103.16432617 133.18874023 -103.73193359 133.64013672 C-139.07093606 162.06075932 -161.19449466 201.74682884 -166.44711304 246.84838867 C-167.96886869 262.71987153 -167.47560488 278.79319777 -167.43254495 294.71904373 C-167.42107785 299.9636557 -167.42534922 305.20825992 -167.42729187 310.45288086 C-167.42816947 319.24449901 -167.41720205 328.03603926 -167.39868164 336.82763672 C-167.37746945 346.95424982 -167.37401862 357.08074945 -167.3802436 367.20738029 C-167.38595845 377.01098993 -167.38027004 386.81456012 -167.36907005 396.61816406 C-167.36445748 400.76449319 -167.36353551 404.91079793 -167.3656559 409.05712891 C-167.36755429 413.9427848 -167.35931711 418.82832689 -167.3435955 423.71395683 C-167.33939336 425.49438442 -167.33847424 427.27482365 -167.34128571 429.05525398 C-167.38601507 462.47604163 -158.56657861 490.75848537 -134.56298828 514.87353516 C-114.97614512 533.65727313 -88.28608386 542.89115684 -61.37353516 542.73632812 C-33.0786968 541.88466327 -6.94811726 529.35506791 12.53515625 509.05078125 C33.65890132 484.97314662 39.46015288 457.68373382 38.9375 426.3125 C39.55713623 426.20220459 40.17677246 426.09190918 40.81518555 425.97827148 C70.62096206 420.38951153 97.52391911 403.24420002 118.9375 382.3125 C119.63746094 381.67441406 120.33742188 381.03632813 121.05859375 380.37890625 C149.1584281 354.14849955 166.37588079 312.56398273 168.06176758 274.50732422 C169.10485185 234.52135074 159.13544452 196.60482738 134.9375 164.3125 C134.2878125 163.43851562 133.638125 162.56453125 132.96875 161.6640625 C121.9811436 147.5914743 108.89579246 135.06273833 93.9375 125.3125 C93.32165039 124.91095703 92.70580078 124.50941406 92.07128906 124.09570312 C33.1209577 86.2275569 -46.73715056 88.24433406 -102.0625 132.3125 Z " fill="#FFFFFF" transform="translate(319.0625,-0.31250000000000006)"/>
<path d="M0 0 C24.91468763 23.76754242 38.84145919 56.54661493 39.78930664 90.86743164 C40.0480598 121.57180385 30.28761675 151.70506576 10.43530273 175.35888672 C9.72889648 176.20451172 9.02249023 177.05013672 8.29467773 177.92138672 C-6.75876462 195.24909015 -25.57737645 209.41964038 -47.82519531 215.96459961 C-48.71571091 216.22777481 -49.6062265 216.49095001 -50.52372742 216.76210022 C-51.19724747 216.95903976 -51.87076752 217.15597931 -52.56469727 217.35888672 C-52.57016571 215.51417786 -52.57016571 215.51417786 -52.57574463 213.63220215 C-52.6128574 201.98184417 -52.67080631 190.33174655 -52.74860001 178.68158722 C-52.78792979 172.69363895 -52.82018903 166.70583456 -52.83569336 160.71777344 C-52.85095585 154.92742627 -52.88556979 149.13747506 -52.93300629 143.3473053 C-52.94772177 141.15002403 -52.95573256 138.95268621 -52.95658112 136.75535583 C-52.9744187 113.70334227 -56.36479284 94.99000873 -72.93579102 77.76123047 C-86.41102353 65.44731072 -103.0721106 60.59815262 -120.92797852 61.05029297 C-138.65332637 61.93344551 -153.7469761 70.5346636 -165.56469727 83.35888672 C-175.76511441 96.44162357 -179.86962579 110.88087801 -179.90063477 127.19482422 C-179.90729156 128.42818512 -179.91394836 129.66154602 -179.92080688 130.93228149 C-179.93090678 133.53947466 -179.93562473 136.14669354 -179.93530273 138.75390625 C-179.93964493 142.68648591 -179.97591009 146.61791382 -180.01391602 150.55029297 C-180.15648965 182.20251782 -172.60332426 208.49063504 -150.11157227 231.91357422 C-133.18855619 248.17791002 -112.57484646 256.22766791 -89.56469727 259.35888672 C-88.78577622 281.57256086 -93.89142474 299.92175316 -109.25219727 316.54638672 C-122.93166527 329.55921398 -140.44937908 334.95532955 -158.97485352 334.63623047 C-176.77119364 333.88109761 -192.53479404 325.79493039 -204.78344727 313.05029297 C-219.73342604 295.54156782 -221.71735197 275.76847047 -221.70996094 253.73217773 C-221.71295676 251.94727 -221.71636027 250.16236291 -221.72013855 248.37745667 C-221.72894303 243.5463531 -221.73131526 238.71526728 -221.73195434 233.88415647 C-221.73266725 230.85756768 -221.7348062 227.83098335 -221.73745155 224.80439568 C-221.74669565 214.22140087 -221.75078791 203.63841863 -221.75 193.05541992 C-221.74940057 183.23136334 -221.75992838 173.4073619 -221.77574366 163.58331925 C-221.78887934 155.11838036 -221.79418133 146.65345935 -221.79354459 138.18851036 C-221.79329122 133.14665056 -221.79605207 128.10483973 -221.80672264 123.06299019 C-221.81650474 118.31131313 -221.81641461 113.55973083 -221.80920601 108.80805016 C-221.80817236 107.07887761 -221.81044902 105.34969884 -221.81656647 103.6205368 C-221.94759258 63.9668888 -210.62960002 29.4905986 -182.78344727 0.52294922 C-132.6765134 -49.79837862 -50.77806422 -47.02314479 0 0 Z " fill="#FFFFFF" transform="translate(410.564697265625,169.64111328125)"/>
<path d="M0 0 C2.49407678 2.20615487 4.93339739 4.45745008 7.35546875 6.7421875 C7.98195313 7.31582031 8.6084375 7.88945313 9.25390625 8.48046875 C18.95269906 17.67457324 28.02708653 31.01936702 32.35546875 43.7421875 C32.35546875 44.7321875 32.35546875 45.7221875 32.35546875 46.7421875 C26.71938446 48.68554586 21.08172525 50.62424275 15.44262695 52.55883789 C13.52878729 53.21612104 11.61536629 53.87462464 9.70239258 54.53442383 C-10.69928165 61.56930027 -10.69928165 61.56930027 -19.64453125 63.7421875 C-20.02222656 62.94296875 -20.39992188 62.14375 -20.7890625 61.3203125 C-28.55278708 45.82922738 -39.66717806 34.55581588 -56.2734375 28.51953125 C-57.05589844 28.26300781 -57.83835937 28.00648437 -58.64453125 27.7421875 C-59.31355469 27.51660156 -59.98257812 27.29101562 -60.671875 27.05859375 C-75.52752095 22.92410495 -92.91621807 25.57071358 -106.51953125 32.4296875 C-122.16457956 41.76966371 -132.53139798 56.984714 -137.08203125 74.4921875 C-142.20795478 96.83254025 -139.5785137 121.1033732 -127.64453125 140.7421875 C-125.19759454 144.31206711 -122.58119006 147.56510049 -119.64453125 150.7421875 C-119.07605469 151.36480469 -118.50757813 151.98742187 -117.921875 152.62890625 C-113.71902928 156.73938173 -108.8986613 159.39998593 -103.70703125 162.0546875 C-102.72283203 162.56153076 -102.72283203 162.56153076 -101.71875 163.07861328 C-88.68278883 169.4387969 -71.38997058 170.09229327 -57.51953125 166.1796875 C-38.85146763 159.2249187 -27.80392328 145.86626825 -18.64453125 128.7421875 C-7.68997643 131.40315431 2.89809634 135.25819004 13.54296875 138.9296875 C15.4679904 139.59081096 17.39311975 140.25162094 19.31835938 140.91210938 C23.99864606 142.51852157 28.67745218 144.12917709 33.35546875 145.7421875 C32.88381207 147.17846796 32.41030986 148.61414246 31.93603516 150.04956055 C31.6725528 150.84911667 31.40907043 151.64867279 31.13760376 152.47245789 C22.56049204 177.36294896 0.50482344 197.34828815 -22.64453125 208.7421875 C-53.85579732 222.68466405 -90.28508469 224.1667996 -122.4296875 212.3984375 C-142.6671161 204.61375188 -159.48327781 191.92695489 -172.64453125 174.7421875 C-173.55525391 173.57236328 -173.55525391 173.57236328 -174.484375 172.37890625 C-194.92828583 144.79585196 -200.26049981 108.24242139 -195.82470703 74.81005859 C-191.71956954 48.93079208 -180.60511234 26.78549866 -162.64453125 7.7421875 C-162.020625 7.05382812 -161.39671875 6.36546875 -160.75390625 5.65625 C-120.50613957 -37.12814063 -43.44044006 -37.08799757 0 0 Z " fill="#FFFFFF" transform="translate(1457.64453125,82.2578125)"/>
<path d="M0 0 C51.15 0 102.3 0 155 0 C155 16.83 155 33.66 155 51 C122 51 89 51 55 51 C55 64.86 55 78.72 55 93 C82.72 93 110.44 93 139 93 C139 109.5 139 126 139 143 C111.28 143 83.56 143 55 143 C55 157.52 55 172.04 55 187 C88.66 187 122.32 187 157 187 C157 203.83 157 220.66 157 238 C105.19 238 53.38 238 0 238 C0 159.46 0 80.92 0 0 Z " fill="#FFFFFF" transform="translate(1520,60)"/>
<path d="M0 0 C51.15 0 102.3 0 155 0 C155 16.83 155 33.66 155 51 C122 51 89 51 55 51 C55 64.86 55 78.72 55 93 C82.72 93 110.44 93 139 93 C139 109.5 139 126 139 143 C111.28 143 83.56 143 55 143 C55 157.52 55 172.04 55 187 C88.66 187 122.32 187 157 187 C157 203.83 157 220.66 157 238 C105.19 238 53.38 238 0 238 C0 159.46 0 80.92 0 0 Z " fill="#FFFFFF" transform="translate(1075,60)"/>
<path d="M0 0 C135.45995415 0 135.45995415 0 160.24609375 24.1875 C176.22189446 40.50321136 183.26126985 60.58127734 183.2487793 83.21166992 C183.06435494 95.54156625 180.42590137 106.88389834 175 118 C174.58105469 118.91136719 174.16210938 119.82273437 173.73046875 120.76171875 C164.90625154 138.58816331 147.83834708 151.28774338 129.5703125 158.3203125 C118.32025883 161.96241621 107.24299707 163.30896923 95.453125 163.1953125 C94.4429834 163.19329834 93.4328418 163.19128418 92.39208984 163.18920898 C88.6780126 163.17887504 84.96400093 163.15095437 81.25 163.125 C72.9175 163.08375 64.585 163.0425 56 163 C56 187.75 56 212.5 56 238 C37.52 238 19.04 238 0 238 C0 159.46 0 80.92 0 0 Z M56 51 C56 71.13 56 91.26 56 112 C63.21875 112.061875 70.4375 112.12375 77.875 112.1875 C80.13327637 112.21481201 82.39155273 112.24212402 84.71826172 112.27026367 C86.53873157 112.27903797 88.35920737 112.28667967 90.1796875 112.29296875 C91.56039429 112.3159906 91.56039429 112.3159906 92.96899414 112.33947754 C102.08301242 112.343099 111.30124452 110.61686361 118 104 C125.24334738 95.10055242 127.06717149 86.34713988 126 75 C124.30763856 67.78466261 120.64720893 61.80386393 115 57 C109.06083201 53.32119333 103.44451173 50.8667289 96.41503906 50.88647461 C95.04532959 50.88665588 95.04532959 50.88665588 93.64794922 50.88684082 C92.22119873 50.89451477 92.22119873 50.89451477 90.765625 50.90234375 C89.88503418 50.90335083 89.00444336 50.90435791 88.09716797 50.90539551 C84.81476536 50.91061867 81.53238134 50.92457994 78.25 50.9375 C70.9075 50.958125 63.565 50.97875 56 51 Z " fill="#FFFFFF" transform="translate(766,60)"/>
<path d="M0 0 C9.63285816 8.55097877 18.00559052 19.98443198 22.28686523 32.17675781 C22.14073181 34.222229 22.14073181 34.222229 21.28686523 36.17675781 C19.24391174 37.22723389 19.24391174 37.22723389 16.5234375 38.0078125 C15.00164635 38.45782623 15.00164635 38.45782623 13.44911194 38.91693115 C12.34498459 39.2243927 11.24085724 39.53185425 10.10327148 39.84863281 C8.97743149 40.1759137 7.85159149 40.50319458 6.69163513 40.84039307 C3.08193559 41.88518228 -0.53413058 42.90580211 -4.15063477 43.92675781 C-6.58661524 44.62968399 -9.02216856 45.33409231 -11.45727539 46.04003906 C-15.90917402 47.32313804 -20.36158321 48.60410195 -24.8203125 49.86328125 C-25.71886459 50.11768982 -26.61741669 50.37209839 -27.54319763 50.63421631 C-29.71313477 51.17675781 -29.71313477 51.17675781 -31.71313477 51.17675781 C-32.05344727 50.46390625 -32.39375977 49.75105469 -32.74438477 49.01660156 C-37.87605601 38.87609164 -43.92249259 32.94942594 -54.71313477 29.17675781 C-63.69088525 26.28692397 -75.18073513 27.46284277 -83.71313477 31.17675781 C-89.11178329 33.97605705 -91.14184288 36.84370797 -93.71313477 42.17675781 C-95.51700531 48.0934532 -95.70227146 54.6551565 -93.33813477 60.42675781 C-88.19689566 69.31196547 -76.87936289 71.59348893 -67.71313477 74.17675781 C-61.19233956 75.90121333 -54.63886659 77.50825269 -48.08422852 79.09863281 C-28.85472878 83.78059797 -12.10368195 90.06250913 2.28686523 104.17675781 C3.0615918 104.91539062 3.83631836 105.65402344 4.63452148 106.41503906 C9.31790759 111.1948242 12.6546199 116.18582838 15.66186523 122.11425781 C15.98364746 122.745979 16.30542969 123.3777002 16.63696289 124.02856445 C21.26392856 133.67765971 22.77989839 142.97160156 22.66186523 153.61425781 C22.6734668 154.65646484 22.68506836 155.69867188 22.69702148 156.77246094 C22.65795029 167.27610121 20.48710362 176.95572773 15.66186523 186.30175781 C15.31559082 186.97916016 14.96931641 187.6565625 14.61254883 188.35449219 C11.35058902 194.47851158 7.37255657 199.44092108 2.28686523 204.17675781 C1.53920898 204.881875 0.79155273 205.58699219 0.02124023 206.31347656 C-21.15048215 224.71604983 -51.00860433 226.45624433 -77.71313477 225.17675781 C-104.15797955 223.12198754 -128.92414884 210.98486719 -147.29907227 192.00097656 C-153.30752727 184.97166755 -156.51213491 177.0772923 -158.71313477 168.17675781 C-152.53915361 165.76081274 -146.31569335 163.81407982 -139.93969727 162.00488281 C-138.93474213 161.7182074 -137.92978699 161.43153198 -136.89437866 161.13616943 C-134.78548584 160.53607781 -132.67607075 159.93781881 -130.56616211 159.34130859 C-127.32514123 158.42307654 -124.08751091 157.49348887 -120.84985352 156.56347656 C-118.79666548 155.9807494 -116.74328666 155.39869397 -114.68969727 154.81738281 C-113.233535 154.39721893 -113.233535 154.39721893 -111.74795532 153.96856689 C-110.85297333 153.71790466 -109.95799133 153.46724243 -109.03588867 153.20898438 C-108.24727448 152.98486877 -107.45866028 152.76075317 -106.64614868 152.52984619 C-104.71313477 152.17675781 -104.71313477 152.17675781 -102.71313477 153.17675781 C-101.87060585 154.56377821 -101.08669639 155.98684946 -100.33813477 157.42675781 C-95.48156645 166.31175129 -89.38997237 171.95490301 -79.58813477 175.05175781 C-67.52314093 177.87368214 -56.54000393 176.81292648 -45.62329102 171.07910156 C-40.9285564 168.15109583 -38.23542124 164.50025668 -36.71313477 159.17675781 C-35.88357579 153.23301049 -35.91527582 147.78636991 -39.40454102 142.72753906 C-50.06240457 130.09717538 -67.96186619 127.84739265 -83.22094727 124.12988281 C-99.25019093 120.20248978 -114.66316289 115.73678616 -127.71313477 105.17675781 C-128.54200195 104.53351563 -129.37086914 103.89027344 -130.22485352 103.22753906 C-142.46642361 93.08559508 -149.98184604 78.84649638 -152.52563477 63.17675781 C-152.62032729 61.84532349 -152.67739408 60.5110766 -152.71313477 59.17675781 C-152.78854492 57.56800781 -152.78854492 57.56800781 -152.86547852 55.92675781 C-153.32849622 38.14687808 -149.56547556 21.60925227 -138.71313477 7.17675781 C-138.27485352 6.57347656 -137.83657227 5.97019531 -137.38500977 5.34863281 C-125.51985343 -9.78967009 -105.30279834 -17.06163265 -86.96313477 -20.07324219 C-56.34964516 -23.61661794 -24.28710835 -20.59066592 0 0 Z " fill="#FFFFFF" transform="translate(1865.713134765625,76.8232421875)"/>
<path d="M0 0 C0.79277344 0.69738281 1.58554688 1.39476562 2.40234375 2.11328125 C3.54509766 3.11294922 3.54509766 3.11294922 4.7109375 4.1328125 C20.67277367 19.04343589 29.31064204 40.76249895 30.52856445 62.35058594 C31.39731063 88.57293071 25.4817451 113.11171069 7.40625 133.04296875 C-7.93199307 149.13933775 -29.54021626 158.6725572 -51.75 159.31640625 C-79.70733475 159.69525154 -103.14738472 152.92354025 -123.78515625 133.23828125 C-140.37998903 116.04363523 -147.71106828 92.72477235 -147.6328125 69.18359375 C-147.29268078 54.07327855 -144.80426151 39.55753645 -137.59765625 26.11328125 C-137.10652344 25.15164063 -136.61539063 24.19 -136.109375 23.19921875 C-125.87901086 4.30112366 -108.33317408 -9.61439128 -87.97265625 -16.26171875 C-57.81962214 -24.52182264 -24.44535222 -20.50629072 0 0 Z M-97.59765625 28.11328125 C-110.27176792 43.38791259 -113.05485173 60.87830096 -111.59765625 80.11328125 C-109.60957193 94.79451928 -102.55622863 107.58569547 -91.25 117.0859375 C-77.95335048 127.01101187 -63.64376099 128.20539256 -47.59765625 127.11328125 C-35.00658837 125.03149114 -24.64967125 117.87279215 -16.59765625 108.11328125 C-5.54276837 92.58218109 -2.86549925 74.34457338 -5.81640625 55.74609375 C-8.9346367 41.24632217 -16.46891529 28.82843002 -28.59765625 20.11328125 C-50.55569407 6.93258743 -79.4250611 8.95257809 -97.59765625 28.11328125 Z " fill="#FFFFFF" transform="translate(2282.59765625,444.88671875)"/>
<path d="M0 0 C1.05574219 0.48082031 2.11148437 0.96164062 3.19921875 1.45703125 C22.84628092 11.19761334 37.57927476 28.33785112 44.71582031 49.08056641 C52.68072384 74.9389744 51.15335947 103.0942153 38.91455078 127.29003906 C28.11640305 147.47963509 9.55181288 161.18653449 -12 168 C-36.49773322 174.62817457 -63.91599809 172.1326111 -86.1875 159.75 C-107.35988952 146.72517449 -121.00756141 127.230353 -126.875 103.1875 C-131.5304432 76.86207717 -127.80126389 49.51283557 -112.47265625 27.3515625 C-98.36739648 7.84201023 -78.76707384 -3.42823761 -55.15234375 -7.34375 C-36.35920944 -9.9953889 -17.29768031 -7.94170228 0 0 Z M-79.22265625 40.83984375 C-90.70382518 54.79387983 -94.10423628 71.29601505 -93 89 C-91.33114217 103.83796369 -85.06767055 117.49652887 -74.06640625 127.65625 C-60.44248048 138.06944167 -45.70410764 140.32804109 -29 139 C-14.43329345 136.502423 -3.79231616 128.43990112 4.68359375 116.66015625 C14.19369824 102.02740195 16.04772772 83.78090039 12.9375 66.875 C9.16898048 51.48541796 0.76255404 39.19170236 -12.4453125 30.46875 C-34.33789089 17.88219117 -62.02401638 22.5860726 -79.22265625 40.83984375 Z " fill="#FFFFFF" transform="translate(1024,433)"/>
<path d="M0 0 C96.28315412 0 96.28315412 0 122 25 C122.95519531 25.86238281 122.95519531 25.86238281 123.9296875 26.7421875 C138.20164245 39.99924788 145.50172409 60.37977289 146.3828125 79.4921875 C147.09718555 106.94148916 140.45415829 128.79883789 121.375 149.125 C88.98020049 180.33099952 42.08817502 173 0 173 C0 115.91 0 58.82 0 0 Z M35 32 C35 67.97 35 103.94 35 141 C68.51042475 141.42807666 68.51042475 141.42807666 96 125 C101.86200211 118.29379371 106.41941895 111.55441231 109 103 C109.22300781 102.3090625 109.44601562 101.618125 109.67578125 100.90625 C113.46505334 87.08958441 111.24468916 71.93341553 104.49609375 59.4375 C96.77795532 46.86277838 86.12927978 38.42934895 72 34 C59.28706013 31.11747739 59.28706013 31.11747739 35 32 Z " fill="#FFFFFF" transform="translate(1339,428)"/>
<path d="M0 0 C94.37193878 0 94.37193878 0 112.00585938 16.81054688 C123.61938154 28.42406904 127.27498959 41.915656 127.3190918 57.96069336 C127.07129914 73.76986496 120.04561281 86.12062551 109 97 C104.65624042 100.83040617 100.70440837 103.57389791 95 105 C98.75997411 111.98115886 102.63087848 118.87477762 106.6875 125.6875 C107.2227832 126.59089111 107.75806641 127.49428223 108.30957031 128.42504883 C111.43901766 133.70326105 114.58050623 138.9742275 117.72566223 144.24308777 C119.46914048 147.16475824 121.21052751 150.08767276 122.95181274 153.01065063 C124.23733407 155.1662613 125.52621661 157.3198383 126.81518555 159.47338867 C127.61132545 160.80898662 128.40731241 162.14467575 129.203125 163.48046875 C129.75692589 164.40249084 129.75692589 164.40249084 130.32191467 165.34313965 C131.83144192 167.88358379 133.06167123 170.18501369 134 173 C128.59285939 173.32303689 123.19138962 173.5579136 117.77685547 173.71411133 C115.93894633 173.77923155 114.10170441 173.86777109 112.26611328 173.98071289 C100.24865995 174.70123844 100.24865995 174.70123844 95 173 C91.38427139 169.76128953 89.62936239 166.30586368 87.79693604 161.84494019 C86.49744638 158.83656738 84.78124841 156.08484059 83.10546875 153.2734375 C82.13367401 151.56069065 81.16189051 149.84793696 80.19143677 148.13442993 C79.15632728 146.32036886 78.10527946 144.51633169 77.05053711 142.71362305 C73.41465212 136.46828982 70.04498763 130.28481194 67.44677734 123.51733398 C65.48978222 119.69342764 62.63347614 116.39365482 60 113 C51.75 112.67 43.5 112.34 35 112 C35 132.13 35 152.26 35 173 C23.45 173 11.9 173 0 173 C0 115.91 0 58.82 0 0 Z M35 31 C35 47.17 35 63.34 35 80 C40.89875 80.103125 46.7975 80.20625 52.875 80.3125 C55.63593018 80.38078003 55.63593018 80.38078003 58.45263672 80.45043945 C68.773302 80.60044232 76.27311435 79.84582632 84.4375 72.9375 C84.953125 72.298125 85.46875 71.65875 86 71 C86.53625 70.360625 87.0725 69.72125 87.625 69.0625 C91.63161739 63.05257391 91.83107485 57.02476956 91 50 C88.76538696 42.56861246 84.72019758 37.78509152 78 34 C71.52091485 31.22324922 64.73445868 30.8723843 57.75390625 30.90234375 C55.95288452 30.90609009 55.95288452 30.90609009 54.11547852 30.90991211 C52.61299561 30.91901611 51.1105127 30.92812012 49.5625 30.9375 C44.756875 30.958125 39.95125 30.97875 35 31 Z " fill="#FFFFFF" transform="translate(1107,428)"/>
<path d="M0 0 C94.35022473 0 94.35022473 0 111.86303711 16.46118164 C122.45016345 27.15977034 127.18777798 40.6027109 127.375 55.5 C127.21405734 70.98987531 122.09969054 83.39169887 111.44140625 94.69921875 C106.61566167 99.24700044 101.55453216 103.51827797 95 105 C98.4547011 112.3068366 102.43048641 119.19339147 106.67385864 126.06796265 C108.54675937 129.10413002 110.40443642 132.1495737 112.26171875 135.1953125 C112.83907021 136.14173866 112.83907021 136.14173866 113.42808533 137.10728455 C117.88125282 144.42313257 122.22930745 151.80015492 126.5625 159.1875 C126.93942993 159.82813385 127.31635986 160.4687677 127.70471191 161.1288147 C128.76524531 162.93209961 129.82267121 164.73716361 130.87890625 166.54296875 C131.4829126 167.57446045 132.08691895 168.60595215 132.70922852 169.66870117 C134 172 134 172 134 173 C128.55593682 173.22311734 123.11455123 173.38606904 117.66699219 173.49438477 C115.81593464 173.53954435 113.9651964 173.60089139 112.11523438 173.67895508 C96.87648367 174.30571015 96.87648367 174.30571015 92.64746094 171.36303711 C91.02285719 168.98040972 90.03552629 166.68901226 89 164 C87.96989596 162.15293419 86.91654147 160.31869764 85.84375 158.49609375 C84.72609616 156.47826017 83.61164157 154.45865202 82.5 152.4375 C75.8979909 140.53207652 69.0837769 128.76414886 62.17651367 117.03344727 C61.41142348 115.71109072 60.68322615 114.3664523 60 113 C51.75 112.67 43.5 112.34 35 112 C35 132.13 35 152.26 35 173 C23.45 173 11.9 173 0 173 C0 115.91 0 58.82 0 0 Z M35 31 C35 47.17 35 63.34 35 80 C40.89875 80.103125 46.7975 80.20625 52.875 80.3125 C55.63593018 80.38078003 55.63593018 80.38078003 58.45263672 80.45043945 C68.78627597 80.60056196 76.2190873 79.80816296 84.4375 72.97265625 C89.79313121 66.42539709 91.51200052 61.2420214 91.3046875 52.7421875 C90.49609183 45.46482644 86.62623627 40.98306522 81.078125 36.47265625 C73.97926164 31.44207075 66.27696772 30.86576409 57.75390625 30.90234375 C55.95288452 30.90609009 55.95288452 30.90609009 54.11547852 30.90991211 C52.61299561 30.91901611 51.1105127 30.92812012 49.5625 30.9375 C44.756875 30.958125 39.95125 30.97875 35 31 Z " fill="#FFFFFF" transform="translate(2655,428)"/>
<path d="M0 0 C18.48 0 36.96 0 56 0 C56 78.54 56 157.08 56 238 C37.52 238 19.04 238 0 238 C0 159.46 0 80.92 0 0 Z " fill="#FFFFFF" transform="translate(974,60)"/>
<path d="M0 0 C36.3 0 72.6 0 110 0 C110 10.23 110 20.46 110 31 C85.25 31 60.5 31 35 31 C35 43.87 35 56.74 35 70 C56.45 70 77.9 70 100 70 C100 80.23 100 90.46 100 101 C78.55 101 57.1 101 35 101 C35 114.2 35 127.4 35 141 C60.08 141 85.16 141 111 141 C111 151.56 111 162.12 111 173 C74.37 173 37.74 173 0 173 C0 115.91 0 58.82 0 0 Z " fill="#FFFFFF" transform="translate(1519,428)"/>
<path d="M0 0 C7.87874965 6.68197755 14.85086878 15.65277235 16.46875 26.09375 C10.39221031 28.87061722 4.16313337 30.88443521 -2.21875 32.84375 C-3.7665918 33.33681641 -3.7665918 33.33681641 -5.34570312 33.83984375 C-6.33892578 34.14535156 -7.33214844 34.45085937 -8.35546875 34.765625 C-9.70257935 35.18473145 -9.70257935 35.18473145 -11.0769043 35.61230469 C-13.6695565 36.12088025 -15.08655491 36.04896424 -17.53125 35.09375 C-18.76953125 33.45703125 -18.76953125 33.45703125 -19.84375 31.40625 C-24.12945141 24.16846424 -29.52152993 20.39280942 -37.5078125 17.7890625 C-46.94692952 15.61830949 -55.92938184 16.6260006 -64.53125 21.09375 C-69.09806208 24.72855961 -71.19516103 28.19009759 -71.8671875 33.99609375 C-71.92726445 38.66407245 -71.91657009 42.2107248 -70.03125 46.53125 C-63.49032141 53.2357018 -55.95146282 55.40384293 -47.03125 57.59375 C-44.70777615 58.19315682 -42.38485649 58.79471604 -40.0625 59.3984375 C-38.94230469 59.68686523 -37.82210937 59.97529297 -36.66796875 60.27246094 C-17.44808489 65.30481534 0.39963451 72.21316139 11.23046875 89.984375 C18.41675359 103.55653523 19.16821519 117.02866002 14.69140625 131.62890625 C10.03203269 144.56716675 0.94502186 152.7455241 -11.11962891 158.68652344 C-31.75584929 168.39316975 -57.14933326 167.35016357 -78.28125 159.84375 C-92.02990961 154.18946649 -105.25381057 144.96349794 -111.53125 131.09375 C-112.21357802 128.7649483 -112.8818459 126.43194657 -113.53125 124.09375 C-109.4937729 122.8270531 -105.45525916 121.5637331 -101.41577148 120.3034668 C-100.04308909 119.87469562 -98.670689 119.44501956 -97.29858398 119.0144043 C-95.32089433 118.39391044 -93.34219636 117.77672902 -91.36328125 117.16015625 C-90.17452393 116.78834229 -88.9857666 116.41652832 -87.76098633 116.03344727 C-85.02169777 115.23644661 -82.33702393 114.59568977 -79.53125 114.09375 C-79.1909375 114.66222656 -78.850625 115.23070312 -78.5 115.81640625 C-72.53034136 125.32658053 -66.2000019 131.10511871 -55.11328125 133.6484375 C-45.40105937 135.32346518 -34.87102839 134.27276208 -26.53125 128.71875 C-21.59413732 124.3987764 -20.01055284 120.80685969 -19.453125 114.375 C-19.57776757 110.73543707 -20.85834935 108.31086664 -22.53125 105.09375 C-22.86125 104.10375 -23.19125 103.11375 -23.53125 102.09375 C-25.31257385 101.01157946 -25.31257385 101.01157946 -27.53125 100.09375 C-28.35238281 99.64330322 -29.17351563 99.19285645 -30.01953125 98.72875977 C-37.95066552 94.49923285 -45.82203439 92.1381764 -54.53125 90.03125 C-72.1007622 85.72760686 -90.57406787 80.27563481 -101.25390625 64.55859375 C-109.32918731 50.7691089 -110.13389045 36.75222688 -106.50390625 21.421875 C-102.51948082 7.78841933 -94.23206648 -0.55407539 -82.0390625 -7.28125 C-57.12294479 -19.70234132 -22.03185272 -16.96705899 0 0 Z " fill="#FFFFFF" transform="translate(2925.53125,438.90625)"/>
<path d="M0 0 C36.3 0 72.6 0 110 0 C110 10.23 110 20.46 110 31 C84.92 31 59.84 31 34 31 C34 43.87 34 56.74 34 70 C55.45 70 76.9 70 99 70 C99 80.23 99 90.46 99 101 C77.55 101 56.1 101 34 101 C34 114.2 34 127.4 34 141 C59.41 141 84.82 141 111 141 C111 151.56 111 162.12 111 173 C74.37 173 37.74 173 0 173 C0 115.91 0 58.82 0 0 Z " fill="#FFFFFF" transform="translate(1857,428)"/>
<path d="M0 0 C36.3 0 72.6 0 110 0 C110 10.23 110 20.46 110 31 C84.92 31 59.84 31 34 31 C34 43.87 34 56.74 34 70 C55.45 70 76.9 70 99 70 C99 80.23 99 90.46 99 101 C77.55 101 56.1 101 34 101 C34 114.2 34 127.4 34 141 C42.21197266 140.98259766 42.21197266 140.98259766 50.58984375 140.96484375 C54.0488293 140.95973694 57.50781024 140.95492317 60.96679688 140.95117188 C66.46249349 140.94518363 71.95817351 140.93808381 77.45385742 140.92456055 C81.88233688 140.913731 86.31079856 140.90772302 90.73929024 140.90512276 C92.43265628 140.90326863 94.12602129 140.89964825 95.81937981 140.89426994 C98.18291232 140.8870586 100.54637045 140.8860091 102.90991211 140.88647461 C103.61697296 140.88287933 104.32403381 140.87928406 105.05252075 140.87557983 C109.88594784 140.88594784 109.88594784 140.88594784 111 142 C111 152.23 111 162.46 111 173 C74.37 173 37.74 173 0 173 C0 115.91 0 58.82 0 0 Z " fill="#FFFFFF" transform="translate(2503,428)"/>
<path d="M0 0 C93.87236004 0 93.87236004 0 112.265625 18.078125 C123.54719096 29.76315824 127.40696509 44.59091017 127.20703125 60.4765625 C126.25976572 76.59794944 119.95083884 91.03196041 108 102 C95.76349035 112.2641775 81.58656843 116.38364977 65.8359375 116.1953125 C64.6125769 116.19229126 64.6125769 116.19229126 63.36450195 116.18920898 C60.36794266 116.17888083 57.37146463 116.15096032 54.375 116.125 C44.289375 116.063125 44.289375 116.063125 34 116 C34 134.81 34 153.62 34 173 C22.78 173 11.56 173 0 173 C0 115.91 0 58.82 0 0 Z M34 31 C34 48.49 34 65.98 34 84 C40.084375 84.0825 46.16875 84.165 52.4375 84.25 C54.33943115 84.28641602 56.2413623 84.32283203 58.20092773 84.36035156 C68.17290421 84.47198876 75.88867712 84.31622821 83.8125 77.625 C89.66018667 70.607776 92.39304423 64.63526768 91.875 55.5 C90.80689246 46.71238797 86.92332526 40.49493395 80 35 C73.01148616 31.2561533 66.13017103 30.87096317 58.31640625 30.90234375 C57.03451416 30.90484131 55.75262207 30.90733887 54.43188477 30.90991211 C52.82498779 30.91901611 51.21809082 30.92812012 49.5625 30.9375 C41.8590625 30.9684375 41.8590625 30.9684375 34 31 Z " fill="#FFFFFF" transform="translate(2347,428)"/>
<path d="M0 0 C12.21 0 24.42 0 37 0 C42.74274139 13.78257933 42.74274139 13.78257933 45.3203125 20.6015625 C45.61669617 21.38083099 45.91307983 22.16009949 46.21844482 22.96298218 C47.18908033 25.51631455 48.15703326 28.07065485 49.125 30.625 C49.81898994 32.45189254 50.51316784 34.27871368 51.20751953 36.10546875 C53.07872237 41.02968676 54.94767336 45.95475649 56.81616211 50.88000488 C60.08965117 59.50725864 63.3669088 68.13308239 66.64382935 76.7590332 C67.46249561 78.91411232 68.28107921 81.06922284 69.09957886 83.22436523 C75.02723056 98.83142258 80.97572723 114.42993896 87 130 C89.34153238 126.48770144 90.67997153 122.83181528 92.140625 118.90234375 C92.45533752 118.06539978 92.77005005 117.22845581 93.09429932 116.3661499 C93.78433367 114.52982806 94.4726282 112.69285176 95.15942383 110.85531616 C96.65382636 106.85707012 98.1563793 102.86190268 99.65844727 98.86653137 C100.47055481 96.70619777 101.28222928 94.54570133 102.09350586 92.38505554 C105.28011602 83.901427 108.48685131 75.42553835 111.703125 66.953125 C111.94380959 66.31906298 112.18449417 65.68500095 112.43247223 65.03172493 C114.12112633 60.58345174 115.81047394 56.13544207 117.5 51.6875 C124.03891979 34.47270766 130.54489217 17.24642124 137 0 C149.54 0 162.08 0 175 0 C168.35911761 17.63008972 161.6021031 35.18895594 154.56750488 52.66583252 C152.26724027 58.38126109 149.97471309 64.0997892 147.68228149 69.81836319 C147.13763501 71.17694867 146.59289581 72.53549699 146.04806519 73.89400864 C138.73878404 92.1204548 131.49503244 110.37294333 124.25 128.625 C123.60858582 130.24076504 122.9671674 131.8565284 122.32574463 133.47229004 C122.01336538 134.25919661 121.70098614 135.04610317 121.37914085 135.85685539 C120.76203164 137.41139897 120.14491672 138.96594028 119.52779579 140.5204792 C117.84663405 144.75543882 116.16584791 148.9905471 114.4855442 153.22584724 C113.76264569 155.04696365 113.03863226 156.86763737 112.3145752 158.68829346 C111.46629738 160.82529345 110.6218546 162.96382163 109.78210449 165.10418701 C109.42314087 166.01517151 109.06417725 166.92615601 108.69433594 167.86474609 C108.38784119 168.64739838 108.08134644 169.43005066 107.76556396 170.23641968 C107 172 107 172 106 173 C103.18859849 173.0886126 100.40120576 173.11529584 97.58984375 173.09765625 C96.84383911 173.09664917 96.09783447 173.09564209 95.32922363 173.09460449 C92.53194565 173.08935685 89.73475389 173.0754314 86.9375 173.0625 C83.55932874 173.05055055 80.18115364 173.03984797 76.80297852 173.02905273 C75.1246795 173.02353348 73.44638055 173.01799604 71.76808167 173.01243591 C70.52461472 173.00833206 69.28114777 173.00422821 68 173 C67.60055679 171.98771835 67.20111359 170.97543671 66.78956604 169.93247986 C54.70565843 139.31495502 42.54676393 108.72753927 30.36584473 78.14849854 C28.44212995 73.31882525 26.51893565 68.48894479 24.59575558 63.65905857 C22.26065849 57.79475875 19.92526201 51.93057817 17.58984375 46.06640625 C17.16078169 44.98897219 16.73171963 43.91153812 16.28965569 42.80145454 C15.45677769 40.71009059 14.62379115 38.61876986 13.79068851 36.52749538 C12.99865333 34.53898735 12.20701239 32.55032222 11.41580105 30.56148624 C9.49876937 25.74583401 7.57177659 20.934559 5.62625122 16.13034058 C5.06347017 14.73663821 5.06347017 14.73663821 4.4893198 13.31478024 C3.78110928 11.56232662 3.07013167 9.81098785 2.35594845 8.06095982 C0 2.22354049 0 2.22354049 0 0 Z " fill="#FFFFFF" transform="translate(1655,428)"/>
<path d="M0 0 C36.96 0 73.92 0 112 0 C112 10.23 112 20.46 112 31 C86.59 31 61.18 31 35 31 C35 44.53 35 58.06 35 72 C56.12 72 77.24 72 99 72 C99 82.56 99 93.12 99 104 C77.88 104 56.76 104 35 104 C35 126.77 35 149.54 35 173 C23.45 173 11.9 173 0 173 C0 115.91 0 58.82 0 0 Z " fill="#FFFFFF" transform="translate(762,428)"/>
<path d="M0 0 C11.55 0 23.1 0 35 0 C35 46.53 35 93.06 35 141 C59.6375841 140.9603851 59.6375841 140.9603851 84.27514648 140.90991211 C89.03137207 140.90539551 89.03137207 140.90539551 91.25526428 140.90455627 C92.8143899 140.90301684 94.3735143 140.89949193 95.93263245 140.89442444 C98.28901246 140.88714601 100.64531948 140.88609261 103.00170898 140.88647461 C103.70073806 140.8828765 104.39976713 140.87927839 105.1199789 140.87557125 C109.88597366 140.88597366 109.88597366 140.88597366 111 142 C111 152.23 111 162.46 111 173 C74.37 173 37.74 173 0 173 C0 115.91 0 58.82 0 0 Z " fill="#FFFFFF" transform="translate(2009,428)"/>
<path d="M0 0 C6.70926882 3.59087627 10.16787939 8.39293158 13.21875 15.1875 C14.07032228 18.05089516 14.34264141 20.59654201 14.33900452 23.57879639 C14.34037918 24.45095291 14.34175385 25.32310944 14.34317017 26.22169495 C14.33777725 27.64481239 14.33777725 27.64481239 14.33227539 29.09667969 C14.33242142 30.10188156 14.33256744 31.10708344 14.3327179 32.14274597 C14.33202128 35.46497761 14.32424058 38.78715316 14.31640625 42.109375 C14.31454118 44.41294321 14.3131177 46.71651182 14.31211853 49.02008057 C14.30830037 55.08307999 14.29847604 61.14605545 14.28741455 67.20904541 C14.27718538 73.39587073 14.27261768 79.58269991 14.26757812 85.76953125 C14.25685317 97.90886469 14.23978513 110.04818035 14.21875 122.1875 C12.49006543 121.89411418 10.76239432 121.59475384 9.03515625 121.29296875 C7.59184937 121.04389771 7.59184937 121.04389771 6.11938477 120.78979492 C-2.74347046 118.94948991 -9.69696379 114.67811263 -16.78125 109.1875 C-17.49410156 108.6409375 -18.20695312 108.094375 -18.94140625 107.53125 C-30.78556657 97.8550959 -36.96040482 83.94944753 -39.78125 69.1875 C-40.15986352 65.16364803 -40.20353861 61.18028301 -40.1796875 57.140625 C-40.18255768 56.04457947 -40.18542786 54.94853394 -40.18838501 53.8192749 C-40.19041025 51.52355425 -40.1849894 49.22781573 -40.17236328 46.93212891 C-40.15622568 43.43222451 -40.17229734 39.93346387 -40.19140625 36.43359375 C-40.18942476 34.19010164 -40.18558303 31.94661024 -40.1796875 29.703125 C-40.18576019 28.66649719 -40.19183289 27.62986938 -40.1980896 26.56182861 C-40.10958538 17.37378996 -38.08828851 10.79465521 -31.75390625 3.94921875 C-22.7487906 -4.09297364 -10.73449952 -4.89167067 0 0 Z " fill="#FFFFFF" transform="translate(306.78125,269.8125)"/>
<path d="M0 0 C5.28009192 2.77649777 9.91611634 7.69756778 11.80078125 13.3515625 C12.75293593 26.04085465 12.75293593 26.04085465 8.80078125 31.3515625 C3.23762974 36.91471401 -0.41753565 39.48661834 -8.44921875 39.6640625 C-15.37920428 39.58714812 -18.92963041 38.62859865 -23.9140625 33.6328125 C-28.95939745 28.02952286 -29.51016683 23.76479577 -29.40234375 16.2890625 C-28.98956333 10.31962264 -26.46002434 7.42391465 -22.19921875 3.5390625 C-16.10354143 -1.69075157 -7.66996117 -2.26148056 0 0 Z M-22.63671875 10.0390625 C-24.92108851 14.88192639 -26.06584326 19.29953704 -24.5703125 24.56640625 C-22.44340926 29.34526415 -19.88862653 31.85719666 -15.19921875 34.3515625 C-10.12383478 36.04335716 -5.87957439 35.91528117 -1.01171875 33.7265625 C2.85427373 31.57629149 4.88137038 29.42071354 6.80078125 25.3515625 C8.1644342 20.54758252 8.288247 16.6450525 6.23828125 12.0390625 C3.55056604 7.35422558 -0.12124215 5.04422137 -5.19921875 3.3515625 C-12.50195727 2.63560774 -17.74788621 4.64881124 -22.63671875 10.0390625 Z " fill="#FFFFFF" transform="translate(1922.19921875,262.6484375)"/>
<path d="M0 0 C11.33805722 -0.49295901 11.33805722 -0.49295901 14.40234375 1.7890625 C16 4 16 4 15.8125 7.625 C15 11 15 11 14 13 C14.93446535 15.03144641 15.93224776 17.03533587 17 19 C14.6875 19.3125 14.6875 19.3125 12 19 C10.98133771 17.34467377 9.98189187 15.67739862 9 14 C6.40877257 13.11341534 6.40877257 13.11341534 4 13 C4 14.98 4 16.96 4 19 C2.68 19 1.36 19 0 19 C0 12.73 0 6.46 0 0 Z M4 4 C4 5.65 4 7.3 4 9 C6.31 9 8.62 9 11 9 C11 7.35 11 5.7 11 4 C8.69 4 6.38 4 4 4 Z " fill="#FFFFFF" transform="translate(1906,272)"/>
</svg>
