<?xml version="1.0" encoding="UTF-8"?>
<svg version="1.1" xmlns="http://www.w3.org/2000/svg" width="2999" height="640">
<path d="M0 0 C1.08043579 0.00215515 2.16087158 0.0043103 3.27404785 0.00653076 C19.34952167 0.05794993 35.07743993 0.45568711 50.9375 3.3125 C52.06849121 3.51117676 53.19948242 3.70985352 54.36474609 3.91455078 C112.44258176 14.38503162 166.65066941 39.05029663 210.9375 78.3125 C211.89398437 79.158125 212.85046875 80.00375 213.8359375 80.875 C226.04888775 91.87647797 237.82349058 103.33195315 247.9375 116.3125 C248.8629593 117.43990834 249.79154542 118.56475466 250.72265625 119.6875 C265.93490075 138.13538841 278.66796761 158.62745551 288.93554688 180.21386719 C289.60797017 181.62228596 290.28909758 183.02657951 290.97851562 184.42675781 C303.02037322 208.93975312 310.96738828 235.51575966 315.9375 262.3125 C316.10185547 263.1802002 316.26621094 264.04790039 316.43554688 264.94189453 C320.24184721 285.58658145 321.83874287 307.34078799 320.9375 328.3125 C320.89641113 329.31587402 320.85532227 330.31924805 320.81298828 331.35302734 C317.99982521 393.52123493 298.84202566 454.81609776 261.9375 505.3125 C261.54079102 505.85938477 261.14408203 506.40626953 260.73535156 506.96972656 C244.17527964 529.72073904 224.46202456 552.28855485 201.9375 569.3125 C201.01066406 570.05628906 200.08382812 570.80007813 199.12890625 571.56640625 C184.41755734 583.24178252 168.57135558 593.59386014 151.9375 602.3125 C150.97432861 602.81789307 150.97432861 602.81789307 149.99169922 603.33349609 C146.0120877 605.40392287 142.00156797 607.40034484 137.95751953 609.34179688 C136.64031975 609.97476598 135.32601878 610.61381409 134.01513672 611.25976562 C110.18516839 622.93602705 83.94821015 630.48817683 57.9375 635.3125 C57.0697998 635.47685547 56.20209961 635.64121094 55.30810547 635.81054688 C-7.60300924 647.40958919 -77.14960384 638.54058245 -134.72802734 610.45117188 C-137.13885366 609.27525743 -139.56279522 608.1297037 -141.98828125 606.984375 C-166.79285283 595.10374288 -189.49912158 579.54283021 -210.0625 561.3125 C-211.01898438 560.466875 -211.97546875 559.62125 -212.9609375 558.75 C-225.17388775 547.74852203 -236.94849058 536.29304685 -247.0625 523.3125 C-247.9879593 522.18509166 -248.91654542 521.06024534 -249.84765625 519.9375 C-283.70960906 478.87746351 -305.56880376 428.50331892 -315.0625 376.3125 C-315.26004883 375.24966797 -315.45759766 374.18683594 -315.66113281 373.09179688 C-321.59044917 339.72847507 -322.12721871 302.67926348 -316.0625 269.3125 C-315.75650879 267.59426025 -315.75650879 267.59426025 -315.44433594 265.84130859 C-303.7058206 201.56994696 -274.44199297 143.38895126 -229.0625 96.3125 C-228.50030762 95.72839355 -227.93811523 95.14428711 -227.35888672 94.54248047 C-220.85597543 87.82418155 -214.29538145 81.37101108 -206.92504883 75.59277344 C-204.07694616 73.32400765 -201.31442561 70.97541568 -198.546875 68.609375 C-192.32377822 63.37312021 -185.7330398 58.77802618 -178.9375 54.3125 C-178.34956665 53.92375702 -177.7616333 53.53501404 -177.15588379 53.13449097 C-167.38564917 46.68319944 -157.50829023 40.61404317 -147.0625 35.3125 C-145.79720459 34.6625708 -145.79720459 34.6625708 -144.50634766 33.99951172 C-99.41920114 11.02874568 -50.4774168 -0.18151758 0 0 Z " fill="#000000" transform="translate(319.0625,-0.31250000000000006)"/>
<path d="M0 0 C3.5540465 3.06165069 6.92283483 6.29427892 10.27783203 9.57324219 C11.18791016 10.42144531 12.09798828 11.26964844 13.03564453 12.14355469 C30.28640599 28.60795665 43.57838279 50.04459729 51.27783203 72.57324219 C51.53258301 73.29157227 51.78733398 74.00990234 52.04980469 74.75 C66.76187809 116.51845433 63.20759009 162.77219816 44.25927734 202.58349609 C25.39725637 240.82366299 -7.49209002 272.32527303 -48.10205078 286.39794922 C-52.27384667 287.80733972 -56.4614788 289.16783672 -60.66748047 290.47167969 C-61.35342285 290.6848584 -62.03936523 290.89803711 -62.74609375 291.11767578 C-64.72216797 291.57324219 -64.72216797 291.57324219 -68.72216797 291.57324219 C-68.69598389 292.3219458 -68.6697998 293.07064941 -68.64282227 293.84204102 C-68.16572152 309.61535399 -68.50472312 323.62153595 -73.72216797 338.57324219 C-74.26357422 340.29800781 -74.26357422 340.29800781 -74.81591797 342.05761719 C-82.7809777 365.38386354 -101.59692295 385.36456776 -123.15966797 396.82714844 C-128.87033394 399.62612616 -134.65007254 401.70643823 -140.72216797 403.57324219 C-141.83849609 403.96640625 -142.95482422 404.35957031 -144.10498047 404.76464844 C-162.34150461 410.41678929 -184.75348059 410.0224523 -202.72216797 403.57324219 C-203.80369141 403.22261719 -204.88521484 402.87199219 -205.99951172 402.51074219 C-232.83259604 393.14355639 -253.40575721 373.98697073 -265.72216797 348.57324219 C-271.76593216 335.14667622 -274.87304871 319.94559743 -274.86933899 305.26931763 C-274.87301568 304.47228357 -274.87669237 303.67524952 -274.88048047 302.85406291 C-274.89142658 300.20332037 -274.89534576 297.55261714 -274.89916992 294.90185547 C-274.90544199 292.99214557 -274.91208944 291.08243688 -274.91908264 289.17272949 C-274.94005681 282.91301308 -274.95048658 276.65329665 -274.96044922 270.39355469 C-274.96450083 268.22723249 -274.96861787 266.06091042 -274.9727993 263.89458847 C-274.99184528 253.70172681 -275.00607123 243.50887231 -275.01441127 233.31599629 C-275.02414768 221.61392585 -275.05037517 209.91204637 -275.09091216 198.21004307 C-275.12127566 189.12759576 -275.13589958 180.0452025 -275.13919228 170.96270549 C-275.14152199 165.55721533 -275.15020522 160.15192923 -275.17565346 154.74649429 C-275.42687584 98.3705383 -265.20972322 51.10146402 -224.72216797 9.57324219 C-211.67337862 -3.35886648 -196.96409839 -13.00878335 -180.72216797 -21.42675781 C-179.79404297 -21.91789062 -178.86591797 -22.40902344 -177.90966797 -22.91503906 C-121.43906574 -50.69785138 -47.93379917 -39.71152854 0 0 Z " fill="#FDFDFD" transform="translate(426.72216796875,134.4267578125)"/>
<path d="M0 0 C3.28435492 2.70490121 6.47691228 5.50011612 9.65234375 8.33203125 C10.74675781 9.29882812 10.74675781 9.29882812 11.86328125 10.28515625 C32.04089744 29.22740818 47.42701628 60.09758901 48.8293457 87.83276367 C49.48380174 129.00091633 40.56431281 161.64568142 11.65234375 192.33203125 C11.04132813 193.0075 10.4303125 193.68296875 9.80078125 194.37890625 C-3.18938137 208.19822819 -21.47929272 218.35326322 -39.34765625 224.33203125 C-40.33765625 224.33203125 -41.32765625 224.33203125 -42.34765625 224.33203125 C-42.35312469 222.39883026 -42.35312469 222.39883026 -42.35870361 220.42657471 C-42.39574114 208.24519496 -42.45360954 196.06406596 -42.53155899 183.88287735 C-42.57096695 177.62128951 -42.60318833 171.35984091 -42.61865234 165.09814453 C-42.63386271 159.04846798 -42.66838649 152.99917439 -42.71596527 146.94966888 C-42.73073386 144.64860117 -42.73869465 142.34747878 -42.7395401 140.04636383 C-42.5510411 123.24193816 -42.5510411 123.24193816 -47.34765625 107.33203125 C-47.86585938 106.13449219 -48.3840625 104.93695313 -48.91796875 103.703125 C-57.55754148 87.40081566 -69.87625241 77.17772652 -87.34765625 71.33203125 C-104.00715701 66.58244992 -122.0388117 67.88149243 -137.3515625 75.90625 C-152.95165134 85.21423069 -162.53069427 97.86707004 -168.47265625 114.78515625 C-170.48432601 122.93960332 -170.51496224 131.32375905 -170.55078125 139.68359375 C-170.55933136 141.27015274 -170.55933136 141.27015274 -170.5680542 142.88876343 C-170.57744576 145.1157737 -170.58401473 147.34279751 -170.58789062 149.56982422 C-170.5975697 152.92701243 -170.62863933 156.28358058 -170.66015625 159.640625 C-170.79070491 186.27711673 -165.44455609 211.78533275 -147.34765625 232.33203125 C-146.69539063 233.12609375 -146.043125 233.92015625 -145.37109375 234.73828125 C-130.91080463 251.77513098 -107.80434009 265.02432279 -85.28515625 267.14453125 C-83.98578125 267.20640625 -82.68640625 267.26828125 -81.34765625 267.33203125 C-78.68847829 269.99120921 -79.97501453 277.27796228 -79.96264648 280.83935547 C-80.24207264 298.77398365 -88.80231895 312.93528509 -101.34765625 325.33203125 C-113.95577162 336.86468124 -131.02457549 343.28676539 -148.1328125 342.65234375 C-167.62300051 340.71042951 -183.973058 332.83840637 -196.57421875 317.73828125 C-205.81921411 305.19441089 -210.49870798 292.65212993 -210.49482727 277.07002258 C-210.5003423 275.86327772 -210.5003423 275.86327772 -210.50596875 274.63215417 C-210.51693521 271.95048223 -210.52083749 269.26884913 -210.5246582 266.5871582 C-210.5309285 264.65800862 -210.5375758 262.72886023 -210.54457092 260.79971313 C-210.56555793 254.47325472 -210.57597283 248.14679623 -210.5859375 241.8203125 C-210.58998798 239.63435542 -210.59410498 237.44839846 -210.59828758 235.26244164 C-210.61733267 224.98309128 -210.63156144 214.70374805 -210.63989955 204.42438346 C-210.64964982 192.60225295 -210.67591439 180.78031077 -210.71640044 168.95824653 C-210.74669335 159.79438514 -210.76138111 150.63057731 -210.76468056 141.46666688 C-210.7670173 136.0065808 -210.77579589 130.54669605 -210.80114174 125.0866642 C-210.82465713 119.93768548 -210.82856278 114.78903725 -210.81838036 109.64001846 C-210.81789043 107.76654769 -210.82404715 105.89305932 -210.8379364 104.01963997 C-211.08915426 68.07661417 -198.34651696 36.21985863 -173.59765625 10.08203125 C-126.04477368 -35.08551255 -52.16878387 -42.085113 0 0 Z " fill="#000000" transform="translate(400.34765625,161.66796875)"/>
<path d="M0 0 C0.79535156 0.65226562 1.59070312 1.30453125 2.41015625 1.9765625 C13.11269761 11.03386374 21.22347477 21.86960484 27.8125 34.1875 C28.25142578 35.00138184 28.69035156 35.81526367 29.14257812 36.65380859 C29.53509766 37.42160645 29.92761719 38.1894043 30.33203125 38.98046875 C30.85373901 39.99983521 30.85373901 39.99983521 31.38598633 41.03979492 C32.16073842 43.51314863 31.972167 44.60581016 31 47 C29.12236023 48.08843994 29.12236023 48.08843994 26.63549805 48.92285156 C25.707509 49.24288147 24.77951996 49.56291138 23.82341003 49.89263916 C22.81305191 50.22197449 21.80269379 50.55130981 20.76171875 50.890625 C19.21325005 51.41484039 19.21325005 51.41484039 17.63349915 51.949646 C15.44614968 52.68668733 13.25612344 53.41582421 11.0637207 54.13769531 C7.70635085 55.24378954 4.3577009 56.3735205 1.00976562 57.5078125 C-1.11411266 58.22015488 -3.23844748 58.9311378 -5.36328125 59.640625 C-6.36756668 59.97805725 -7.37185211 60.3154895 -8.40657043 60.66314697 C-9.34401596 60.97056824 -10.28146149 61.2779895 -11.24731445 61.59472656 C-12.07036575 61.86690002 -12.89341705 62.13907349 -13.7414093 62.41949463 C-16 63 -16 63 -20 63 C-21.60546875 60.7265625 -21.60546875 60.7265625 -23.1875 57.625 C-26.71553771 51.21862745 -30.85252134 46.16602814 -36 41 C-36.54011719 40.43667969 -37.08023437 39.87335938 -37.63671875 39.29296875 C-44.52903425 32.71315119 -55.51429349 27.19855497 -65 26 C-66.53527344 25.80277344 -66.53527344 25.80277344 -68.1015625 25.6015625 C-86.22175085 23.79356145 -103.24125163 27.99007624 -117.48632812 39.63867188 C-128.53461338 49.57500068 -134.93212744 63.67590436 -138 78 C-138.18433594 78.84691406 -138.36867188 79.69382812 -138.55859375 80.56640625 C-141.7762181 105.59553725 -137.36309895 128.27234051 -122.0625 148.5703125 C-112.15854848 160.23746751 -97.89262503 166.02528729 -83 168 C-66.50369827 169.32411786 -51.51409561 165.58464521 -38.3125 155.375 C-30.42359445 148.03557045 -24.19390071 138.35324397 -19 129 C-12.5022464 130.34714521 -6.26841939 132.07567927 0.03125 134.15234375 C0.94837769 134.45314346 1.86550537 134.75394318 2.8104248 135.06385803 C4.73054331 135.69596906 6.64984746 136.33055876 8.56835938 136.9675293 C11.51577122 137.94271811 14.46860206 138.90015241 17.421875 139.85742188 C19.29202436 140.47548124 21.16182918 141.0945843 23.03125 141.71484375 C24.35920593 142.14155617 24.35920593 142.14155617 25.71398926 142.57688904 C26.52573608 142.85049759 27.33748291 143.12410614 28.17382812 143.40600586 C28.89058716 143.64202011 29.60734619 143.87803436 30.3458252 144.12120056 C32 145 32 145 33 148 C31.92633019 150.60066686 30.79827334 153.01464336 29.5 155.5 C29.12979736 156.21833008 28.75959473 156.93666016 28.37817383 157.67675781 C22.52047588 168.89282542 15.73011704 177.93008798 7 187 C6.42765625 187.64710938 5.8553125 188.29421875 5.265625 188.9609375 C-8.18433924 203.72816628 -29.04448132 212.29459375 -48 217 C-48.91652344 217.23460937 -49.83304688 217.46921875 -50.77734375 217.7109375 C-80.72192962 224.23914105 -116.42397423 219.21458224 -142.375 202.625 C-169.71340664 184.47535705 -188.22037565 158.30606012 -194.75 126.0625 C-201.3824449 91.24216427 -196.95715435 53.50360749 -176.80859375 23.765625 C-157.43033274 -2.79101791 -130.35362021 -20.53502598 -97.69921875 -25.66015625 C-63.28076863 -29.99359353 -26.64604669 -23.45571058 0 0 Z " fill="#000000" transform="translate(1458,83)"/>
<path d="M0 0 C51.15 0 102.3 0 155 0 C155 16.83 155 33.66 155 51 C122 51 89 51 55 51 C55 64.86 55 78.72 55 93 C82.72 93 110.44 93 139 93 C139 109.17 139 125.34 139 142 C111.28 142 83.56 142 55 142 C55 156.52 55 171.04 55 186 C88.66 186 122.32 186 157 186 C157 202.83 157 219.66 157 237 C105.19 237 53.38 237 0 237 C0 158.79 0 80.58 0 0 Z " fill="#000000" transform="translate(1520,61)"/>
<path d="M0 0 C51.15 0 102.3 0 155 0 C155 16.83 155 33.66 155 51 C122 51 89 51 55 51 C55 64.86 55 78.72 55 93 C82.72 93 110.44 93 139 93 C139 109.17 139 125.34 139 142 C111.28 142 83.56 142 55 142 C55 156.52 55 171.04 55 186 C88.66 186 122.32 186 157 186 C157 202.83 157 219.66 157 237 C105.19 237 53.38 237 0 237 C0 158.79 0 80.58 0 0 Z " fill="#000000" transform="translate(1075,61)"/>
<path d="M0 0 C2.15432984 -0.00669983 4.30864564 -0.02075528 6.46289062 -0.04101562 C35.92744702 -0.3156234 62.68251721 4.62485303 84.5390625 25.74072266 C99.63563071 41.0769982 106.27548042 62.30255069 106.26391602 83.40527344 C105.94169828 105.09354056 97.71413555 124.35320236 83.01513672 140.24023438 C60.0639338 162.43717241 30.79117796 164.61695104 0.45263672 164.36523438 C-6.62173828 164.32398438 -13.69611328 164.28273437 -20.98486328 164.24023438 C-20.98486328 188.66023438 -20.98486328 213.08023438 -20.98486328 238.24023438 C-39.46486328 238.24023438 -57.94486328 238.24023438 -76.98486328 238.24023438 C-76.98486328 160.03023437 -76.98486328 81.82023437 -76.98486328 1.24023438 C-15.17872833 0.02834938 -15.17872833 0.02834938 0 0 Z M-20.98486328 51.24023438 C-20.98486328 71.70023438 -20.98486328 92.16023438 -20.98486328 113.24023438 C-11.14673828 113.30210937 -11.14673828 113.30210937 -1.10986328 113.36523438 C0.93958496 113.38344238 2.9890332 113.40165039 5.10058594 113.42041016 C6.75699605 113.42626096 8.41340908 113.43135512 10.06982422 113.43554688 C11.32098022 113.45089478 11.32098022 113.45089478 12.59741211 113.46655273 C22.3221635 113.46938052 32.39937423 112.20139879 39.92529297 105.55273438 C46.27080101 98.87041593 49.19510036 91.88465931 49.45263672 82.67773438 C49.15119954 74.12696639 47.046759 66.5282006 41.01513672 60.24023438 C28.83174516 49.80083636 14.43217029 50.85558977 -0.67236328 51.05273438 C-7.37548828 51.11460938 -14.07861328 51.17648438 -20.98486328 51.24023438 Z " fill="#000000" transform="translate(842.98486328125,59.759765625)"/>
<path d="M0 0 C6.6611533 6.4796688 11.52503451 13.25249615 15.94360352 21.45996094 C16.39606445 22.26949219 16.84852539 23.07902344 17.31469727 23.91308594 C19.18544351 27.40859795 19.94360352 29.42177477 19.94360352 33.45996094 C12.91927329 35.63063677 5.88961434 37.78332531 -1.14404297 39.92358398 C-3.53626004 40.65382265 -5.92722595 41.38817321 -8.31689453 42.12670898 C-11.75159354 43.18743534 -15.1905176 44.23330263 -18.63061523 45.27636719 C-20.23243904 45.77626915 -20.23243904 45.77626915 -21.86662292 46.28627014 C-22.86728287 46.58665695 -23.86794281 46.88704376 -24.89892578 47.1965332 C-26.21463814 47.5995742 -26.21463814 47.5995742 -27.55693054 48.01075745 C-30.44344183 48.52952065 -32.28738761 48.4288623 -35.05639648 47.45996094 C-36.02051866 45.56496217 -36.9738365 43.6627156 -37.84155273 41.72167969 C-41.99160485 33.99537688 -49.15392108 29.34834031 -57.29077148 26.74511719 C-66.99387296 24.31934182 -77.79865679 25.01730279 -86.93139648 29.16308594 C-91.47179587 31.93406498 -94.12361449 35.55199777 -96.43139648 40.27246094 C-97.81981337 47.35338707 -97.76967619 53.19147755 -94.41967773 59.67089844 C-85.44882019 71.44354244 -65.39649672 73.32125075 -51.97583008 76.50683594 C-26.32532281 82.63126731 -3.50469015 92.02387896 10.94360352 115.45996094 C17.5989783 127.13030122 20.50633976 137.77887115 20.38110352 151.20996094 C20.36974365 152.92131226 20.36974365 152.92131226 20.3581543 154.66723633 C20.01045299 172.53324602 14.18539143 187.29509386 1.94360352 200.45996094 C-17.17927523 218.83823201 -43.67116777 223.71972767 -69.33374023 223.45605469 C-85.78795626 223.00424771 -100.92115781 219.97351901 -116.05639648 213.45996094 C-117.25264648 212.945625 -118.44889648 212.43128906 -119.68139648 211.90136719 C-136.69540863 203.98301555 -152.10491778 191.2830965 -159.05639648 173.45996094 C-159.7743329 170.80480079 -160.40687188 168.13310336 -161.05639648 165.45996094 C-153.72809263 163.29148084 -146.39536283 161.13851083 -139.05932617 158.99633789 C-136.5634836 158.26554246 -134.06868161 157.5311835 -131.57495117 156.79321289 C-127.9933102 155.73396466 -124.40814024 154.68752761 -120.82202148 153.64355469 C-119.7052301 153.31028671 -118.58843872 152.97701874 -117.43780518 152.63365173 C-116.3970282 152.33326492 -115.35625122 152.03287811 -114.28393555 151.72338867 C-113.36904358 151.45469467 -112.45415161 151.18600067 -111.51153564 150.90916443 C-108.92494004 150.43590907 -107.48527202 150.48809485 -105.05639648 151.45996094 C-103.66967773 153.46386719 -103.66967773 153.46386719 -102.36889648 156.02246094 C-97.55979855 164.42635958 -91.295504 169.85828609 -82.00952148 172.77636719 C-70.30512848 175.48571742 -58.53856895 175.29096115 -48.06811523 168.95605469 C-43.91806771 165.86970866 -40.69912623 162.38815017 -39.05639648 157.45996094 C-38.18396649 150.10504479 -38.47030747 144.38228342 -43.11889648 138.42089844 C-52.37304228 129.05480733 -66.21029844 126.67856592 -78.52514648 123.54589844 C-79.19520218 123.37498688 -79.86525787 123.20407532 -80.55561829 123.02798462 C-83.93433625 122.16783247 -87.31512854 121.3186171 -90.70166016 120.48974609 C-113.67046986 114.74355527 -133.25306842 104.76105914 -146.74389648 84.64746094 C-156.55907039 68.08435497 -157.11479075 47.61045029 -153.02514648 29.21386719 C-150.35264685 18.85793112 -145.82437463 10.71007383 -139.05639648 2.45996094 C-138.27522461 1.50669922 -138.27522461 1.50669922 -137.47827148 0.53417969 C-122.18316243 -16.26726586 -97.83556283 -22.3048502 -76.00170898 -23.47363281 C-48.17119828 -23.94206715 -21.08068032 -19.7191757 0 0 Z " fill="#000000" transform="translate(1868.056396484375,79.5400390625)"/>
<path d="M0 0 C3.63265277 3.04982202 6.99835087 6.32228846 10.33349609 9.69238281 C11.31576172 10.64177734 11.31576172 10.64177734 12.31787109 11.61035156 C28.41003786 28.3299652 33.72083812 52.59989032 33.63623047 75.03149414 C33.13735025 99.50203061 24.03034027 121.372791 7.02880859 139.09472656 C-10.75047253 156.14534863 -34.20943728 162.21678476 -58.24658203 162.11621094 C-81.87440647 161.58861317 -102.73753783 153.34652801 -119.66650391 136.69238281 C-120.43994141 135.93183594 -121.21337891 135.17128906 -122.01025391 134.38769531 C-132.15463763 123.79167807 -137.76401928 111.65249043 -141.66650391 97.69238281 C-142.01841797 96.45488281 -142.01841797 96.45488281 -142.37744141 95.19238281 C-148.3632624 70.20808649 -143.86036734 43.19775036 -130.71484375 21.34521484 C-128.05130489 17.14583011 -124.98831569 13.38182595 -121.66650391 9.69238281 C-121.07611328 9.00917969 -120.48572266 8.32597656 -119.87744141 7.62207031 C-90.8048765 -23.92475543 -33.13848025 -26.00200706 0 0 Z M-95.41259766 31.97363281 C-107.67958667 46.77055543 -110.3756685 64.05295259 -108.66650391 82.69238281 C-106.52148001 97.90801964 -99.13774771 111.167285 -87.10009766 120.73144531 C-73.1454726 130.27827759 -57.17038406 131.81615743 -40.77978516 129.03222656 C-27.53677663 125.41194849 -16.90163683 116.37315633 -9.85400391 104.75488281 C-1.65210126 89.82369186 0.28598018 72.66372287 -3.49072266 56.07128906 C-7.6286471 41.92383986 -14.79266679 29.27734557 -27.93994141 21.84082031 C-51.10868624 9.66440955 -76.94918307 12.29512994 -95.41259766 31.97363281 Z " fill="#A0A0A0" transform="translate(2279.66650390625,441.3076171875)"/>
<path d="M0 0 C24.04498559 -0.68102498 45.5860074 5.68039385 64.3125 21.15625 C65.11300781 21.75695312 65.91351562 22.35765625 66.73828125 22.9765625 C82.33751894 36.18502173 90.38661086 56.42361542 93.3125 76.15625 C94.87767946 104.53579938 90.6252172 130.20998046 71.3125 152.15625 C57.26661905 167.78795621 38.09286909 176.87600246 17.3125 179.15625 C-9.43752263 180.46639228 -34.0581071 176.48610169 -55.05859375 158.5625 C-71.70350667 143.32733453 -82.33428407 122.65541802 -83.90332031 100.04638672 C-84.43169561 87.20002475 -84.32009073 74.56882723 -80.6875 62.15625 C-80.35878906 61.00640625 -80.03007813 59.8565625 -79.69140625 58.671875 C-72.54075431 36.40340875 -57.65951048 19.65168454 -37 8.90625 C-25.34151694 3.10070457 -12.95458765 0.54892321 0 0 Z M-34.7734375 48.734375 C-41.211222 56.88014314 -45.75283738 65.92332373 -47.6875 76.15625 C-47.86925781 77.105 -48.05101562 78.05375 -48.23828125 79.03125 C-50.7494456 96.50021937 -47.06447953 114.53752528 -36.45166016 128.81933594 C-28.69205088 138.23302189 -17.80238442 145.15412969 -5.6875 147.15625 C11.2327679 148.62908354 25.60158496 146.85694911 39.3125 136.15625 C51.58166396 125.18270976 57.45125172 110.40781008 58.58984375 94.2109375 C59.19018181 77.42580976 55.07584312 61.67650629 44 48.71875 C33.99410315 38.40810503 22.03468708 32.24696731 7.53955078 31.86352539 C-8.96595306 31.71273069 -23.22942127 36.47776517 -34.7734375 48.734375 Z " fill="#A0A0A0" transform="translate(979.6875,423.84375)"/>
<path d="M0 0 C96.77902294 0 96.77902294 0 123.3125 25.75 C129.02191507 31.53072488 133.16528715 37.82220416 137 45 C137.48082031 45.88042969 137.96164062 46.76085937 138.45703125 47.66796875 C148.12997544 66.98463373 149.56983027 92.53310856 143.39453125 113.140625 C135.52624955 136.15197012 120.3544375 153.01865777 99.19140625 164.52734375 C69.02786855 179.27296619 30.92367133 173 0 173 C0 115.91 0 58.82 0 0 Z M35 32 C35 67.97 35 103.94 35 141 C68.67464268 141.43853117 68.67464268 141.43853117 95.9375 125.18359375 C107.22456168 113.23384474 111.50760542 99.06671431 111.20703125 82.875 C110.5067676 69.76817849 104.84843326 55.9590373 95 47 C76.61166771 31.51666483 59.52338663 32 35 32 Z " fill="#A1A1A1" transform="translate(1339,427)"/>
<path d="M0 0 C93.93123772 0 93.93123772 0 113.12109375 17.98828125 C124.00883165 29.24649039 127.39597494 42.98150359 127.37109375 58.12792969 C126.98168841 73.81447469 120.07171019 86.84466226 108.90234375 97.5390625 C104.89475922 100.93714898 100.66515469 103.60164499 96 106 C97.44617525 109.90364308 99.2757563 113.36799542 101.38671875 116.953125 C101.72079742 117.5223317 102.0548761 118.09153839 102.39907837 118.67799377 C103.49178259 120.53737593 104.58957353 122.39369754 105.6875 124.25 C106.44902839 125.54373649 107.21033764 126.837602 107.97143555 128.1315918 C111.72416289 134.50307886 115.50477007 140.85733802 119.3203125 147.19140625 C119.99360596 148.3093457 120.66689941 149.42728516 121.3605957 150.57910156 C122.6292701 152.68070553 123.90107221 154.78042569 125.17651367 156.87792969 C125.75377197 157.8321582 126.33103027 158.78638672 126.92578125 159.76953125 C127.42505127 160.59042236 127.92432129 161.41131348 128.4387207 162.25708008 C130.43756672 165.76873528 132.22337416 169.3719873 134 173 C128.59285939 173.32303689 123.19138962 173.5579136 117.77685547 173.71411133 C115.93894633 173.77923155 114.10170441 173.86777109 112.26611328 173.98071289 C100.22055939 174.70292326 100.22055939 174.70292326 95 173 C90.88167551 169.27875316 89.1229052 165.05748952 87 160 C85.81611459 157.91000425 84.60295689 155.83628552 83.359375 153.78125 C82.7710791 152.75636475 82.1827832 151.73147949 81.57666016 150.67553711 C80.31885838 148.48892555 79.04683188 146.31045521 77.76318359 144.13891602 C74.09511621 137.89016182 70.8323283 131.72153253 68.17529297 124.97436523 C65.97785808 120.66981522 62.87803212 116.88262823 60 113 C51.75 112.67 43.5 112.34 35 112 C35 132.13 35 152.26 35 173 C23.45 173 11.9 173 0 173 C0 115.91 0 58.82 0 0 Z M35 32 C35 47.84 35 63.68 35 80 C40.919375 80.0825 46.83875 80.165 52.9375 80.25 C55.71208618 80.30462402 55.71208618 80.30462402 58.54272461 80.36035156 C68.3940352 80.47369496 75.98600842 80.23403734 83.8125 73.625 C90.30145685 65.83825177 91.87837207 60.00580353 91 50 C89.25066674 43.38150348 84.5721322 38.74956085 79 35 C73.52099516 32.20603603 69.32556985 31.58428353 63.22265625 31.70703125 C62.14220032 31.71156311 62.14220032 31.71156311 61.03991699 31.71618652 C58.38062967 31.73173791 55.72154857 31.77362066 53.0625 31.8125 C47.101875 31.874375 41.14125 31.93625 35 32 Z " fill="#A0A0A0" transform="translate(1107,427)"/>
<path d="M0 0 C84.29787234 0 84.29787234 0 97.125 6.625 C97.80167725 6.97199951 98.47835449 7.31899902 99.17553711 7.67651367 C112.39302652 14.73372298 120.3893222 25.35800859 125.2734375 39.39453125 C129.1745712 53.38408058 127.88734953 68.69075024 121.375 81.625 C115.8681866 91.07109328 107.8661205 100.30259552 97.5 104.375 C96.2625 104.684375 96.2625 104.684375 95 105 C98.49505727 112.29342921 102.41877496 119.22119999 106.625 126.125 C107.94211192 128.30426116 109.25847841 130.48397297 110.57421875 132.6640625 C110.92100174 133.2378363 111.26778473 133.81161011 111.62507629 134.402771 C115.82704264 141.35880277 119.98871306 148.3387963 124.14251709 155.32366943 C125.00587999 156.77462532 125.87017894 158.22502463 126.7354126 159.67486572 C127.94938796 161.70909629 129.16059474 163.74494941 130.37109375 165.78125 C130.73910599 166.39672699 131.10711823 167.01220398 131.48628235 167.64633179 C134 171.88579169 134 171.88579169 134 173 C128.55593682 173.22311734 123.11455123 173.38606904 117.66699219 173.49438477 C115.81593464 173.53954435 113.9651964 173.60089139 112.11523438 173.67895508 C96.88660368 174.30529392 96.88660368 174.30529392 92.65625 171.37841797 C91.02810982 168.99274035 90.04223211 166.69175096 89 164 C87.92306684 162.07087183 86.82273987 160.15467401 85.703125 158.25 C84.54888959 156.16843441 83.39795393 154.08503632 82.25 152 C77.69590218 143.7928535 73.09237726 135.6275673 68.28417969 127.56640625 C65.41955763 122.75729806 62.72309881 117.90157786 60 113 C51.75 112.67 43.5 112.34 35 112 C35 132.13 35 152.26 35 173 C23.45 173 11.9 173 0 173 C0 115.91 0 58.82 0 0 Z M35 32 C35 47.84 35 63.68 35 80 C40.89875 80.103125 46.7975 80.20625 52.875 80.3125 C55.63593018 80.38078003 55.63593018 80.38078003 58.45263672 80.45043945 C68.773302 80.60044232 76.27311435 79.84582632 84.4375 72.9375 C84.953125 72.298125 85.46875 71.65875 86 71 C86.53625 70.360625 87.0725 69.72125 87.625 69.0625 C91.64269473 63.03595791 91.71505305 57.04052233 91 50 C89.2477289 43.43452853 84.62245052 38.62886921 79 35 C73.19323188 32.46042293 68.64280348 31.57574354 62.34375 31.70703125 C61.29429199 31.71156311 61.29429199 31.71156311 60.22363281 31.71618652 C57.64893511 31.73169843 55.07445026 31.77358015 52.5 31.8125 C43.8375 31.9053125 43.8375 31.9053125 35 32 Z " fill="#A0A0A0" transform="translate(2655,427)"/>
<path d="M0 0 C18.48 0 36.96 0 56 0 C56 78.21 56 156.42 56 237 C37.52 237 19.04 237 0 237 C0 158.79 0 80.58 0 0 Z " fill="#000000" transform="translate(974,61)"/>
<path d="M0 0 C36.3 0 72.6 0 110 0 C110 10.56 110 21.12 110 32 C85.25 32 60.5 32 35 32 C35 44.54 35 57.08 35 70 C56.45 70 77.9 70 100 70 C100 80.23 100 90.46 100 101 C78.55 101 57.1 101 35 101 C35 114.53 35 128.06 35 142 C60.08 142 85.16 142 111 142 C111 152.23 111 162.46 111 173 C74.37 173 37.74 173 0 173 C0 115.91 0 58.82 0 0 Z " fill="#A1A1A1" transform="translate(1519,427)"/>
<path d="M0 0 C6.64832065 5.95895172 11.72364482 13.7036023 15 22 C14.96582031 24.03271484 14.96582031 24.03271484 14 26 C11.2878418 27.29614258 11.2878418 27.29614258 7.69921875 28.39453125 C7.06643509 28.59100754 6.43365143 28.78748383 5.7816925 28.98991394 C4.44162711 29.40196015 3.0990011 29.80575544 1.75415039 30.2019043 C-0.30027641 30.80888852 -2.34428946 31.44408307 -4.38867188 32.08398438 C-15.56818073 35.48790761 -15.56818073 35.48790761 -19 34 C-20.421875 32.14453125 -20.421875 32.14453125 -21.75 29.8125 C-26.35642362 22.56889886 -32.04982602 18.60758687 -40.36328125 16.46875 C-49.15244113 14.90623269 -58.43945885 15.41654015 -66.109375 20.359375 C-70.57460402 23.93893876 -72.66276926 27.08648323 -73.3359375 32.90234375 C-73.39601445 37.57032245 -73.38532009 41.1169748 -71.5 45.4375 C-65.701086 51.38138685 -59.03071118 53.94161243 -51.125 56 C-50.20952393 56.25217285 -49.29404785 56.5043457 -48.35083008 56.76416016 C-43.97688362 57.96458437 -39.59075989 59.10765708 -35.19140625 60.2109375 C-17.35216252 64.76014544 -1.63781633 71.72741373 9 87.5625 C16.74839351 100.68657321 17.39784885 114.04200376 13.96484375 128.67578125 C10.86777803 139.34623846 3.43920759 148.54706001 -6 154.375 C-7.65380097 155.27408016 -9.32010434 156.15067476 -11 157 C-11.69480469 157.37769531 -12.38960937 157.75539063 -13.10546875 158.14453125 C-30.5122801 166.86426602 -55.67681089 166.74126592 -74 161 C-89.38567093 155.60824728 -103.94469361 147.06363216 -111.95703125 132.40625 C-113.26758395 129.38265276 -114.09468285 126.16861003 -115 123 C-104.11 119.7 -93.22 116.4 -82 113 C-79 116 -79 116 -77.3125 118.75 C-72.29076096 125.80757919 -66.15083666 130.52959797 -57.6796875 132.5546875 C-47.39839715 134.26324012 -36.89183911 133.46821607 -28.0625 127.625 C-23.8462469 124.27183871 -21.99829121 120.98425998 -21.0625 115.6875 C-20.60051042 109.77010152 -22.65963191 105.82711131 -26.37109375 101.34375 C-35.36583759 92.55088321 -50.20420963 90.49529719 -61.98242188 87.68359375 C-78.5133921 83.59600479 -94.00065814 76.7345479 -103.75 62.125 C-111.31413361 49.28587848 -111.37666553 34.57838718 -108.04296875 20.3984375 C-103.9787148 7.15536282 -96.03353112 -1.55236632 -84 -8 C-57.15655537 -20.49836058 -23.75725152 -17.86313889 0 0 Z " fill="#A0A0A0" transform="translate(2927,439)"/>
<path d="M0 0 C36.3 0 72.6 0 110 0 C110 10.56 110 21.12 110 32 C84.92 32 59.84 32 34 32 C34 44.54 34 57.08 34 70 C55.45 70 76.9 70 99 70 C99 80.23 99 90.46 99 101 C77.55 101 56.1 101 34 101 C34 114.53 34 128.06 34 142 C59.41 142 84.82 142 111 142 C111 152.23 111 162.46 111 173 C74.37 173 37.74 173 0 173 C0 115.91 0 58.82 0 0 Z " fill="#A1A1A1" transform="translate(1857,427)"/>
<path d="M0 0 C36.3 0 72.6 0 110 0 C110 10.23 110 20.46 110 31 C108.33834793 32.66165207 106.3348397 32.11959725 104.11598206 32.12442017 C103.41827194 32.12082489 102.72056183 32.11722961 102.00170898 32.11352539 C100.90421326 32.11374443 100.90421326 32.11374443 99.7845459 32.1139679 C97.35503216 32.11326867 94.92559417 32.10547585 92.49609375 32.09765625 C90.81600486 32.0957921 89.13591543 32.09436819 87.45582581 32.09336853 C83.02526357 32.08954307 78.5947339 32.07971256 74.16418457 32.06866455 C68.85284346 32.05665655 63.54149148 32.05204832 58.23014069 32.04621124 C50.15340444 32.03650081 42.07673973 32.01734447 34 32 C34 44.54 34 57.08 34 70 C55.45 70 76.9 70 99 70 C99 80.23 99 90.46 99 101 C77.55 101 56.1 101 34 101 C34 114.53 34 128.06 34 142 C59.41 142 84.82 142 111 142 C111 152.23 111 162.46 111 173 C74.37 173 37.74 173 0 173 C0 115.91 0 58.82 0 0 Z " fill="#A1A1A1" transform="translate(2503,427)"/>
<path d="M0 0 C93.37329399 0 93.37329399 0 110.93554688 16.67211914 C122.07412104 27.85426255 126.79995967 41.49860514 127.25 57.0625 C127.04459912 73.38253365 121.69011311 88.07943985 110.25 99.88671875 C93.90486672 115.23865817 76.06496731 116.46205811 54.6875 116.1875 C44.4471875 116.0946875 44.4471875 116.0946875 34 116 C34 134.81 34 153.62 34 173 C22.78 173 11.56 173 0 173 C0 115.91 0 58.82 0 0 Z M34 32 C34 49.16 34 66.32 34 84 C43.1575 84.0928125 43.1575 84.0928125 52.5 84.1875 C54.41103516 84.21481201 56.32207031 84.24212402 58.29101562 84.27026367 C59.82942068 84.27903694 61.36783278 84.28667888 62.90625 84.29296875 C63.68581055 84.30831665 64.46537109 84.32366455 65.26855469 84.33947754 C72.48347922 84.34287227 79.12185304 82.65878888 84.6171875 77.62890625 C90.13786021 71.12574094 92.38634407 63.43920327 92 55 C90.9217792 47.41875997 87.70244546 42.05975181 82 37 C75.922456 32.70337565 70.6910588 31.85598066 63.39453125 31.90234375 C62.65054077 31.90335083 61.90655029 31.90435791 61.14001465 31.90539551 C58.36416073 31.91062257 55.58832879 31.92458385 52.8125 31.9375 C46.604375 31.958125 40.39625 31.97875 34 32 Z " fill="#A1A1A1" transform="translate(2347,427)"/>
<path d="M0 0 C12.21 0 24.42 0 37 0 C40.09567627 7.42962304 43.13731963 14.82835426 45.9765625 22.3515625 C46.33980621 23.30912445 46.70304993 24.2666864 47.07730103 25.25326538 C48.26164217 28.37650754 49.4432955 31.50075941 50.625 34.625 C51.45909641 36.82560176 52.29341021 39.02612114 53.12792969 41.2265625 C54.86839635 45.81639759 56.60792242 50.40658739 58.34667969 54.99707031 C62.23467184 65.26049694 66.13018604 75.5210651 70.02752686 85.78094482 C71.21650302 88.91179468 72.40445675 92.04303096 73.59228516 95.17431641 C78.00692931 106.80446187 82.4692466 118.41457791 87 130 C88.80433806 127.29349291 89.83849646 125.06559635 90.97680664 122.04931641 C91.36286072 121.03194397 91.74891479 120.01457153 92.14666748 118.96636963 C92.56361877 117.85598328 92.98057007 116.74559692 93.41015625 115.6015625 C93.8497467 114.43993591 94.28933716 113.27830933 94.74224854 112.08148193 C95.93753237 108.92077145 97.12947179 105.75883837 98.31991959 102.59630585 C99.56174207 99.29967711 100.80780422 96.00465184 102.0534668 92.70947266 C104.07369388 87.36379987 106.09150469 82.0172214 108.10742188 76.66992188 C110.70762404 69.77299182 113.31353798 62.87823301 115.921875 55.984375 C122.9770834 37.33380444 130.01237775 18.67600857 137 0 C149.21 0 161.42 0 174 0 C171.75018371 10.12417331 171.75018371 10.12417331 169.84643555 14.83007812 C169.41856247 15.89786499 168.99068939 16.96565186 168.54985046 18.0657959 C168.083517 19.20939575 167.61718353 20.35299561 167.13671875 21.53125 C166.63536393 22.77565879 166.13467656 24.02033666 165.63459778 25.26525879 C164.55797485 27.94193636 163.47719325 30.61688036 162.39306641 33.29052734 C160.66125144 37.56195162 158.93898021 41.83718035 157.21875 46.11328125 C156.92515909 46.84301147 156.63156818 47.5727417 156.32908058 48.32458496 C155.72684755 49.82146305 155.12463741 51.31835034 154.52244949 52.81524658 C153.59630563 55.11651843 152.66926138 57.41742588 151.74203491 59.71826172 C144.91312705 76.66918407 138.17266228 93.65510041 131.43509293 110.64248657 C129.9150651 114.47471106 128.39446654 118.30670901 126.8737793 122.13867188 C126.58253331 122.87258904 126.29128733 123.6065062 125.99121571 124.36266327 C123.77150403 129.95569978 121.55038317 135.5481756 119.3279829 141.14014435 C118.03844387 144.38505574 116.74982506 147.63032589 115.46337891 150.87646484 C114.05128637 154.43958497 112.63521548 158.00111584 111.21875 161.5625 C110.59353455 163.14297119 110.59353455 163.14297119 109.95568848 164.75537109 C109.57779175 165.7036377 109.19989502 166.6519043 108.81054688 167.62890625 C108.48276245 168.45463135 108.15497803 169.28035645 107.81726074 170.13110352 C107 172 107 172 106 173 C103.1883662 173.08861992 100.40141745 173.11522355 97.58984375 173.09765625 C96.74780899 173.0962413 95.90577423 173.09482635 95.03822327 173.09336853 C92.33794665 173.08775263 89.63775172 173.07519748 86.9375 173.0625 C85.11132932 173.05748705 83.28515734 173.05292379 81.45898438 173.04882812 C76.97262458 173.03777804 72.48632616 173.02050279 68 173 C67.75278702 172.37681381 67.50557404 171.75362762 67.25086975 171.11155701 C64.71730536 164.72516282 62.1831254 158.33901318 59.64846611 151.95305347 C58.20726868 148.32199964 56.76622647 144.69088437 55.32553101 141.05963135 C47.40211104 121.08949495 39.45863927 101.12745122 31.49545479 81.17313576 C28.67221009 74.09765914 25.85070845 67.02148716 23.0290823 59.94536495 C20.21837254 52.89738451 17.40455834 45.85065275 14.58871269 38.80472279 C12.81603395 34.36697689 11.04619187 29.92810375 9.27710724 25.48892403 C8.44289135 23.39738325 7.60745926 21.30632713 6.77077484 19.21577263 C5.62244256 16.34609903 4.47830554 13.47478816 3.33520508 10.60302734 C2.99418794 9.75378409 2.6531708 8.90454084 2.3018198 8.02956295 C0 2.22811469 0 2.22811469 0 0 Z " fill="#A1A1A1" transform="translate(1655,427)"/>
<path d="M0 0 C36.96 0 73.92 0 112 0 C112 10.23 112 20.46 112 31 C110.32664004 32.67335996 108.28612091 32.11962895 106.05252075 32.12442017 C105.3454599 32.12082489 104.63839905 32.11722961 103.90991211 32.11352539 C103.16849472 32.11367142 102.42707733 32.11381744 101.66319275 32.1139679 C99.20121379 32.11326865 96.73930957 32.10547574 94.27734375 32.09765625 C92.57483461 32.09579211 90.87232493 32.09436819 89.16981506 32.09336853 C84.68006927 32.08954302 80.19035562 32.07971247 75.70062256 32.06866455 C70.31836359 32.05665668 64.9360939 32.05204835 59.55382538 32.04621124 C51.36919454 32.03650072 43.18463428 32.01734441 35 32 C35 45.2 35 58.4 35 72 C56.12 72 77.24 72 99 72 C99 82.23 99 92.46 99 103 C98 104 98 104 95.48802185 104.12025452 C94.37105423 104.11803391 93.25408661 104.11581329 92.10327148 104.11352539 C90.82432007 104.11340454 89.54536865 104.11328369 88.22766113 104.11315918 C86.85880485 104.10812271 85.48994904 104.10295607 84.12109375 104.09765625 C82.88363403 104.09664917 81.64617432 104.09564209 80.37121582 104.09460449 C75.72663452 104.08935285 71.08206638 104.07539175 66.4375 104.0625 C56.063125 104.041875 45.68875 104.02125 35 104 C35 126.77 35 149.54 35 173 C23.45 173 11.9 173 0 173 C0 115.91 0 58.82 0 0 Z " fill="#A0A0A0" transform="translate(762,427)"/>
<path d="M0 0 C11.55 0 23.1 0 35 0 C35 46.86 35 93.72 35 142 C60.08 142 85.16 142 111 142 C111 152.23 111 162.46 111 173 C74.37 173 37.74 173 0 173 C0 115.91 0 58.82 0 0 Z " fill="#A1A1A1" transform="translate(2009,427)"/>
<path d="M0 0 C1.80078125 1.1171875 1.80078125 1.1171875 3.4375 2.3125 C4.51 3.075625 5.5825 3.83875 6.6875 4.625 C11.18757268 9.0227983 14.18563815 14.01249359 14.56054783 20.41328049 C14.55916514 21.54708586 14.55916514 21.54708586 14.55775452 22.70379639 C14.55912918 23.57595291 14.56050385 24.44810944 14.56192017 25.34669495 C14.55652725 26.76981239 14.55652725 26.76981239 14.55102539 28.22167969 C14.55117142 29.22688156 14.55131744 30.23208344 14.5514679 31.26774597 C14.55077128 34.58997761 14.54299058 37.91215316 14.53515625 41.234375 C14.53329118 43.53794321 14.5318677 45.84151182 14.53086853 48.14508057 C14.52705037 54.20807999 14.51722604 60.27105545 14.50616455 66.33404541 C14.49593538 72.52087073 14.49136768 78.70769991 14.48632812 84.89453125 C14.47560317 97.03386469 14.45853513 109.17318035 14.4375 121.3125 C12.99378559 121.16359994 11.5504067 121.0114442 10.10717773 120.85791016 C9.30336166 120.77352692 8.49954559 120.68914368 7.67137146 120.60220337 C-0.86753078 119.4948215 -7.92763451 114.46940667 -14.5625 109.3125 C-15.325625 108.73886719 -16.08875 108.16523438 -16.875 107.57421875 C-28.76451475 97.93462953 -36.05489336 83.24799106 -38.5625 68.3125 C-38.84314487 64.53832463 -38.86672865 60.77960845 -38.86328125 56.99609375 C-38.86756638 55.94019547 -38.8718515 54.88429718 -38.87626648 53.79640198 C-38.88197883 51.57692173 -38.88253304 49.35742277 -38.87817383 47.13793945 C-38.87500595 43.75634762 -38.89854003 40.37562512 -38.92382812 36.99414062 C-38.92610075 34.82812609 -38.92680478 32.66210923 -38.92578125 30.49609375 C-38.934991 29.49380234 -38.94420074 28.49151093 -38.95368958 27.45884705 C-38.89064486 17.82961999 -36.44315432 11.33679847 -29.7109375 4.30078125 C-21.88381115 -2.94286841 -9.83638356 -4.64337952 0 0 Z " fill="#010101" transform="translate(305.5625,269.6875)"/>
<path d="M0 0 C5.28009192 2.77649777 9.91611634 7.69756778 11.80078125 13.3515625 C12.75293593 26.04085465 12.75293593 26.04085465 8.80078125 31.3515625 C3.23762974 36.91471401 -0.41753565 39.48661834 -8.44921875 39.6640625 C-15.37920428 39.58714812 -18.92963041 38.62859865 -23.9140625 33.6328125 C-28.95939745 28.02952286 -29.51016683 23.76479577 -29.40234375 16.2890625 C-28.98956333 10.31962264 -26.46002434 7.42391465 -22.19921875 3.5390625 C-16.10354143 -1.69075157 -7.66996117 -2.26148056 0 0 Z M-22.63671875 10.0390625 C-24.92108851 14.88192639 -26.06584326 19.29953704 -24.5703125 24.56640625 C-22.44340926 29.34526415 -19.88862653 31.85719666 -15.19921875 34.3515625 C-10.12383478 36.04335716 -5.87957439 35.91528117 -1.01171875 33.7265625 C2.85427373 31.57629149 4.88137038 29.42071354 6.80078125 25.3515625 C8.1644342 20.54758252 8.288247 16.6450525 6.23828125 12.0390625 C3.55056604 7.35422558 -0.12124215 5.04422137 -5.19921875 3.3515625 C-12.50195727 2.63560774 -17.74788621 4.64881124 -22.63671875 10.0390625 Z " fill="#000000" transform="translate(1922.19921875,262.6484375)"/>
<path d="M0 0 C11.33805722 -0.49295901 11.33805722 -0.49295901 14.40234375 1.7890625 C16 4 16 4 15.8125 7.625 C15 11 15 11 14 13 C14.93446535 15.03144641 15.93224776 17.03533587 17 19 C14.6875 19.3125 14.6875 19.3125 12 19 C10.98133771 17.34467377 9.98189187 15.67739862 9 14 C6.40877257 13.11341534 6.40877257 13.11341534 4 13 C4 14.98 4 16.96 4 19 C2.68 19 1.36 19 0 19 C0 12.73 0 6.46 0 0 Z M4 4 C4 5.65 4 7.3 4 9 C6.31 9 8.62 9 11 9 C11 7.35 11 5.7 11 4 C8.69 4 6.38 4 4 4 Z " fill="#000000" transform="translate(1906,272)"/>
</svg>
